<?xml version="1.0" encoding="UTF-8" standalone="no"?>
<!DOCTYPE svg PUBLIC "-//W3C//DTD SVG 1.1//EN" "http://www.w3.org/Graphics/SVG/1.1/DTD/svg11.dtd">
<!-- Created with Vectornator (http://vectornator.io/) -->
<svg height="100%" stroke-miterlimit="10" style="fill-rule:nonzero;clip-rule:evenodd;stroke-linecap:round;stroke-linejoin:round;" version="1.1" viewBox="1167.92 282.038 79.3656 81.5442" width="100%" xml:space="preserve" xmlns="http://www.w3.org/2000/svg" xmlns:vectornator="http://vectornator.io" xmlns:xlink="http://www.w3.org/1999/xlink">
<defs/>
<clipPath id="ArtboardFrame">
<rect height="81.5442" width="79.3656" x="1167.92" y="282.038"/>
</clipPath>
<g clip-path="url(#ArtboardFrame)" id="Layer" vectornator:layerName="Layer">
<g opacity="1" vectornator:layerName="Group 9">
<g opacity="1" vectornator:layerName="Hand Cursor 3">
<path d="M1220.15 358.134C1219.77 358.134 1219.47 358.438 1219.47 358.815L1219.47 360.177C1219.47 360.554 1219.77 360.858 1220.15 360.858C1220.53 360.858 1220.83 360.554 1220.83 360.177L1220.83 358.815C1220.83 358.438 1220.53 358.134 1220.15 358.134ZM1223.56 358.134C1223.18 358.134 1222.88 358.438 1222.88 358.815L1222.88 360.177C1222.88 360.554 1223.18 360.858 1223.56 360.858C1223.93 360.858 1224.24 360.554 1224.24 360.177L1224.24 358.815C1224.24 358.438 1223.93 358.134 1223.56 358.134ZM1226.96 358.134C1226.59 358.134 1226.28 358.438 1226.28 358.815L1226.28 360.177C1226.28 360.554 1226.59 360.858 1226.96 360.858C1227.34 360.858 1227.64 360.554 1227.64 360.177L1227.64 358.815C1227.64 358.438 1227.34 358.134 1226.96 358.134ZM1230.37 358.134C1229.99 358.134 1229.69 358.438 1229.69 358.815L1229.69 360.177C1229.69 360.554 1229.99 360.858 1230.37 360.858C1230.74 360.858 1231.05 360.554 1231.05 360.177L1231.05 358.815C1231.05 358.438 1230.74 358.134 1230.37 358.134ZM1233.77 358.134C1233.4 358.134 1233.09 358.438 1233.09 358.815L1233.09 360.177C1233.09 360.554 1233.4 360.858 1233.77 360.858C1234.15 360.858 1234.45 360.554 1234.45 360.177L1234.45 358.815C1234.45 358.438 1234.15 358.134 1233.77 358.134ZM1237.18 358.134C1236.8 358.134 1236.5 358.438 1236.5 358.815L1236.5 360.177C1236.5 360.554 1236.8 360.858 1237.18 360.858C1237.56 360.858 1237.86 360.554 1237.86 360.177L1237.86 358.815C1237.86 358.438 1237.56 358.134 1237.18 358.134ZM1240.58 358.134C1240.21 358.134 1239.9 358.438 1239.9 358.815L1239.9 360.177C1239.9 360.554 1240.21 360.858 1240.58 360.858C1240.96 360.858 1241.27 360.554 1241.27 360.177L1241.27 358.815C1241.27 358.438 1240.96 358.134 1240.58 358.134ZM1232.95 335.028C1232.99 335.028 1233.03 335.034 1233.07 335.036C1233.09 335.035 1233.12 335.028 1233.14 335.028L1232.95 335.028Z" fill="#000000" fill-rule="nonzero" opacity="1" stroke="none" vectornator:layerName="path"/>
<path d="M1242.63 356.108L1242.53 355.461C1242.57 355.045 1242.58 354.625 1242.58 354.248C1242.58 354.028 1242.58 353.82 1242.57 353.638L1241.46 338.652C1241.36 337.001 1239.98 335.709 1238.33 335.709C1237.49 335.709 1236.7 336.035 1236.11 336.629C1236.05 336.686 1235.99 336.744 1235.94 336.805C1235.38 335.768 1234.29 335.077 1233.07 335.036C1232.12 335.057 1231.27 335.457 1230.67 336.098C1230.17 334.658 1228.81 333.665 1227.24 333.665C1226.38 333.665 1225.59 333.973 1224.97 334.477L1224.97 333.665L1224.97 330.941L1224.97 324.811C1224.97 322.933 1223.44 321.406 1221.56 321.406C1219.68 321.406 1218.16 322.93 1218.15 324.803L1218.11 339.716C1218.11 339.726 1218.11 339.734 1218.11 339.744L1218.11 340.54L1214.02 337.911C1212.91 337.2 1211.57 337.153 1210.41 337.782C1209.26 338.412 1208.57 339.571 1208.57 340.885C1208.57 341.175 1208.66 341.452 1208.83 341.687L1218.98 355.631C1217.68 356.113 1216.75 357.352 1216.75 358.815L1216.75 362.22C1216.75 362.972 1217.36 363.583 1218.11 363.583L1242.63 363.583C1243.38 363.583 1243.99 362.972 1243.99 362.22L1243.99 358.815C1243.99 357.707 1243.45 356.73 1242.63 356.108ZM1209.93 340.885C1209.93 340.077 1210.36 339.366 1211.07 338.978C1211.77 338.591 1212.6 338.62 1213.28 339.057L1218.11 342.159L1218.11 343.83C1218.11 344.207 1218.41 344.511 1218.79 344.511C1219.17 344.511 1219.47 344.207 1219.47 343.83L1219.47 341.784L1219.52 324.806C1219.52 323.683 1220.43 322.768 1221.56 322.768C1222.69 322.768 1223.61 323.685 1223.61 324.811L1223.61 333.665L1223.61 336.007L1223.61 338.433C1223.61 338.81 1223.91 339.114 1224.29 339.114C1224.3 339.114 1224.31 339.109 1224.31 339.109C1224.33 339.111 1224.33 339.113 1224.35 339.112C1224.39 339.109 1224.43 339.09 1224.47 339.078C1224.5 339.069 1224.54 339.065 1224.57 339.05C1224.62 339.028 1224.66 338.994 1224.7 338.962C1224.73 338.942 1224.76 338.928 1224.78 338.904C1224.82 338.864 1224.84 338.814 1224.87 338.766C1224.89 338.74 1224.91 338.719 1224.92 338.691C1224.95 338.611 1224.97 338.524 1224.97 338.433L1224.97 337.296C1224.97 336.045 1225.99 335.028 1227.24 335.028C1228.35 335.028 1229.29 335.825 1229.48 336.923L1229.75 338.546C1229.81 338.895 1230.12 339.141 1230.47 339.112C1230.83 339.083 1231.1 338.788 1231.1 338.433C1231.1 337.337 1231.97 336.446 1233.05 336.399C1233.98 336.446 1234.77 337.115 1234.96 338.033L1235.2 339.248C1235.27 339.591 1235.59 339.827 1235.93 339.792C1236.28 339.757 1236.55 339.464 1236.55 339.114L1236.55 338.849C1236.55 338.849 1236.55 338.849 1236.55 338.848C1236.55 338.374 1236.73 337.927 1237.07 337.591C1237.4 337.256 1237.85 337.071 1238.33 337.071C1239.26 337.071 1240.04 337.802 1240.1 338.737L1241.21 353.723C1241.24 354.183 1241.22 354.837 1241.17 355.461L1220.5 355.409L1209.93 340.885ZM1242.63 362.22L1218.11 362.22L1218.11 358.815C1218.11 357.688 1219.02 356.772 1220.15 356.772L1240.58 356.772C1240.71 356.772 1240.84 356.787 1240.97 356.81C1240.96 356.815 1240.96 356.819 1240.96 356.823L1241.03 356.823C1241.94 357.026 1242.63 357.841 1242.63 358.816L1242.63 362.22L1242.63 362.22Z" fill="#000000" fill-rule="nonzero" opacity="1" stroke="none" vectornator:layerName="path"/>
</g>
<path d="M1186.28 294.495C1186.28 293.265 1187.19 292.268 1188.31 292.268C1189.44 292.268 1190.35 293.265 1190.35 294.495C1190.35 295.725 1189.44 296.722 1188.31 296.722C1187.19 296.722 1186.28 295.725 1186.28 294.495Z" fill="#f1d244" fill-rule="nonzero" opacity="1" stroke="#000000" stroke-linecap="butt" stroke-linejoin="round" stroke-width="0.690418" vectornator:layerName="Oval 51"/>
<path d="M1220.27 298.346C1220.27 297.137 1221.17 296.156 1222.28 296.156C1223.38 296.156 1224.28 297.137 1224.28 298.346C1224.28 299.556 1223.38 300.537 1222.28 300.537C1221.17 300.537 1220.27 299.556 1220.27 298.346Z" fill="#3e68ff" fill-rule="nonzero" opacity="1" stroke="#000000" stroke-linecap="butt" stroke-linejoin="round" stroke-width="0.679118" vectornator:layerName="Oval 53"/>
<path d="M1179.85 302.596C1179.85 301.366 1180.76 300.369 1181.89 300.369C1183.01 300.369 1183.92 301.366 1183.92 302.596C1183.92 303.826 1183.01 304.823 1181.89 304.823C1180.76 304.823 1179.85 303.826 1179.85 302.596Z" fill="#f1d244" fill-rule="nonzero" opacity="1" stroke="#000000" stroke-linecap="butt" stroke-linejoin="round" stroke-width="0.690418" vectornator:layerName="Oval 55"/>
<path d="M1195.54 296.156C1195.54 294.926 1196.46 293.929 1197.58 293.929C1198.7 293.929 1199.62 294.926 1199.62 296.156C1199.62 297.386 1198.7 298.383 1197.58 298.383C1196.46 298.383 1195.54 297.386 1195.54 296.156Z" fill="#f1d244" fill-rule="nonzero" opacity="1" stroke="#000000" stroke-linecap="butt" stroke-linejoin="round" stroke-width="0.690418" vectornator:layerName="Oval 57"/>
<path d="M1235.75 295.238C1235.75 294.028 1236.65 293.047 1237.76 293.047C1238.86 293.047 1239.76 294.028 1239.76 295.238C1239.76 296.448 1238.86 297.428 1237.76 297.428C1236.65 297.428 1235.75 296.448 1235.75 295.238Z" fill="#3e68ff" fill-rule="nonzero" opacity="1" stroke="#000000" stroke-linecap="butt" stroke-linejoin="round" stroke-width="0.679118" vectornator:layerName="Oval 59"/>
<path d="M1195.54 305.045C1195.54 303.815 1196.46 302.818 1197.58 302.818C1198.7 302.818 1199.62 303.815 1199.62 305.045C1199.62 306.274 1198.7 307.271 1197.58 307.271C1196.46 307.271 1195.54 306.274 1195.54 305.045Z" fill="#f1d244" fill-rule="nonzero" opacity="1" stroke="#000000" stroke-linecap="butt" stroke-linejoin="round" stroke-width="0.690418" vectornator:layerName="Oval 61"/>
<path d="M1228.98 304.082C1228.98 302.872 1229.88 301.891 1230.98 301.891C1232.09 301.891 1232.99 302.872 1232.99 304.082C1232.99 305.291 1232.09 306.272 1230.98 306.272C1229.88 306.272 1228.98 305.291 1228.98 304.082Z" fill="#3e68ff" fill-rule="nonzero" opacity="1" stroke="#000000" stroke-linecap="butt" stroke-linejoin="round" stroke-width="0.679118" vectornator:layerName="Oval 63"/>
<path d="M1186.98 309.979C1186.98 308.749 1187.9 307.752 1189.02 307.752C1190.14 307.752 1191.06 308.749 1191.06 309.979C1191.06 311.209 1190.14 312.206 1189.02 312.206C1187.9 312.206 1186.98 311.209 1186.98 309.979Z" fill="#f1d244" fill-rule="nonzero" opacity="1" stroke="#000000" stroke-linecap="butt" stroke-linejoin="round" stroke-width="0.690418" vectornator:layerName="Oval 65"/>
<path d="M1181.82 339.225C1181.82 337.936 1182.77 336.891 1183.95 336.891C1185.13 336.891 1186.08 337.936 1186.08 339.225C1186.08 340.514 1185.13 341.559 1183.95 341.559C1182.77 341.559 1181.82 340.514 1181.82 339.225Z" fill="#e94420" fill-rule="nonzero" opacity="1" stroke="#000000" stroke-linecap="butt" stroke-linejoin="round" stroke-width="0.723514" vectornator:layerName="Oval 67"/>
<path d="M1175.08 347.715C1175.08 346.426 1176.04 345.381 1177.22 345.381C1178.39 345.381 1179.35 346.426 1179.35 347.715C1179.35 349.003 1178.39 350.048 1177.22 350.048C1176.04 350.048 1175.08 349.003 1175.08 347.715Z" fill="#e94420" fill-rule="nonzero" opacity="1" stroke="#000000" stroke-linecap="butt" stroke-linejoin="round" stroke-width="0.723514" vectornator:layerName="Oval 69"/>
<path d="M1191.28 341.559C1191.28 340.27 1192.23 339.225 1193.41 339.225C1194.59 339.225 1195.54 340.27 1195.54 341.559C1195.54 342.847 1194.59 343.892 1193.41 343.892C1192.23 343.892 1191.28 342.847 1191.28 341.559Z" fill="#e94420" fill-rule="nonzero" opacity="1" stroke="#000000" stroke-linecap="butt" stroke-linejoin="round" stroke-width="0.723514" vectornator:layerName="Oval 71"/>
<path d="M1184.85 351.895C1184.85 350.606 1185.81 349.561 1186.98 349.561C1188.16 349.561 1189.12 350.606 1189.12 351.895C1189.12 353.183 1188.16 354.228 1186.98 354.228C1185.81 354.228 1184.85 353.183 1184.85 351.895Z" fill="#e94420" fill-rule="nonzero" opacity="1" stroke="#000000" stroke-linecap="butt" stroke-linejoin="round" stroke-width="0.723514" vectornator:layerName="Oval 73"/>
<path d="M1222.28 309.189C1222.28 307.979 1223.17 306.998 1224.28 306.998C1225.38 306.998 1226.28 307.979 1226.28 309.189C1226.28 310.398 1225.38 311.379 1224.28 311.379C1223.17 311.379 1222.28 310.398 1222.28 309.189Z" fill="#3e68ff" fill-rule="nonzero" opacity="1" stroke="#000000" stroke-linecap="butt" stroke-linejoin="round" stroke-width="0.679118" vectornator:layerName="Oval 75"/>
<path d="M1189.71 282.836C1180.03 282.836 1172.18 290.687 1172.18 300.373C1172.18 310.059 1180.03 317.911 1189.71 317.911C1199.4 317.911 1207.25 310.059 1207.25 300.373C1207.25 290.687 1199.4 282.836 1189.71 282.836Z" fill="none" opacity="1" stroke="#000000" stroke-linecap="butt" stroke-linejoin="miter" stroke-width="1.59432" vectornator:layerName="path 14"/>
<path d="M1228.96 283.848C1219.27 283.848 1211.42 291.7 1211.42 301.386C1211.42 311.072 1219.27 318.923 1228.96 318.923C1238.64 318.923 1246.49 311.072 1246.49 301.386C1246.49 291.7 1238.64 283.848 1228.96 283.848Z" fill="none" opacity="1" stroke="#000000" stroke-linecap="butt" stroke-linejoin="miter" stroke-width="1.59432" vectornator:layerName="path 16"/>
<path d="M1186.26 326.015C1176.57 326.015 1168.72 333.867 1168.72 343.553C1168.72 353.239 1176.57 361.091 1186.26 361.091C1195.94 361.091 1203.8 353.239 1203.8 343.553C1203.8 333.867 1195.94 326.015 1186.26 326.015Z" fill="none" opacity="1" stroke="#000000" stroke-linecap="butt" stroke-linejoin="miter" stroke-width="1.59432" vectornator:layerName="path 18"/>
</g>
</g>
</svg>
