<?xml version="1.0" encoding="UTF-8" standalone="no"?>
<!DOCTYPE svg PUBLIC "-//W3C//DTD SVG 1.1//EN" "http://www.w3.org/Graphics/SVG/1.1/DTD/svg11.dtd">
<!-- Created with Vectornator (http://vectornator.io/) -->
<svg height="100%" stroke-miterlimit="10" style="fill-rule:nonzero;clip-rule:evenodd;stroke-linecap:round;stroke-linejoin:round;" version="1.1" viewBox="650.598 289.447 79.5482 76.9314" width="100%" xml:space="preserve" xmlns="http://www.w3.org/2000/svg" xmlns:vectornator="http://vectornator.io" xmlns:xlink="http://www.w3.org/1999/xlink">
<defs/>
<clipPath id="ArtboardFrame">
<rect height="76.9314" width="79.5482" x="650.598" y="289.447"/>
</clipPath>
<g clip-path="url(#ArtboardFrame)" id="Layer" vectornator:layerName="Layer">
<g opacity="1" vectornator:layerName="Group 6">
<g opacity="1" vectornator:layerName="Google Earth 6">
<path d="M676.63 292.278C688.357 292.278 698.063 301.782 698.063 313.711C698.063 325.439 688.56 335.144 676.63 335.144C664.902 335.144 655.197 325.439 655.197 313.711C655.197 301.984 664.902 292.278 676.63 292.278M676.63 289.447C663.285 289.447 652.366 300.366 652.366 313.711C652.366 327.056 663.285 337.975 676.63 337.975C689.975 337.975 700.894 327.056 700.894 313.711C700.894 300.366 689.975 289.447 676.63 289.447L676.63 289.447Z" fill="#000000" fill-rule="nonzero" opacity="1" stroke="none" vectornator:layerName="path"/>
<path d="M654.388 308.05C654.388 308.05 657.421 302.59 662.476 302.59C667.329 302.59 674.001 308.656 681.685 313.509C687.549 317.351 693.412 320.586 698.872 320.586C699.883 320.586 695.839 326.652 695.839 326.652C695.839 326.652 691.39 328.472 686.538 328.472C670.159 328.472 662.88 321.193 658.836 321.193C655.803 321.193 655.399 323.821 655.399 323.821C655.399 323.821 650.748 314.52 654.388 308.05ZM659.847 298.142C659.847 298.142 661.061 295.918 666.924 295.918C673.799 295.918 679.663 303.399 684.516 307.645C689.368 311.891 695.434 316.946 699.68 316.946C700.489 311.689 699.478 308.252 698.872 307.241C698.265 306.23 698.872 309.061 697.052 309.061C691.997 309.061 688.155 292.076 674.001 292.076C665.509 292.076 661.465 295.513 659.847 298.142ZM666.924 334.74C666.924 334.74 665.105 330.898 668.542 330.898C671.777 330.898 675.214 333.122 682.089 333.122C688.964 333.122 692.603 330.898 692.603 330.898C692.603 330.898 687.549 336.155 679.056 337.166C670.564 337.975 669.149 335.953 666.924 334.74Z" fill="#000000" fill-rule="nonzero" opacity="1" stroke="none" vectornator:layerName="path"/>
</g>
<path d="M715.865 322.744C715.834 322.744 715.805 322.749 715.774 322.749C715.87 321.966 715.937 321.174 715.937 320.367C715.937 309.741 707.323 301.126 696.696 301.126C688.415 301.126 681.379 306.366 678.665 313.701C676.944 311.977 674.562 310.908 671.933 310.908C666.677 310.908 662.417 315.168 662.417 320.422C662.417 320.557 662.433 320.687 662.438 320.82C656.634 322.424 652.366 327.727 652.366 334.041C652.366 341.623 658.512 347.769 666.096 347.769C669.866 347.769 712.731 347.769 715.865 347.769C722.778 347.769 728.379 342.168 728.379 335.257C728.379 328.347 722.778 322.744 715.865 322.744Z" fill="#ffffff" fill-rule="nonzero" opacity="1" stroke="#000000" stroke-linecap="butt" stroke-linejoin="miter" stroke-width="3.5352" vectornator:layerName="path 1"/>
<g opacity="1" vectornator:layerName="Arrow 1">
<path d="M685.349 360.274L685.143 342.275C685.13 341.17 684.225 340.285 683.12 340.298L681.12 340.321C680.015 340.334 679.13 341.239 679.143 342.344L679.349 360.343L685.349 360.274Z" fill="#000000" fill-rule="nonzero" opacity="1" stroke="none" vectornator:layerName="path"/>
<path d="M674.232 356.401C674.23 356.252 674.262 356.102 674.329 355.961C674.492 355.616 674.837 355.394 675.22 355.39L689.362 355.227C689.743 355.223 690.095 355.437 690.266 355.778C690.438 356.121 690.399 356.529 690.168 356.833L683.201 365.985C683.015 366.23 682.726 366.375 682.417 366.379C682.108 366.382 681.816 366.244 681.624 366.003L674.449 357.014C674.308 356.836 674.234 356.62 674.232 356.401Z" fill="#000000" fill-rule="nonzero" opacity="1" stroke="none" vectornator:layerName="path"/>
</g>
<g opacity="1" vectornator:layerName="Arrow 2">
<path d="M697.857 333.357L698.016 351.356C698.025 352.461 698.928 353.348 700.033 353.338L702.033 353.321C703.138 353.311 704.025 352.408 704.015 351.303L703.857 333.304L697.857 333.357Z" fill="#000000" fill-rule="nonzero" opacity="1" stroke="none" vectornator:layerName="path"/>
<path d="M708.964 337.259C708.965 337.408 708.934 337.558 708.866 337.699C708.702 338.044 708.356 338.265 707.973 338.268L693.831 338.392C693.449 338.396 693.099 338.181 692.929 337.839C692.758 337.496 692.797 337.088 693.029 336.784L700.02 327.651C700.207 327.407 700.497 327.262 700.806 327.26C701.115 327.257 701.406 327.396 701.598 327.638L708.749 336.646C708.889 336.824 708.962 337.04 708.964 337.259Z" fill="#000000" fill-rule="nonzero" opacity="1" stroke="none" vectornator:layerName="path"/>
</g>
</g>
</g>
</svg>
