<?xml version="1.0" encoding="UTF-8" standalone="no"?>
<!DOCTYPE svg PUBLIC "-//W3C//DTD SVG 1.1//EN" "http://www.w3.org/Graphics/SVG/1.1/DTD/svg11.dtd">
<!-- Created with Vectornator (http://vectornator.io/) -->
<svg height="100%" stroke-miterlimit="10" style="fill-rule:nonzero;clip-rule:evenodd;stroke-linecap:round;stroke-linejoin:round;" version="1.1" viewBox="428.832 279.939 73.3992 73.3992" width="100%" xml:space="preserve" xmlns="http://www.w3.org/2000/svg" xmlns:vectornator="http://vectornator.io" xmlns:xlink="http://www.w3.org/1999/xlink">
<defs/>
<clipPath id="ArtboardFrame">
<rect height="73.3992" width="73.3992" x="428.832" y="279.939"/>
</clipPath>
<g clip-path="url(#ArtboardFrame)" id="Layer" vectornator:layerName="Layer">
<g opacity="1" vectornator:layerName="Satellite in Orbit 1">
<path d="M428.832 313.92L428.832 319.676C448.009 323.335 463.942 336.129 472.002 353.338L478.247 353.338C469.693 332.973 451.177 317.802 428.832 313.92ZM464.487 353.338L428.832 353.338L428.832 324.433C431.573 331.906 434.769 332.572 438.62 339.22C441.714 344.564 450.635 339.63 455.264 342.718C461.052 346.577 462.737 349.078 464.487 353.338ZM455.916 309.745C457.943 307.718 464.507 307.328 469.673 312.497C474.839 317.666 474.45 324.23 472.426 326.254L455.916 309.745Z" fill="#000000" fill-rule="nonzero" opacity="1" stroke="none" vectornator:layerName="path"/>
<path d="M463.358 315.34C461.44 315.34 459.886 316.895 459.886 318.813C459.886 320.73 461.44 322.285 463.358 322.285C465.276 322.285 466.83 320.73 466.83 318.813C466.83 316.895 465.276 315.34 463.358 315.34ZM462.328 305.107L477.064 319.843C476.474 320.433 492.619 304.288 492.743 304.164C494.098 302.809 494.098 300.607 492.743 299.252C491.676 298.185 483.986 290.495 482.919 289.427C481.564 288.072 479.362 288.072 478.007 289.427C477.883 289.552 461.738 305.697 462.328 305.107Z" fill="#000000" fill-rule="nonzero" opacity="1" stroke="none" vectornator:layerName="path"/>
<path d="M461.56 300.864L454.24 293.546L465.024 282.762L472.341 290.082M492.088 309.827L499.408 317.147L488.624 327.931L481.304 320.611" fill="none" opacity="1" stroke="#000000" stroke-linecap="butt" stroke-linejoin="round" stroke-width="5.64609" vectornator:layerName="path"/>
</g>
</g>
</svg>
