<svg width="558" height="563" xmlns="http://www.w3.org/2000/svg" xmlns:xlink="http://www.w3.org/1999/xlink" xml:space="preserve" overflow="hidden"><defs><clipPath id="clip0"><rect x="187" y="1197" width="558" height="563"/></clipPath></defs><g clip-path="url(#clip0)" transform="translate(-187 -1197)"><path d="M466.808 1242C500.198 1242 532.007 1248.76 560.939 1260.98L564 1262.64 564 1393 387 1393 387 1255.74 394.895 1252.86C417.612 1245.8 441.766 1242 466.808 1242Z" fill="#4E95D9" fill-rule="evenodd"/><path d="M384 1257 384 1393 243 1393 244.289 1389.49C268.805 1331.69 315.239 1285.39 373.201 1260.94L384 1257Z" fill="#A6CAEC" fill-rule="evenodd"/><path d="M568 1265 602.369 1283.62C640.847 1309.57 671.417 1346.31 689.717 1389.5L691 1393 568 1393 568 1265Z" fill="#215F9A" fill-rule="evenodd"/><path d="M241.475 1397 384 1397 384 1571 241.475 1571 235.908 1555.85C228.819 1533.15 225 1509.02 225 1484 225 1458.98 228.819 1434.85 235.908 1412.15L241.475 1397Z" fill="#4E95D9" fill-rule="evenodd"/><path d="M387 1397 564 1397 564 1571 387 1571 387 1397Z" fill="#92D050" fill-rule="evenodd"/><path d="M568 1397 692.591 1397 698.135 1412.15C705.196 1434.85 709 1458.98 709 1484 709 1509.02 705.196 1533.16 698.135 1555.85L692.591 1571 568 1571 568 1397Z" fill="#B4E5A2" fill-rule="evenodd"/><path d="M568 1574 692 1574 689.43 1581.05C671.174 1624.39 640.675 1661.27 602.288 1687.31L568 1706 568 1574Z" fill="#00B050" fill-rule="evenodd"/><path d="M243 1574 384 1574 384 1710 373.201 1706.06C315.239 1681.61 268.805 1635.31 244.289 1577.51L243 1574Z" fill="#FBE3D6" fill-rule="evenodd"/><path d="M387 1574 564 1574 564 1704.36 560.939 1706.02C532.007 1718.24 500.198 1725 466.808 1725 441.766 1725 417.612 1721.2 394.895 1714.14L387 1711.26 387 1574Z" fill="#8ED973" fill-rule="evenodd"/><path d="M468.381 1197C584.933 1197 684.934 1267.89 727.65 1368.93L741.29 1412.89 635.45 1412.89 634.08 1408.47C606.78 1343.9 542.869 1298.59 468.381 1298.59 369.064 1298.59 288.551 1379.14 288.551 1478.5 288.551 1577.86 369.064 1658.41 468.381 1658.41 524.247 1658.41 574.164 1632.92 607.147 1592.94L629.142 1556.67 506.699 1556.67 506.699 1459.69 745 1459.69 745 1525.77 744.046 1535.23 737.682 1556.67 737.681 1556.67 730.245 1581.72C689.094 1686.12 587.362 1760 468.381 1760 312.979 1760 187 1633.97 187 1478.5 187 1323.03 312.979 1197 468.381 1197Z" fill="#002060" fill-rule="evenodd"/></g></svg>