<svg width="384" height="384" xmlns="http://www.w3.org/2000/svg" xmlns:xlink="http://www.w3.org/1999/xlink" xml:space="preserve" overflow="hidden"><defs><clipPath id="clip0"><rect x="457" y="794" width="384" height="384"/></clipPath></defs><g clip-path="url(#clip0)" transform="translate(-457 -794)"><path d="M609.144 794 784.64 794C815.767 794 841 819.247 841 850.39L841 892.828 813.373 867.711C789.748 851.742 761.269 842.417 730.612 842.417 648.861 842.417 582.589 908.725 582.589 990.52 582.589 1072.31 648.861 1138.62 730.612 1138.62 765.1 1138.62 796.834 1126.82 821.999 1107.03L841 1088.47 841 1121.61C841 1152.75 815.767 1178 784.64 1178L595.447 1178 566.838 1154.38C524.924 1112.45 499 1054.51 499 990.52 499 910.53 539.507 840.005 601.116 798.36L609.144 794Z" fill="#00B050" fill-rule="evenodd"/><path d="M762 975 841 975 841 1055 762 1055 762 975Z" fill="#00B050" fill-rule="evenodd"/><path d="M513.383 794 609 794 600.968 798.36C539.334 840.005 498.811 910.53 498.811 990.52 498.811 1054.51 524.745 1112.45 566.676 1154.38L595.298 1178 513.383 1178C482.243 1178 457 1152.75 457 1121.61L457 850.39C457 819.247 482.243 794 513.383 794Z" fill="#002060" fill-rule="evenodd"/><path d="M730.36 842C761.087 842 789.631 851.349 813.31 867.361L841 892.546 841 974.971 761.972 974.971 761.972 1055.02 841 1055.02 841 1088.71 821.956 1107.33C796.733 1127.17 764.927 1139 730.36 1139 648.423 1139 582 1072.51 582 990.5 582 908.486 648.423 842 730.36 842Z" fill="#FFFFFF" fill-rule="evenodd"/></g></svg>