<?xml version="1.0" encoding="UTF-8" standalone="no"?>
<!DOCTYPE svg PUBLIC "-//W3C//DTD SVG 1.1//EN" "http://www.w3.org/Graphics/SVG/1.1/DTD/svg11.dtd">
<!-- Created with Vectornator (http://vectornator.io/) -->
<svg height="100%" stroke-miterlimit="10" style="fill-rule:nonzero;clip-rule:evenodd;stroke-linecap:round;stroke-linejoin:round;" version="1.1" viewBox="935.457 282.762 102.329 73.6156" width="100%" xml:space="preserve" xmlns="http://www.w3.org/2000/svg" xmlns:vectornator="http://vectornator.io" xmlns:xlink="http://www.w3.org/1999/xlink">
<defs/>
<clipPath id="ArtboardFrame">
<rect height="73.6156" width="102.329" x="935.457" y="282.762"/>
</clipPath>
<g clip-path="url(#ArtboardFrame)" id="Layer" vectornator:layerName="Layer">
<g opacity="1" vectornator:layerName="Group 7">
<g opacity="1" vectornator:layerName="Google Earth 5">
<path d="M1022.78 296.749C1030.03 296.749 1036.04 302.625 1036.04 310.002C1036.04 317.253 1030.16 323.255 1022.78 323.255C1015.53 323.255 1009.53 317.253 1009.53 310.002C1009.53 302.75 1015.53 296.749 1022.78 296.749M1022.78 294.998C1014.53 294.998 1007.78 301.75 1007.78 310.002C1007.78 318.253 1014.53 325.005 1022.78 325.005C1031.03 325.005 1037.79 318.253 1037.79 310.002C1037.79 301.75 1031.03 294.998 1022.78 294.998L1022.78 294.998Z" fill="#000000" fill-rule="nonzero" opacity="1" stroke="none" vectornator:layerName="path"/>
<path d="M1009.03 306.501C1009.03 306.501 1010.9 303.125 1014.03 303.125C1017.03 303.125 1021.16 306.876 1025.91 309.877C1029.53 312.252 1033.16 314.253 1036.54 314.253C1037.16 314.253 1034.66 318.003 1034.66 318.003C1034.66 318.003 1031.91 319.129 1028.91 319.129C1018.78 319.129 1014.28 314.628 1011.78 314.628C1009.9 314.628 1009.65 316.253 1009.65 316.253C1009.65 316.253 1006.78 310.502 1009.03 306.501ZM1012.41 300.374C1012.41 300.374 1013.16 298.999 1016.78 298.999C1021.03 298.999 1024.66 303.625 1027.66 306.251C1030.66 308.876 1034.41 312.002 1037.04 312.002C1037.54 308.751 1036.91 306.626 1036.54 306.001C1036.16 305.375 1036.54 307.126 1035.41 307.126C1032.28 307.126 1029.91 296.623 1021.16 296.623C1015.91 296.623 1013.41 298.749 1012.41 300.374ZM1016.78 323.005C1016.78 323.005 1015.66 320.629 1017.78 320.629C1019.78 320.629 1021.91 322.004 1026.16 322.004C1030.41 322.004 1032.66 320.629 1032.66 320.629C1032.66 320.629 1029.53 323.88 1024.28 324.505C1019.03 325.005 1018.16 323.755 1016.78 323.005Z" fill="#000000" fill-rule="nonzero" opacity="1" stroke="none" vectornator:layerName="path"/>
</g>
<g opacity="1" vectornator:layerName="Octopus 1">
<path d="M1004.3 311.608L1004.3 311.608C1004.83 309.73 1005.13 307.777 1005.13 305.748C1005.13 294.33 995.89 285.016 984.472 285.016C973.054 285.016 963.815 294.33 963.815 305.673C963.815 307.701 964.115 309.654 964.641 311.532L964.641 311.532L964.641 311.608C964.792 311.983 964.867 312.359 965.017 312.734L970.425 329.035L998.444 329.035L1003.85 312.809C1004 312.434 1004.15 312.058 1004.3 311.608L1004.3 311.608Z" fill="#ffffff" fill-rule="nonzero" opacity="1" stroke="none" vectornator:layerName="path"/>
<path d="M1005.13 305.673C1005.13 294.255 996.116 295.833 996.116 305.673C996.116 307.701 995.815 309.654 995.289 311.532L995.289 311.532L995.289 311.608C995.139 312.058 995.064 312.434 994.914 312.809L992.36 320.471C990.933 324.678 994.088 329.035 998.519 329.035L998.519 329.035L1003.93 312.809C1004.08 312.434 1004.23 311.983 1004.3 311.608L1004.3 311.532L1004.3 311.532C1004.83 309.73 1005.13 307.777 1005.13 305.673Z" fill="#c3dbea" fill-rule="nonzero" opacity="1" stroke="none" vectornator:layerName="path"/>
<path d="M979.214 311.833C978.094 311.833 977.186 312.741 977.186 313.861C977.186 314.981 978.094 315.889 979.214 315.889C980.334 315.889 981.242 314.981 981.242 313.861C981.242 312.741 980.334 311.833 979.214 311.833ZM988.829 311.833C987.709 311.833 986.801 312.741 986.801 313.861C986.801 314.981 987.709 315.889 988.829 315.889C989.949 315.889 990.857 314.981 990.857 313.861C990.857 312.741 989.949 311.833 988.829 311.833Z" fill="#000000" fill-rule="nonzero" opacity="1" stroke="none" vectornator:layerName="path"/>
<path d="M1002.88 305.673C1002.88 307.476 1002.65 309.204 1002.13 310.931C1002.13 310.931 1002.13 310.931 1002.13 311.007L1002.13 311.007C1002.05 311.382 1001.9 311.758 1001.75 312.133L1001.75 312.209L997.017 326.331C996.642 327.533 997.242 328.81 998.444 329.185C999.646 329.561 1000.92 328.96 1001.3 327.758L1005.96 313.636C1006.11 313.185 1006.26 312.734 1006.41 312.284C1006.41 312.209 1006.41 312.133 1006.48 312.133C1007.08 310.03 1007.38 307.927 1007.38 305.748C1007.38 293.053 997.092 282.762 984.472 282.762C971.853 282.762 961.561 293.053 961.561 305.673C961.561 307.852 961.862 309.955 962.463 312.058C962.463 312.133 962.463 312.209 962.538 312.284L962.538 312.359C962.688 312.809 962.838 313.185 962.914 313.561L967.646 327.908C967.946 328.885 968.848 329.486 969.749 329.486C969.975 329.486 970.2 329.486 970.425 329.335C971.627 328.96 972.228 327.683 971.853 326.481L967.195 312.058C967.045 311.758 966.97 311.382 966.82 311.007L966.82 310.931C966.294 309.204 966.069 307.476 966.069 305.673C966.069 295.532 974.331 287.269 984.472 287.269C994.613 287.269 1002.88 295.532 1002.88 305.673ZM959.683 345.861C965.317 345.861 970.425 342.331 972.378 336.997C972.754 335.946 973.956 335.27 975.083 335.57C976.36 335.871 977.186 337.148 976.886 338.425C976.196 341.628 974.762 344.548 972.738 346.993C971.012 349.077 968.858 350.817 966.369 352.096C965.242 352.622 964.792 353.974 965.392 355.101C965.768 355.927 966.594 356.378 967.421 356.378C967.796 356.378 968.097 356.303 968.397 356.153C975.083 352.847 979.815 346.688 981.317 339.401C982.069 335.72 979.74 332.04 976.059 331.288C972.679 330.537 969.299 332.34 968.097 335.57C966.82 339.026 963.439 341.354 959.683 341.354C954.726 341.354 950.669 337.298 950.669 332.34C950.669 331.063 949.693 330.087 948.416 330.087C947.139 330.087 946.162 331.063 946.162 332.34C946.162 339.852 952.247 345.861 959.683 345.861Z" fill="#000000" fill-rule="nonzero" opacity="1" stroke="none" vectornator:layerName="path"/>
<path d="M1018.28 332.415C1018.28 337.148 1014.44 341.204 1009.71 341.429C1007.6 341.511 1005.6 340.889 1003.98 339.731C1002.6 338.747 1001.5 337.376 1000.85 335.72C999.571 332.415 996.191 330.537 992.735 331.213L992.285 331.288C990.407 331.664 988.754 332.791 987.702 334.443C986.651 336.021 986.35 337.974 986.726 339.777C988.379 346.913 993.036 352.922 999.571 356.153C999.872 356.303 1000.25 356.378 1000.55 356.378C1001.37 356.378 1002.2 355.927 1002.58 355.101C1003.1 353.974 1002.65 352.622 1001.6 352.096C996.266 349.392 992.435 344.584 991.083 338.725C990.933 338.049 991.083 337.373 991.458 336.847C991.834 336.246 992.435 335.871 993.111 335.72L993.562 335.645C994.839 335.42 996.041 336.096 996.566 337.373C998.745 342.706 1004.08 346.162 1009.86 345.861C1016.92 345.561 1022.71 339.476 1022.78 332.34C1022.78 328.734 1021.36 325.354 1018.8 322.725C1017.9 321.824 1016.47 321.824 1015.65 322.725C1014.74 323.626 1014.74 325.054 1015.65 325.88C1017.37 327.683 1018.28 330.011 1018.28 332.415ZM951.721 322.124C950.476 322.124 949.467 323.133 949.467 324.378C949.467 325.622 950.476 326.631 951.721 326.631C952.966 326.631 953.975 325.622 953.975 324.378C953.975 323.133 952.966 322.124 951.721 322.124Z" fill="#000000" fill-rule="nonzero" opacity="1" stroke="none" vectornator:layerName="path"/>
</g>
<g opacity="1" vectornator:layerName="Wrench 2">
<path d="M955.644 326.607C956.004 328.473 957.808 329.694 959.674 329.334C961.54 328.974 962.761 327.17 962.401 325.304C962.042 323.438 960.237 322.217 958.371 322.577C956.505 322.937 955.284 324.741 955.644 326.607Z" fill="none" opacity="1" stroke="#000000" stroke-linecap="butt" stroke-linejoin="miter" stroke-width="2.75268" vectornator:layerName="path"/>
<path d="M938.797 308.944L942.027 311.13C942.658 311.556 943.054 312.197 943.188 312.889C943.321 313.581 943.191 314.323 942.764 314.952C941.912 316.211 940.201 316.541 938.942 315.689L935.712 313.503L935.603 314.093C935.409 315.132 935.409 316.163 935.6 317.155C936.462 321.627 940.8 324.562 945.272 323.7C945.972 323.565 946.654 323.335 947.308 323.012L954.958 328.19L955.729 327.05L956.501 325.91L958.043 323.631L958.815 322.491L959.586 321.352L951.935 316.174C951.992 315.447 951.953 314.729 951.818 314.028C950.956 309.557 946.618 306.621 942.146 307.483C941.154 307.674 940.197 308.057 939.304 308.624L938.797 308.944Z" fill="#000000" fill-rule="nonzero" opacity="1" stroke="none" vectornator:layerName="path"/>
</g>
</g>
</g>
</svg>
