<svg width="354" height="357" xmlns="http://www.w3.org/2000/svg" xmlns:xlink="http://www.w3.org/1999/xlink" xml:space="preserve" overflow="hidden"><defs><clipPath id="clip0"><rect x="349" y="1262" width="354" height="357"/></clipPath></defs><g clip-path="url(#clip0)" transform="translate(-349 -1262)"><path d="M527.511 1262C601.452 1262 664.894 1306.95 691.993 1371.02L700.647 1398.89 633.5 1398.89 632.631 1396.1C615.312 1355.15 574.766 1326.42 527.511 1326.42 464.503 1326.42 413.425 1377.5 413.425 1440.5 413.425 1503.5 464.503 1554.58 527.511 1554.58 562.952 1554.58 594.62 1538.42 615.545 1513.06L629.499 1490.07 551.82 1490.07 551.82 1428.57 703 1428.57 703 1470.47 702.395 1476.47 698.357 1490.07 698.357 1490.07 693.639 1505.95C667.533 1572.15 602.993 1619 527.511 1619 428.922 1619 349 1539.08 349 1440.5 349 1341.92 428.922 1262 527.511 1262Z" fill="#002060" fill-rule="evenodd"/><path d="M459 1440.5C459 1403.22 489.221 1373 526.5 1373 563.779 1373 594 1403.22 594 1440.5 594 1477.78 563.779 1508 526.5 1508 489.221 1508 459 1477.78 459 1440.5Z" fill="#002060" fill-rule="evenodd"/><path d="M524 1452.65C506.085 1452.65 491.752 1438.29 491.752 1420.35 491.752 1402.41 506.085 1388.06 524 1388.06 541.916 1388.06 556.248 1402.41 556.248 1420.35 556.248 1438.29 541.916 1452.65 524 1452.65ZM524 1345C499.277 1345 475.986 1357.2 462.012 1378.01 448.038 1398.46 445.171 1424.66 454.129 1447.98L488.169 1523.34 517.55 1585.05C518.626 1587.56 521.134 1589 524 1589 526.867 1589 529.375 1587.56 530.45 1585.05L559.832 1523.34 593.871 1447.98C602.829 1424.66 599.963 1398.46 585.988 1378.01 572.014 1357.2 548.724 1345 524 1345Z" fill="#FFC000" fill-rule="evenodd"/></g></svg>