<svg width="342" height="338" xmlns="http://www.w3.org/2000/svg" xmlns:xlink="http://www.w3.org/1999/xlink" xml:space="preserve" overflow="hidden"><defs><clipPath id="clip0"><rect x="398" y="779" width="342" height="338"/></clipPath></defs><g clip-path="url(#clip0)" transform="translate(-398 -779)"><path d="M465.28 898.203C500.166 886.86 538.374 891.943 569 912 599.627 891.943 637.835 886.86 672.72 898.203 673.536 893.17 673.964 888.083 674 882.985 674 825.556 626.99 779 569 779 511.011 779 464 825.556 464 882.985 464.037 888.083 464.465 893.17 465.28 898.203Z" fill="#FF0000" fill-rule="evenodd"/><path d="M683.417 920.102C673.279 951.349 650.743 977.111 621.042 991.405 622.297 998.398 622.931 1005.49 622.935 1012.59 622.941 1047.01 608.019 1079.76 582 1102.43 598.061 1111.97 616.413 1117 635.114 1117 693.019 1117.02 739.978 1070.32 740 1012.68 740.016 973.694 718.193 937.948 683.417 920Z" fill="#0B76A0" fill-rule="evenodd"/><path d="M603 982.213C596.98 962.128 585.144 944.299 569 931 552.856 944.299 541.019 962.128 535 982.213 557.016 989.929 580.984 989.929 603 982.213Z" fill-rule="evenodd"/><path d="M502.894 1116.9C521.591 1116.9 539.942 1111.87 556 1102.33 529.984 1079.66 515.065 1046.91 515.07 1012.49 515.075 1005.39 515.709 998.296 516.963 991.303 487.267 977.009 464.734 951.247 454.597 920 403.198 946.531 383.138 1009.52 409.789 1060.68 427.818 1095.29 463.727 1117.02 502.894 1117Z" fill="#FFC000" fill-rule="evenodd"/><path d="M569 1094C593.679 1074.05 608.006 1044.07 608 1012.41 607.955 1007.25 607.541 1002.1 606.762 997 582.231 1005.02 555.769 1005.02 531.238 997 530.459 1002.1 530.045 1007.25 530 1012.41 529.994 1044.07 544.322 1074.05 569 1094Z" fill="#47D45A" fill-rule="evenodd"/><path d="M669 913.708C640.117 903.731 608.293 906.941 582 922.483 598.378 936.817 610.547 955.314 617.209 976 642.124 962.963 660.772 940.533 669 913.708Z" fill="#D86ECC" fill-rule="evenodd"/><path d="M503.035 908C491.449 908.026 479.948 909.972 469 913.76 477.264 940.608 495.956 963.026 520.894 976 527.536 955.331 539.67 936.85 556 922.528 539.97 913.023 521.675 908.006 503.035 908Z" fill="#C04F15" fill-rule="evenodd"/></g></svg>