<?xml version="1.0" encoding="UTF-8" standalone="no"?>
<!DOCTYPE svg PUBLIC "-//W3C//DTD SVG 1.1//EN" "http://www.w3.org/Graphics/SVG/1.1/DTD/svg11.dtd">
<!-- Created with Vectornator (http://vectornator.io/) -->
<svg height="100%" stroke-miterlimit="10" style="fill-rule:nonzero;clip-rule:evenodd;stroke-linecap:round;stroke-linejoin:round;" version="1.1" viewBox="832.905 282.205 81.6305 71.1334" width="100%" xml:space="preserve" xmlns="http://www.w3.org/2000/svg" xmlns:vectornator="http://vectornator.io" xmlns:xlink="http://www.w3.org/1999/xlink">
<defs/>
<clipPath id="ArtboardFrame">
<rect height="71.1334" width="81.6305" x="832.905" y="282.205"/>
</clipPath>
<g clip-path="url(#ArtboardFrame)" id="Layer" vectornator:layerName="Layer">
<g opacity="1" vectornator:layerName="Group 2">
<g opacity="1" vectornator:layerName="World Map">
<path d="M913.46 284.336C912.789 283.859 911.919 283.736 911.142 284.01L888.189 292.043C887.91 292.14 887.605 292.138 887.331 292.038L860.921 282.433C860.15 282.155 859.298 282.13 858.514 282.364L834.724 289.503C833.636 289.829 832.905 290.811 832.905 291.946L832.905 347.955C832.905 348.77 833.28 349.516 833.933 350C834.587 350.486 835.41 350.631 836.189 350.398L859.247 343.481C859.509 343.402 859.793 343.411 860.049 343.504L886.459 353.109C886.88 353.262 887.323 353.338 887.766 353.338C888.194 353.338 888.623 353.267 889.031 353.124L912.826 344.795C913.849 344.438 914.535 343.47 914.535 342.387L914.535 286.418C914.535 285.593 914.133 284.815 913.46 284.336ZM888.189 350.715C887.91 350.812 887.605 350.81 887.331 350.71L860.921 341.105C860.501 340.954 860.056 340.877 859.612 340.877C859.241 340.877 858.871 340.931 858.515 341.036L835.456 347.955L835.456 291.946L859.246 284.808C859.507 284.73 859.792 284.738 860.048 284.831L886.458 294.436C887.286 294.735 888.198 294.742 889.031 294.451L911.984 286.418L911.984 342.387L888.189 350.715Z" fill="#000000" fill-rule="nonzero" opacity="1" stroke="none" vectornator:layerName="path"/>
<path d="M908.367 292.688C907.7 292.21 906.838 292.082 906.06 292.346L887.764 298.573L860.517 288.665C860.003 288.479 859.455 288.463 858.931 288.614L839.842 294.182C838.762 294.497 838.007 295.503 838.007 296.631L838.007 339.891C838.007 340.701 838.378 341.445 839.027 341.932C839.676 342.419 840.492 342.568 841.273 342.34L860.048 336.864C860.724 336.667 861.112 335.959 860.915 335.283C860.72 334.607 860.016 334.215 859.334 334.415L840.558 339.89L840.558 296.631L859.646 291.063L886.894 300.972C887.438 301.168 888.037 301.175 888.586 300.989L906.882 294.762L906.882 337.984L887.339 344.635C886.674 344.862 886.315 345.586 886.544 346.253C886.723 346.784 887.22 347.118 887.75 347.118C887.885 347.118 888.026 347.095 888.161 347.049L907.702 340.399C908.738 340.049 909.433 339.077 909.433 337.984L909.433 294.762C909.433 293.942 909.035 293.166 908.367 292.688Z" fill="#000000" fill-rule="nonzero" opacity="1" stroke="none" vectornator:layerName="path"/>
<path d="M864.792 333.725C864.086 333.725 863.516 334.297 863.516 335.001L863.516 337.552C863.516 338.256 864.086 338.827 864.792 338.827C865.497 338.827 866.067 338.256 866.067 337.552L866.067 335.001C866.067 334.297 865.497 333.725 864.792 333.725ZM871.169 336.276C870.464 336.276 869.894 336.848 869.894 337.552L869.894 340.103C869.894 340.807 870.464 341.378 871.169 341.378C871.874 341.378 872.444 340.807 872.444 340.103L872.444 337.552C872.444 336.848 871.874 336.276 871.169 336.276ZM877.546 338.508C876.841 338.508 876.271 339.08 876.271 339.784L876.271 342.335C876.271 343.039 876.841 343.61 877.546 343.61C878.252 343.61 878.822 343.039 878.822 342.335L878.822 339.784C878.822 339.08 878.252 338.508 877.546 338.508ZM883.924 340.74C883.218 340.74 882.648 341.312 882.648 342.016L882.648 344.567C882.648 345.271 883.218 345.842 883.924 345.842C884.629 345.842 885.199 345.271 885.199 344.567L885.199 342.016C885.199 341.312 884.629 340.74 883.924 340.74ZM887.842 322.27L889.077 322.27C889.519 322.27 889.992 322.002 890.225 321.625C890.648 320.937 890.39 319.857 890.174 319.219C890.205 319.159 890.235 319.099 890.259 319.037C890.401 318.897 890.653 318.684 890.788 318.569C890.972 318.413 891.128 318.278 891.212 318.194C891.306 318.1 891.527 317.879 892.26 316.681C892.431 316.403 892.543 316.1 892.596 315.779C892.638 315.517 892.674 315.297 892.7 315.112C893.177 315.117 893.615 314.907 893.86 314.512L894.989 312.707C895.128 312.485 895.231 312.241 895.3 311.977L895.453 311.273L895.823 311.3C895.945 311.607 896.182 311.856 896.486 311.991C896.895 312.175 897.939 312.549 898.756 312.018C899.108 311.79 899.347 311.442 899.441 311.032C899.477 311.017 899.52 311 899.574 310.982C900.289 310.744 900.851 310.186 901.115 309.457L901.381 308.725C901.634 308.032 901.57 307.266 901.209 306.624C900.848 305.981 900.226 305.53 899.502 305.386L897.348 304.954C897.185 304.921 897.018 304.905 896.852 304.905L892.652 304.909L890.152 303.369C889.617 303.042 888.99 302.925 888.378 303.036L886.274 303.417C886.078 303.454 885.885 303.514 885.706 303.595L883.685 304.493L883.685 304.204C883.685 303.812 883.504 303.44 883.194 303.199C882.884 302.957 882.48 302.872 882.101 302.967L880.125 303.461C879.817 303.539 879.549 303.727 879.373 303.991C879.179 304.284 878.888 304.684 878.794 304.784C878.398 305.178 878.301 305.713 878.211 306.387L877.137 306.387L875.011 305.855C874.161 305.644 873.237 305.896 872.613 306.519L871.385 307.748C871.221 307.911 871.105 308.115 871.049 308.34L870.987 308.586L869.906 308.856L869.322 308.856C868.896 308.856 868.498 309.069 868.261 309.424L867.766 310.165C867.686 310.286 867.626 310.421 867.589 310.564C867.309 311.684 867.423 312.507 867.927 313.01L868.385 313.47C867.867 313.995 867.59 314.74 867.675 315.519L867.748 316.074L867.163 316.658C866.565 317.258 866.307 318.11 866.474 318.939L866.687 320.003C866.872 320.934 867.554 321.676 868.469 321.939L869.298 322.176C869.524 322.24 869.756 322.273 869.989 322.273L870.658 322.273L870.76 322.409L870.76 323.981C870.76 324.283 870.813 324.58 870.92 324.867L871.469 326.326C871.617 326.724 871.867 327.081 872.191 327.361L873.675 328.634C873.906 328.831 874.201 328.941 874.504 328.941L875.739 328.941C876.03 328.941 876.309 328.843 876.536 328.662C876.924 328.352 877.854 327.601 878.12 327.334C878.365 327.089 878.818 326.638 878.495 324.598L878.495 323.675L878.895 322.476L879.289 321.689L880.064 320.717L881.384 319.837C881.391 319.833 881.398 319.828 881.405 319.823C881.424 319.856 881.443 319.889 881.465 319.922L882.559 321.673C882.752 321.982 883.067 322.194 883.426 322.255C883.787 322.315 884.153 322.222 884.438 321.994L885.672 321.006C885.772 320.927 885.859 320.832 885.931 320.726C886.009 320.612 886.088 320.497 886.17 320.384L886.674 321.517C886.882 321.973 887.338 322.27 887.842 322.27ZM883.957 319.094L883.634 318.579L883.425 317.112C883.374 316.755 883.174 316.435 882.873 316.233C882.576 316.032 882.203 315.968 881.851 316.055L880.864 316.302C880.466 316.402 880.142 316.686 879.989 317.066L879.643 317.932L878.652 318.593C878.433 318.74 878.242 318.916 878.083 319.116L877.216 320.199C877.159 320.269 877.11 320.346 877.071 320.426L876.577 321.413C876.55 321.467 876.527 321.522 876.508 321.579L876.013 323.061C875.97 323.191 875.947 323.328 875.947 323.464L875.947 324.699C875.947 324.769 875.953 324.839 875.965 324.909C876.007 325.164 876.045 325.514 876.055 325.757C875.856 325.926 875.574 326.157 875.291 326.386L874.978 326.386L873.86 325.431L873.312 323.978L873.312 321.982C873.312 321.707 873.223 321.439 873.058 321.217L872.318 320.23C872.077 319.908 871.7 319.719 871.297 319.719L869.996 319.721L869.187 319.504L868.966 318.462L869.552 317.876C870.096 317.33 870.36 316.578 870.274 315.814L870.192 315.265L870.905 315.061C871.34 314.938 871.675 314.592 871.789 314.156C871.902 313.718 871.776 313.253 871.456 312.934L870.007 311.485C870.01 311.459 870.013 311.434 870.019 311.407L870.061 311.407C870.165 311.407 870.269 311.394 870.371 311.369L872.345 310.875C872.8 310.76 873.157 310.405 873.272 309.948L873.436 309.297L874.39 308.331L876.516 308.862C876.715 308.912 876.921 308.938 877.128 308.938L879.196 308.938C880.44 308.938 880.61 307.655 880.712 306.888C880.738 306.706 880.755 306.519 880.786 306.373C880.901 306.236 881.021 306.079 881.13 305.926L881.13 306.972C881.13 307.676 881.701 308.248 882.406 308.248C882.957 308.248 883.425 307.9 883.604 307.412C883.826 307.255 884.262 307.021 884.652 306.852L886.731 305.928L888.811 305.542L891.311 307.081C891.709 307.326 892.168 307.456 892.637 307.456L896.846 307.456L898.983 307.852L898.764 308.563C898.143 308.771 897.727 309.049 897.451 309.342C897.08 309.036 896.622 308.837 896.124 308.782L895.732 308.739C894.477 308.598 893.309 309.415 893.001 310.637L892.824 311.354L892.05 312.592C891.267 312.672 890.267 312.967 890.268 314.049C890.253 314.279 890.135 315.005 890.082 315.353C889.69 315.991 889.449 316.339 889.406 316.393C889.348 316.448 889.249 316.531 889.135 316.626C888.658 317.031 888.245 317.381 888.008 317.783C887.878 317.268 887.499 316.872 886.995 316.749C886.198 316.546 885.495 316.861 883.957 319.094Z" fill="#000000" fill-rule="nonzero" opacity="1" stroke="none" vectornator:layerName="path"/>
<path d="M882.794 324.161C882.56 323.784 882.151 323.556 881.708 323.556L880.182 323.556C879.826 323.556 879.465 323.715 879.222 323.978C878.872 324.36 878.698 324.677 878.911 327.228C878.952 327.723 879.276 328.149 879.743 328.32C879.886 328.372 880.035 328.398 880.182 328.398C880.514 328.398 880.841 328.268 881.083 328.024L881.736 327.371C881.905 327.204 882.044 327.01 882.157 326.788L882.85 325.402C883.048 325.006 883.027 324.536 882.794 324.161ZM889.116 329.542L889.684 331.671C889.907 332.505 890.522 333.183 891.33 333.487L892.024 333.747C892.329 333.862 892.645 333.917 892.961 333.917C893.659 333.917 894.347 333.644 894.858 333.134L895.142 332.852C895.18 332.813 895.241 332.803 895.291 332.83L896.265 333.362C897.501 334.037 899.055 333.635 899.807 332.45L900.573 331.248C901.12 330.39 901.127 329.274 900.594 328.408L899.249 326.224C898.766 325.437 897.893 324.948 896.967 324.948L894.222 324.948C893.782 324.948 893.362 325.051 892.978 325.254C892.443 325.536 891.426 326.057 890.639 326.396C889.433 326.916 888.778 328.268 889.116 329.542ZM891.649 328.738C892.515 328.366 893.597 327.808 894.223 327.497L897.076 327.558L898.423 329.745C898.449 329.785 898.449 329.839 898.422 329.879L897.657 331.08C897.622 331.135 897.55 331.157 897.488 331.123L896.513 330.592C895.478 330.026 894.171 330.217 893.338 331.049L893.057 331.33C893.022 331.366 892.966 331.376 892.922 331.361L892.149 331.014L891.583 328.886C891.565 328.824 891.593 328.761 891.649 328.738ZM901.491 334.521C901.733 334.521 901.993 334.477 902.261 334.389C902.404 334.34 902.538 334.269 902.655 334.174L903.404 333.575C903.487 333.507 903.562 333.431 903.627 333.344L904.078 332.745C904.243 332.524 904.333 332.255 904.333 331.979L904.333 330.631C904.333 330.081 903.982 329.595 903.46 329.421C902.939 329.248 902.367 329.427 902.037 329.866L901.64 330.394L900.357 331.677C900.217 331.817 900.112 331.988 900.048 332.177C899.796 332.937 899.909 333.631 900.354 334.079C900.647 334.371 901.042 334.521 901.491 334.521ZM893.409 318.892C893.633 319.335 894.08 319.596 894.552 319.596C894.709 319.596 894.87 319.566 895.026 319.504L895.941 319.136C896.36 318.971 896.726 318.695 897 318.341L898.068 316.967C898.631 316.242 898.758 315.267 898.395 314.422L897.945 313.371C897.761 312.941 897.356 312.647 896.89 312.603C896.413 312.565 895.972 312.777 895.712 313.166L894.691 314.699C894.561 314.915 894.375 315.198 894.236 315.385C893.686 315.495 892.892 315.774 892.601 316.477C892.387 316.992 892.508 317.584 892.875 317.949C892.963 318.063 893.218 318.51 893.409 318.892ZM891.56 320.713C891.362 321.19 891.472 321.738 891.837 322.103C893.096 323.362 893.55 323.464 893.975 323.464L896.444 323.464C896.986 323.464 897.468 323.122 897.647 322.611C897.825 322.099 897.663 321.531 897.241 321.193L896.349 320.478C895.903 320.121 895.343 319.925 894.772 319.925L892.74 319.925C892.223 319.926 891.758 320.236 891.56 320.713ZM871.739 305.493C871.927 305.493 872.117 305.454 872.29 305.379C872.636 305.352 873.555 305.392 874.382 305.475C874.975 305.532 875.483 305.206 875.693 304.679L876.187 303.444C876.33 303.086 876.303 302.682 876.113 302.345C875.923 302.008 875.592 301.776 875.211 301.712L872.248 301.219C871.604 301.11 870.962 301.522 870.802 302.168C870.408 303.744 870.147 304.785 871.119 305.335C871.308 305.442 871.524 305.493 871.739 305.493ZM867.327 302.722C867.414 301.948 867.149 301.187 866.598 300.636L865.637 299.675C865.414 299.451 865.154 299.272 864.868 299.146L863.378 298.484C862.67 298.169 861.869 298.191 861.183 298.544C859.917 299.197 859.135 299.62 858.663 299.986C857.887 300.018 855.958 299.966 854.34 299.886C853.83 299.861 853.361 300.137 853.136 300.588C853.03 300.8 852.847 301.191 852.704 301.62C852.704 301.62 852.703 301.62 852.701 301.62C852.525 301.62 852.343 301.618 852.2 301.615C851.097 301.595 850.154 301.58 849.781 302.527C849.654 302.845 849.634 303.278 849.847 303.666L849.843 303.665C849.492 303.49 849.099 303.398 848.708 303.398L845.731 303.398C845.101 303.398 844.495 303.63 844.028 304.051L842.674 305.271C841.754 306.099 841.561 307.462 842.234 308.539C842.593 309.115 843.158 309.517 843.819 309.67C844.483 309.825 845.166 309.709 845.74 309.35L846.023 309.17L846.969 309.711L847.48 310.22L847.48 312.577C847.48 313.633 848.144 314.591 849.131 314.959L850.008 315.287L851.093 316.552C851.366 316.871 851.715 317.12 852.104 317.269L854.792 318.314L853.704 320.126C853.358 320.703 853.254 321.406 853.417 322.053L853.69 323.145C853.821 323.673 854.111 324.136 854.53 324.487L855.453 325.255L856.238 327.414L855.768 331.89C855.726 332.287 855.871 332.679 856.162 332.952C856.402 333.177 856.714 333.299 857.037 333.299C857.107 333.299 857.176 333.294 857.246 333.282C857.996 333.157 859.139 332.966 859.607 332.259C859.685 332.216 859.77 332.177 859.849 332.139C860.496 331.833 860.97 331.294 861.186 330.627C861.636 329.245 861.769 328.742 861.808 328.491C861.936 328.204 862.334 327.548 862.456 327.404L863.707 326.152C863.938 325.922 864.2 325.662 864.772 323.158C864.815 322.972 864.836 322.788 864.836 322.597L864.836 320.756C864.836 320.087 864.565 319.43 864.089 318.955L863.83 318.696C863.349 318.216 862.71 317.952 862.03 317.952L860.965 317.953L860.032 317.273C860.26 316.995 860.363 316.626 860.302 316.258C860.218 315.741 859.825 315.329 859.313 315.219L858.727 315.093L859.214 313.958C859.335 313.675 859.349 313.36 859.259 313.072L860.613 312.456C860.892 312.329 861.145 312.155 861.363 311.936L861.994 311.305C862.713 310.587 862.924 309.518 862.576 308.602C862.682 308.602 862.789 308.596 862.898 308.582L863.97 308.448C864.608 308.369 865.088 307.826 865.088 307.183L865.088 305.908C865.178 305.736 865.376 305.397 865.728 304.854L866.145 304.593C866.808 304.18 867.239 303.499 867.327 302.722ZM859.468 320.017C859.905 320.335 860.423 320.503 860.965 320.503L862.03 320.503L862.288 320.758L862.289 322.59C862.079 323.509 861.884 324.201 861.78 324.477L860.655 325.602C860.497 325.759 859.404 327.204 859.287 328.113C859.26 328.242 859.122 328.734 858.759 329.836C858.692 329.868 858.62 329.903 858.542 329.942L858.78 327.682C858.819 327.3 858.771 326.908 858.64 326.547L857.854 324.383C857.7 323.962 857.437 323.588 857.092 323.298L856.169 322.532L855.895 321.441L857.095 319.44L857.653 318.698L859.468 320.017ZM864.375 302.694C864.059 302.892 863.797 303.151 863.594 303.463C862.611 304.979 862.539 305.312 862.539 305.679L862.539 305.942L862.111 304.976C861.926 304.563 861.634 304.204 861.264 303.939C860.762 303.579 860.072 303.63 859.631 304.063L858.91 304.766C858.831 304.842 858.764 304.928 858.708 305.022L857.954 306.277C857.912 306.347 857.876 306.421 857.848 306.499C857.464 307.559 857.162 308.396 857.896 309.035C858.294 309.382 858.885 309.445 859.352 309.199C859.538 309.101 859.697 309.031 859.82 308.984C859.912 309.098 860.035 309.266 860.195 309.503L859.562 310.133L857.012 311.292C856.697 311.435 856.454 311.7 856.339 312.028C856.223 312.355 856.246 312.714 856.4 313.024L856.639 313.499L856.58 313.633L856.189 313.501C855.974 313.43 855.746 313.417 855.523 313.463L853.051 313.982C852.838 314.027 852.647 314.124 852.49 314.258L851.948 313.626C851.667 313.3 851.307 313.049 850.911 312.901L850.036 312.577L850.036 310.22C850.036 309.539 849.77 308.898 849.291 308.42L848.779 307.908C848.622 307.752 848.443 307.615 848.242 307.499L847.293 306.957C846.9 306.732 846.466 306.62 846.031 306.62C845.563 306.62 845.094 306.75 844.681 307.007L844.385 307.169L845.736 305.951L848.71 305.951L850.275 306.732C851.416 307.297 852.825 305.798 853.233 305.324C853.506 305.008 853.625 304.546 853.547 304.134C853.987 304.077 854.347 303.946 854.636 303.661C854.907 303.396 855.055 303.044 855.053 302.703C855.058 302.655 855.08 302.576 855.112 302.48C859.57 302.68 859.775 302.48 860.171 302.105C860.218 302.059 860.262 302.009 860.303 301.956C860.53 301.801 861.136 301.443 862.345 300.818L863.834 301.479L864.797 302.434L864.375 302.694Z" fill="#000000" fill-rule="nonzero" opacity="1" stroke="none" vectornator:layerName="path"/>
</g>
</g>
</g>
</svg>
