<svg width="417" height="417" xmlns="http://www.w3.org/2000/svg" xmlns:xlink="http://www.w3.org/1999/xlink" xml:space="preserve" overflow="hidden"><g transform="translate(-1930 -1447)"><path d="M1996.27 1746.79C1977.88 1718.21 2027.98 1653.21 2108.17 1601.61 2188.36 1550 2268.28 1531.34 2286.67 1559.91 2305.06 1588.49 2254.96 1653.49 2174.77 1705.1 2094.58 1756.7 2014.66 1775.37 1996.27 1746.79Z" fill="#92D050" fill-rule="evenodd"/><path d="M2299.18 1564.25C2291.37 1550.95 2273.93 1544.52 2250.06 1544.52 2234.91 1544.52 2217.47 1547.28 2198.19 1552.32 2184.88 1504.15 2162.84 1472.5 2137.6 1472.5 2112.81 1472.5 2090.32 1503.7 2077.47 1551.41 2059.1 1546.82 2042.58 1544.06 2027.89 1544.06 2004.02 1544.06 1986.58 1550.49 1978.77 1563.79 1965.92 1585.81 1982.91 1621.14 2018.25 1656.92 1984.28 1691.78 1968.68 1725.73 1981.07 1747.29 1988.87 1760.6 2006.32 1767.02 2030.19 1767.02 2043.96 1767.02 2060.02 1764.72 2077.47 1760.6 2090.78 1808.31 2112.81 1839.5 2137.6 1839.5 2162.39 1839.5 2184.88 1808.31 2197.73 1760.6 2216.09 1765.18 2232.62 1767.94 2247.31 1767.94 2271.18 1767.94 2288.62 1761.51 2296.42 1748.21 2308.82 1726.65 2293.21 1692.7 2259.24 1657.84 2295.5 1621.59 2312.03 1586.27 2299.18 1564.25ZM2250.06 1562.87C2267.04 1562.87 2279.44 1567 2283.11 1573.43 2290 1585.35 2277.6 1613.34 2246.39 1644.53 2235.37 1634.44 2222.98 1624.35 2209.21 1614.71 2207.83 1599.11 2205.53 1583.98 2202.32 1569.76 2219.76 1565.17 2236.29 1562.87 2250.06 1562.87ZM2167.89 1703.71C2158.25 1709.22 2148.61 1714.26 2138.98 1718.85 2129.34 1714.26 2119.7 1709.22 2110.06 1703.71 2100.88 1698.21 2091.7 1692.7 2083.43 1687.19 2082.52 1677.1 2082.52 1667.01 2082.52 1656 2082.52 1645.91 2082.97 1636.27 2083.43 1626.64 2092.61 1620.22 2102.25 1614.25 2112.81 1608.29 2121.53 1603.24 2130.25 1598.66 2138.98 1594.53 2147.7 1598.66 2156.42 1603.24 2165.14 1608.29 2174.32 1613.8 2183.5 1619.3 2191.76 1624.81 2192.68 1634.9 2192.68 1644.99 2192.68 1656 2192.68 1667.47 2192.22 1678.48 2191.3 1689.03 2183.96 1694.08 2176.16 1698.66 2167.89 1703.71ZM2189.01 1712.43C2187.63 1721.14 2186.26 1729.86 2184.88 1737.66 2177.07 1734.91 2168.81 1732.15 2160.55 1728.48 2166.06 1725.73 2171.57 1722.52 2177.07 1719.31 2181.21 1717.01 2185.34 1714.72 2189.01 1712.43ZM2117.4 1728.48C2108.22 1732.15 2099.5 1735.36 2090.78 1738.12 2088.94 1729.4 2087.56 1720.23 2086.19 1710.59 2091.24 1713.8 2095.83 1716.56 2101.34 1719.77 2106.38 1722.52 2111.89 1725.73 2117.4 1728.48ZM2064.61 1673.43C2057.27 1667.93 2050.84 1662.42 2044.87 1656.92 2050.84 1651.41 2057.73 1645.91 2064.61 1640.4 2064.61 1645.45 2064.15 1650.49 2064.15 1656 2064.15 1661.96 2064.15 1667.93 2064.61 1673.43ZM2085.73 1603.24C2087.11 1593.15 2088.48 1583.52 2090.32 1574.34 2099.04 1577.1 2108.22 1580.77 2117.4 1584.43 2112.81 1586.73 2107.76 1589.48 2103.17 1592.23 2097.66 1595.9 2091.7 1599.57 2085.73 1603.24ZM2160.09 1584.43C2168.35 1580.77 2176.62 1578.01 2184.88 1575.26 2186.71 1583.52 2188.09 1592.23 2189.47 1601.41 2184.42 1598.2 2179.83 1595.45 2174.32 1592.23 2169.73 1589.94 2165.14 1587.19 2160.09 1584.43ZM2210.58 1638.57C2218.85 1644.99 2226.19 1650.95 2233.08 1657.38 2226.19 1663.34 2218.85 1669.76 2210.58 1675.73 2211.04 1669.3 2211.04 1662.88 2211.04 1656.46 2211.04 1650.04 2211.04 1644.07 2210.58 1638.57ZM2137.6 1490.85C2151.37 1490.85 2169.27 1515.16 2180.75 1557.37 2167.44 1561.96 2153.21 1567.46 2138.98 1573.88 2123.83 1567 2109.14 1561.04 2094.91 1556.45 2106.38 1514.71 2123.83 1490.85 2137.6 1490.85ZM1994.38 1573.43C1998.51 1566.54 2010.45 1562.87 2027.43 1562.87 2040.74 1562.87 2055.89 1565.17 2072.42 1569.3 2069.2 1583.98 2066.91 1600.03 2065.53 1616.55 2052.68 1625.72 2041.2 1634.9 2031.1 1644.53 2000.35 1613.34 1987.5 1585.35 1994.38 1573.43ZM2030.19 1749.13C2013.2 1749.13 2000.81 1745 1997.14 1738.57 1990.25 1726.65 2002.19 1700.04 2031.56 1669.76 2042.12 1678.94 2053.6 1688.11 2065.99 1697.29 2067.37 1713.34 2069.66 1728.94 2072.88 1743.16 2057.73 1747.29 2043.04 1749.13 2030.19 1749.13ZM2137.6 1821.15C2123.83 1821.15 2106.38 1797.3 2094.91 1756.01 2109.14 1751.42 2123.83 1745.92 2138.98 1739.03 2153.21 1745.46 2166.98 1750.96 2180.29 1755.09 2168.81 1797.3 2151.37 1821.15 2137.6 1821.15ZM2280.82 1738.57C2276.68 1745.46 2264.75 1749.13 2247.76 1749.13 2234.45 1749.13 2218.85 1746.83 2202.78 1742.7 2205.53 1728.94 2207.83 1714.72 2209.21 1699.12 2222.98 1689.49 2235.37 1679.86 2246.39 1669.76 2275.77 1700.04 2287.7 1726.65 2280.82 1738.57Z" stroke="#002060" stroke-width="6.875" stroke-miterlimit="8" fill="#002060" fill-rule="evenodd"/><path d="M1944 1655.5C1944 1548.08 2031.08 1461 2138.5 1461 2245.92 1461 2333 1548.08 2333 1655.5 2333 1762.92 2245.92 1850 2138.5 1850 2031.08 1850 1944 1762.92 1944 1655.5Z" stroke="#002060" stroke-width="27.5" stroke-miterlimit="8" fill="none" fill-rule="evenodd"/></g></svg>