<svg width="395" height="395" xmlns="http://www.w3.org/2000/svg" xmlns:xlink="http://www.w3.org/1999/xlink" xml:space="preserve" overflow="hidden"><defs><clipPath id="clip0"><rect x="1691" y="1402" width="395" height="395"/></clipPath></defs><g clip-path="url(#clip0)" transform="translate(-1691 -1402)"><path d="M1859.5 1435.5C1825.77 1476.99 1788.41 1529.37 1784.77 1588.5L1722.5 1588.5C1727.17 1511.22 1784.77 1448.47 1859.5 1435.5Z" stroke="#92D050" stroke-width="6.875" stroke-miterlimit="8" fill="#92D050" fill-rule="evenodd"/><path d="M1992.77 1609.5 2055.5 1609.5C2050.8 1686.78 1992.77 1749.53 1917.5 1762.5 1951.48 1721.01 1989.11 1668.63 1992.77 1609.5Z" stroke="#92D050" stroke-width="6.875" stroke-miterlimit="8" fill="#92D050" fill-rule="evenodd"/><path d="M1917.09 1763.22C1950.87 1721.64 1988.29 1669.14 1991.93 1609.89L2054.3 1609.89C2049.62 1687.34 1991.93 1750.22 1917.09 1763.22ZM1722.7 1609.89 1785.07 1609.89C1789.23 1669.14 1826.13 1721.64 1859.91 1763.22 1785.07 1750.22 1727.38 1687.34 1722.7 1609.89ZM1859.91 1435.78C1826.13 1477.36 1788.71 1529.86 1785.07 1589.11L1722.7 1589.11C1727.38 1511.66 1785.07 1448.78 1859.91 1435.78ZM1898.89 1609.89 1971.14 1609.89C1966.98 1663.43 1932.16 1711.76 1898.89 1752.82L1898.89 1609.89ZM1878.11 1609.89 1878.11 1752.82C1844.84 1711.76 1810.02 1663.43 1805.86 1609.89L1878.11 1609.89ZM1898.89 1446.18C1932.16 1487.24 1966.98 1535.05 1971.14 1589.11L1898.89 1589.11 1898.89 1446.18ZM1878.11 1589.11 1805.86 1589.11C1810.02 1535.57 1844.84 1487.24 1878.11 1446.18L1878.11 1589.11ZM2054.3 1589.11 1991.93 1589.11C1988.29 1529.86 1950.87 1477.36 1917.09 1435.78 1991.93 1448.78 2049.62 1511.66 2054.3 1589.11ZM1888.5 1402C1779.36 1402 1691 1490.36 1691 1599.5 1691 1708.64 1779.36 1797 1888.5 1797 1997.64 1797 2086 1708.64 2086 1599.5 2086 1490.36 1997.64 1402 1888.5 1402Z" fill="#002060" fill-rule="evenodd"/></g></svg>