<svg width="394" height="395" xmlns="http://www.w3.org/2000/svg" xmlns:xlink="http://www.w3.org/1999/xlink" xml:space="preserve" overflow="hidden"><defs><clipPath id="clip0"><rect x="1121" y="1402" width="394" height="395"/></clipPath></defs><g clip-path="url(#clip0)" transform="translate(-1121 -1402)"><path d="M1319 1434C1226.22 1434 1151 1509.22 1151 1602 1151 1694.78 1226.22 1770 1319 1770 1411.78 1770 1487 1694.78 1487 1602 1486.9 1509.26 1411.74 1434.1 1319 1434ZM1447.26 1527.82C1452.71 1537.19 1457.11 1547.13 1460.39 1557.47L1408.58 1557.47C1400.39 1557.47 1393.76 1550.83 1393.76 1542.64 1393.76 1534.45 1400.39 1527.82 1408.58 1527.82ZM1293.05 1498.24C1301.24 1498.24 1307.87 1504.87 1307.87 1513.06 1307.87 1521.25 1301.24 1527.88 1293.05 1527.88L1257.21 1527.88C1249.02 1527.88 1242.38 1534.52 1242.38 1542.71 1242.38 1550.89 1249.02 1557.53 1257.21 1557.53L1346.15 1557.53C1354.33 1557.53 1360.97 1564.17 1360.97 1572.35 1360.97 1580.54 1354.33 1587.18 1346.15 1587.18L1171.51 1587.18C1174.88 1553.63 1189.62 1522.25 1213.28 1498.24ZM1235.64 1646.47C1243.82 1646.47 1250.46 1653.11 1250.46 1661.29 1250.46 1669.48 1243.82 1676.12 1235.64 1676.12L1190.7 1676.12C1185.25 1666.75 1180.86 1656.8 1177.59 1646.47ZM1311.56 1705.76C1303.37 1705.76 1296.74 1699.13 1296.74 1690.94 1296.74 1682.75 1303.37 1676.12 1311.56 1676.12L1400.5 1676.12C1408.69 1676.12 1415.32 1669.48 1415.32 1661.29 1415.32 1653.11 1408.69 1646.47 1400.5 1646.47L1389.38 1646.47C1381.19 1646.47 1374.56 1639.83 1374.56 1631.65 1374.56 1623.46 1381.19 1616.82 1389.38 1616.82L1466.46 1616.82C1463.09 1650.36 1448.36 1681.75 1424.71 1705.76Z" fill="#92D050" fill-rule="evenodd"/><path d="M1346.51 1763.22C1380.21 1721.64 1417.54 1669.14 1421.17 1609.89L1483.38 1609.89C1478.71 1687.34 1421.17 1750.22 1346.51 1763.22ZM1152.62 1609.89 1214.83 1609.89C1218.98 1669.14 1255.79 1721.64 1289.49 1763.22 1214.83 1750.22 1157.29 1687.34 1152.62 1609.89ZM1289.49 1435.78C1255.79 1477.36 1218.46 1529.86 1214.83 1589.11L1152.62 1589.11C1157.29 1511.66 1214.83 1448.78 1289.49 1435.78ZM1328.37 1609.89 1400.43 1609.89C1396.28 1663.43 1361.55 1711.76 1328.37 1752.82L1328.37 1609.89ZM1307.63 1609.89 1307.63 1752.82C1274.45 1711.76 1239.72 1663.43 1235.57 1609.89L1307.63 1609.89ZM1328.37 1446.18C1361.55 1487.24 1396.28 1535.05 1400.43 1589.11L1328.37 1589.11 1328.37 1446.18ZM1307.63 1589.11 1235.57 1589.11C1239.72 1535.57 1274.45 1487.24 1307.63 1446.18L1307.63 1589.11ZM1483.38 1589.11 1421.17 1589.11C1417.54 1529.86 1380.21 1477.36 1346.51 1435.78 1421.17 1448.78 1478.71 1511.66 1483.38 1589.11ZM1318 1402C1209.13 1402 1121 1490.36 1121 1599.5 1121 1708.64 1209.13 1797 1318 1797 1426.87 1797 1515 1708.64 1515 1599.5 1515 1490.36 1426.87 1402 1318 1402Z" fill="#002060" fill-rule="evenodd"/></g></svg>