<svg width="416" height="416" xmlns="http://www.w3.org/2000/svg" xmlns:xlink="http://www.w3.org/1999/xlink" xml:space="preserve" overflow="hidden"><g transform="translate(-474 -1381)"><path d="M208.026 60.6667C126.656 60.6667 60.6927 126.63 60.6927 208 60.6927 289.37 126.656 355.333 208.026 355.333 289.396 355.333 355.359 289.37 355.359 208 355.269 126.668 289.358 60.7572 208.026 60.6667ZM320.506 142.944C325.288 151.161 329.149 159.88 332.02 168.944L286.585 168.944C279.405 168.944 273.585 163.124 273.585 155.944 273.585 148.764 279.405 142.944 286.585 142.944ZM185.267 117C192.447 117 198.267 122.82 198.267 130 198.267 137.18 192.447 143 185.267 143L153.833 143C146.653 143 140.833 148.82 140.833 156 140.833 163.18 146.653 169 153.833 169L231.833 169C239.013 169 244.833 174.82 244.833 182 244.833 189.18 239.013 195 231.833 195L78.676 195C81.6348 165.583 94.5607 138.061 115.31 117ZM134.918 247C142.098 247 147.918 252.82 147.918 260 147.918 267.18 142.098 273 134.918 273L95.511 273C90.7335 264.782 86.8768 256.063 84.0103 247ZM201.5 299C194.32 299 188.5 293.18 188.5 286 188.5 278.82 194.32 273 201.5 273L279.5 273C286.68 273 292.5 267.18 292.5 260 292.5 252.82 286.68 247 279.5 247L269.75 247C262.57 247 256.75 241.18 256.75 234 256.75 226.82 262.57 221 269.75 221L337.35 221C334.395 250.414 321.475 277.935 300.733 299Z" fill="#92D050" transform="matrix(1 0 0 1 474 1381)"/><path d="M681.16 1398C762.412 1398 832.126 1447.49 861.905 1518.01L871.414 1548.7 797.629 1548.7 796.674 1545.62C777.642 1500.54 733.088 1468.92 681.16 1468.92 611.923 1468.92 555.795 1525.14 555.795 1594.5 555.795 1663.86 611.923 1720.08 681.16 1720.08 720.106 1720.08 754.905 1702.29 777.898 1674.38L793.232 1649.07 707.873 1649.07 707.873 1581.37 874 1581.37 874 1627.5 873.335 1634.1 868.899 1649.07 868.898 1649.07 863.714 1666.55C835.026 1739.43 764.105 1791 681.16 1791 572.824 1791 485 1703.02 485 1594.5 485 1485.98 572.824 1398 681.16 1398Z" fill="#002060" fill-rule="evenodd"/></g></svg>