<svg width="353" height="356" xmlns="http://www.w3.org/2000/svg" xmlns:xlink="http://www.w3.org/1999/xlink" xml:space="preserve" overflow="hidden"><defs><clipPath id="clip0"><rect x="3172" y="1483" width="353" height="356"/></clipPath></defs><g clip-path="url(#clip0)" transform="translate(-3172 -1483)"><path d="M3350.01 1483C3423.74 1483 3487 1527.83 3514.02 1591.71L3522.65 1619.51 3455.7 1619.51 3454.83 1616.72C3437.56 1575.89 3397.13 1547.24 3350.01 1547.24 3287.18 1547.24 3236.24 1598.17 3236.24 1661 3236.24 1723.83 3287.18 1774.76 3350.01 1774.76 3385.35 1774.76 3416.93 1758.64 3437.79 1733.36L3451.71 1710.43 3374.25 1710.43 3374.25 1649.1 3525 1649.1 3525 1690.89 3524.4 1696.87 3520.37 1710.43 3520.37 1710.43 3515.67 1726.27C3489.63 1792.29 3425.28 1839 3350.01 1839 3251.7 1839 3172 1759.31 3172 1661 3172 1562.69 3251.7 1483 3350.01 1483Z" fill="#002060" fill-rule="evenodd"/><path d="M3357.6 1579.03C3374.29 1597.37 3397.29 1608.66 3421.96 1610.64 3426.54 1611.07 3430.03 1614.95 3430 1619.57L3430 1642.09C3430 1691.06 3398.96 1735.85 3355.86 1763.57 3352.9 1765.48 3349.1 1765.48 3346.14 1763.57 3303.04 1735.85 3272 1691.06 3272 1642.09L3272 1619.57C3271.97 1614.95 3275.46 1611.07 3280.04 1610.64 3304.71 1608.66 3327.71 1597.37 3344.4 1579.03 3347.54 1575.38 3353.05 1574.97 3356.7 1578.12 3357.02 1578.41 3357.32 1578.71 3357.6 1579.03Z" fill="#C00000" fill-rule="evenodd"/></g></svg>