<svg width="391" height="391" xmlns="http://www.w3.org/2000/svg" xmlns:xlink="http://www.w3.org/1999/xlink" xml:space="preserve" overflow="hidden"><g transform="translate(-388 -1804)"><path d="M391.5 1863.89C391.5 1832.75 416.747 1807.5 447.891 1807.5L719.109 1807.5C750.253 1807.5 775.5 1832.75 775.5 1863.89L775.5 2135.11C775.5 2166.25 750.253 2191.5 719.109 2191.5L447.891 2191.5C416.747 2191.5 391.5 2166.25 391.5 2135.11Z" stroke="#D9D9D9" stroke-width="6.875" stroke-miterlimit="8" fill="none" fill-rule="evenodd"/><path d="M596.036 1818.95C628.987 1854.94 674.407 1877.12 723.119 1881 732.169 1881.84 739.066 1889.45 739 1898.52L739 1942.74C739 2038.85 677.704 2126.78 592.596 2181.19 586.749 2184.94 579.252 2184.94 573.404 2181.19 488.296 2126.78 427.001 2038.85 427.001 1942.74L427.001 1898.52C426.934 1889.45 433.831 1881.84 442.881 1881 491.593 1877.12 537.013 1854.94 569.964 1818.95 576.176 1811.77 587.048 1810.98 594.248 1817.17 594.886 1817.72 595.484 1818.32 596.036 1818.95Z" fill="#C00000" fill-rule="evenodd"/><path d="M584.922 1885C630.039 1885 668.749 1912.32 685.284 1951.27L690.564 1968.21 649.594 1968.21 649.063 1966.51C638.495 1941.62 613.756 1924.16 584.922 1924.16 546.476 1924.16 515.31 1955.2 515.31 1993.5 515.31 2031.8 546.476 2062.84 584.922 2062.84 606.547 2062.84 625.87 2053.02 638.638 2037.61L647.152 2023.63 599.754 2023.63 599.754 1986.25 692 1986.25 692 2011.72 691.631 2015.37 689.167 2023.63 689.167 2023.63 686.288 2033.28C670.359 2073.52 630.979 2102 584.922 2102 524.766 2102 476 2053.42 476 1993.5 476 1933.58 524.766 1885 584.922 1885Z" fill="#FFFFFF" fill-rule="evenodd"/></g></svg>