<?xml version="1.0" encoding="UTF-8" standalone="no"?>
<!DOCTYPE svg PUBLIC "-//W3C//DTD SVG 1.1//EN" "http://www.w3.org/Graphics/SVG/1.1/DTD/svg11.dtd">
<!-- Created with Vectornator (http://vectornator.io/) -->
<svg height="100%" stroke-miterlimit="10" style="fill-rule:nonzero;clip-rule:evenodd;stroke-linecap:round;stroke-linejoin:round;" version="1.1" viewBox="535.004 282.762 81.4868 81.4868" width="100%" xml:space="preserve" xmlns="http://www.w3.org/2000/svg" xmlns:vectornator="http://vectornator.io" xmlns:xlink="http://www.w3.org/1999/xlink">
<defs/>
<clipPath id="ArtboardFrame">
<rect height="81.4868" width="81.4868" x="535.004" y="282.762"/>
</clipPath>
<g clip-path="url(#ArtboardFrame)" id="Layer" vectornator:layerName="Layer">
<g opacity="1" vectornator:layerName="Group 5">
<g opacity="1" vectornator:layerName="Google Earth 4">
<path d="M575.748 302.073C587.475 302.073 597.181 311.576 597.181 323.506C597.181 335.233 587.677 344.939 575.748 344.939C564.02 344.939 554.315 335.233 554.315 323.506C554.315 311.778 564.02 302.073 575.748 302.073M575.748 299.242C562.403 299.242 551.484 310.161 551.484 323.506C551.484 336.851 562.403 347.769 575.748 347.769C589.093 347.769 600.011 336.851 600.011 323.506C600.011 310.161 589.093 299.242 575.748 299.242L575.748 299.242Z" fill="#000000" fill-rule="nonzero" opacity="1" stroke="none" vectornator:layerName="path"/>
<path d="M553.506 317.844C553.506 317.844 556.539 312.385 561.594 312.385C566.447 312.385 573.119 318.451 580.803 323.303C586.666 327.145 592.53 330.38 597.989 330.38C599 330.38 594.956 336.446 594.956 336.446C594.956 336.446 590.508 338.266 585.655 338.266C569.277 338.266 561.998 330.987 557.954 330.987C554.921 330.987 554.517 333.616 554.517 333.616C554.517 333.616 549.866 324.314 553.506 317.844ZM558.965 307.936C558.965 307.936 560.178 305.712 566.042 305.712C572.917 305.712 578.781 313.194 583.633 317.44C588.486 321.686 594.552 326.741 598.798 326.741C599.607 321.484 598.596 318.046 597.989 317.035C597.383 316.024 597.989 318.855 596.17 318.855C591.115 318.855 587.273 301.87 573.119 301.87C564.627 301.87 560.583 305.308 558.965 307.936ZM566.042 344.534C566.042 344.534 564.222 340.693 567.66 340.693C570.895 340.693 574.332 342.917 581.207 342.917C588.082 342.917 591.721 340.693 591.721 340.693C591.721 340.693 586.666 345.95 578.174 346.961C569.682 347.769 568.266 345.747 566.042 344.534Z" fill="#000000" fill-rule="nonzero" opacity="1" stroke="none" vectornator:layerName="path"/>
</g>
<g opacity="1" vectornator:layerName="Automation 1">
<path d="M613.405 316.241L607.944 314.876C607.447 314.751 607.052 314.395 606.914 313.943C606.308 311.97 605.505 310.039 604.527 308.202C604.316 307.805 604.34 307.297 604.593 306.877L607.511 302.012C608.474 300.406 608.223 298.36 606.899 297.035L602.215 292.352C600.889 291.028 598.845 290.776 597.237 291.739L592.372 294.658C591.951 294.911 591.443 294.935 591.047 294.722C589.212 293.744 587.282 292.941 585.306 292.337C584.855 292.198 584.499 291.803 584.374 291.306L583.009 285.845C582.557 284.032 580.932 282.762 579.059 282.762L572.435 282.762C570.562 282.762 568.937 284.032 568.482 285.848L567.117 291.309C566.992 291.806 566.636 292.201 566.185 292.34C564.21 292.944 562.279 293.747 560.444 294.725C560.048 294.939 559.539 294.915 559.12 294.661L554.254 291.742C552.649 290.779 550.604 291.032 549.278 292.355L544.594 297.037C543.27 298.363 543.018 300.408 543.981 302.015L546.9 306.88C547.153 307.299 547.177 307.807 546.965 308.205C545.987 310.041 545.185 311.971 544.579 313.946C544.44 314.397 544.045 314.754 543.548 314.879L538.088 316.244C536.273 316.695 535.004 318.322 535.004 320.195L535.004 326.818C535.004 328.691 536.274 330.317 538.09 330.77L543.549 332.135C544.047 332.26 544.442 332.616 544.58 333.068C545.186 335.041 545.989 336.973 546.966 338.809C547.178 339.207 547.154 339.715 546.901 340.134L543.983 344.999C543.02 346.606 543.271 348.651 544.595 349.977L549.279 354.659C550.605 355.985 552.65 356.236 554.257 355.272L559.12 352.353C559.539 352.101 560.048 352.075 560.447 352.29C562.282 353.267 564.212 354.07 566.188 354.674C566.639 354.813 566.995 355.208 567.12 355.705L568.484 361.166C568.938 362.979 570.564 364.249 572.437 364.249L579.06 364.249C580.933 364.249 582.559 362.979 583.014 361.163L584.378 355.702C584.503 355.205 584.859 354.81 585.31 354.672C587.285 354.067 589.216 353.265 591.051 352.287C591.447 352.074 591.955 352.098 592.376 352.351L597.241 355.269C598.848 356.233 600.893 355.981 602.217 354.657L606.901 349.974C608.226 348.648 608.477 346.603 607.514 344.996L604.595 340.132C604.343 339.712 604.318 339.204 604.53 338.806C605.508 336.97 606.311 335.04 606.916 333.065C607.055 332.615 607.45 332.257 607.947 332.132L613.407 330.768C615.221 330.317 616.491 328.69 616.491 326.817L616.491 320.193C616.491 318.322 615.223 316.695 613.405 316.241ZM613.775 326.817C613.775 327.441 613.351 327.982 612.745 328.135L607.287 329.5C605.871 329.853 604.734 330.916 604.317 332.271C603.763 334.077 603.027 335.848 602.13 337.531C601.473 338.765 601.525 340.297 602.265 341.529L605.183 346.394C605.504 346.929 605.42 347.611 604.98 348.054L600.296 352.736C599.853 353.175 599.17 353.261 598.637 352.94L593.773 350.021C592.538 349.281 591.005 349.234 589.773 349.888C588.092 350.785 586.322 351.519 584.514 352.074C583.159 352.489 582.097 353.627 581.742 355.044L580.377 360.503C580.225 361.109 579.683 361.533 579.059 361.533L572.435 361.533C571.812 361.533 571.269 361.109 571.118 360.505L569.753 355.044C569.398 353.627 568.338 352.489 566.981 352.074C565.172 351.519 563.404 350.785 561.722 349.888C561.145 349.581 560.504 349.428 559.856 349.428C559.12 349.428 558.379 349.626 557.72 350.021L552.857 352.94C552.322 353.259 551.64 353.176 551.197 352.736L546.514 348.054C546.073 347.612 545.989 346.929 546.309 346.394L549.228 341.529C549.968 340.297 550.02 338.765 549.362 337.531C548.466 335.848 547.73 334.077 547.176 332.271C546.76 330.916 545.622 329.853 544.207 329.5L538.747 328.135C538.144 327.983 537.72 327.441 537.72 326.817L537.72 320.193C537.72 319.568 538.144 319.028 538.749 318.875L544.208 317.51C545.625 317.156 546.761 316.094 547.178 314.739C547.732 312.933 548.469 311.162 549.365 309.479C550.022 308.245 549.971 306.713 549.23 305.481L546.312 300.616C545.991 300.081 546.076 299.399 546.516 298.956L551.2 294.274C551.64 293.834 552.323 293.749 552.858 294.07L557.724 296.989C558.957 297.73 560.492 297.78 561.724 297.122C563.405 296.225 565.175 295.491 566.982 294.936C568.338 294.521 569.4 293.383 569.754 291.966L571.119 286.507C571.27 285.902 571.812 285.478 572.437 285.478L579.06 285.478C579.683 285.478 580.227 285.902 580.377 286.507L581.742 291.968C582.097 293.384 583.157 294.522 584.514 294.938C586.323 295.492 588.092 296.227 589.773 297.123C591.007 297.78 592.539 297.73 593.774 296.99L598.639 294.071C599.175 293.752 599.857 293.836 600.298 294.275L604.981 298.958C605.422 299.399 605.507 300.082 605.186 300.617L602.268 305.482C601.527 306.714 601.476 308.246 602.133 309.48C603.029 311.163 603.766 312.934 604.32 314.74C604.735 316.096 605.873 317.158 607.288 317.511L612.748 318.876C613.351 319.028 613.775 319.57 613.775 320.195L613.775 326.817Z" fill="#000000" fill-rule="nonzero" opacity="1" stroke="none" vectornator:layerName="path"/>
<path d="M589.361 323.506C589.361 322.531 588.859 321.656 588.02 321.163L571.691 311.583C570.841 311.084 569.822 311.078 568.967 311.566C568.11 312.058 567.599 312.94 567.599 313.926L567.599 333.084C567.599 334.072 568.11 334.952 568.965 335.442C569.389 335.684 569.852 335.806 570.315 335.806C570.788 335.806 571.26 335.678 571.69 335.427L588.018 325.848C588.859 325.355 589.361 324.481 589.361 323.506ZM570.315 333.094L570.315 313.927L586.645 323.506L570.315 333.094Z" fill="#000000" fill-rule="nonzero" opacity="0" stroke="none" vectornator:layerName="path"/>
<path d="M575.748 297.702C561.519 297.702 549.943 309.277 549.943 323.506C549.943 324.257 550.552 324.864 551.302 324.864C552.051 324.864 552.66 324.257 552.66 323.506C552.66 310.775 563.017 300.418 575.748 300.418C588.479 300.418 598.836 310.775 598.836 323.506C598.836 336.237 588.479 346.594 575.748 346.594C574.998 346.594 574.39 347.201 574.39 347.952C574.39 348.703 574.998 349.31 575.748 349.31C589.977 349.31 601.552 337.735 601.552 323.506C601.552 309.277 589.977 297.702 575.748 297.702Z" fill="#000000" fill-rule="nonzero" opacity="0" stroke="none" vectornator:layerName="path"/>
<path d="M570.475 343.183C569.749 342.986 569.006 343.418 568.812 344.144L568.108 346.767C567.914 347.491 568.343 348.237 569.068 348.431C569.187 348.462 569.305 348.477 569.422 348.477C570.02 348.477 570.57 348.078 570.732 347.471L571.436 344.847C571.63 344.123 571.199 343.378 570.475 343.183ZM565.562 341.148C564.91 340.771 564.081 340.997 563.707 341.645L562.348 343.997C561.974 344.647 562.196 345.477 562.846 345.852C563.06 345.976 563.294 346.034 563.523 346.034C563.993 346.034 564.449 345.79 564.701 345.355L566.059 343.003C566.434 342.354 566.211 341.524 565.562 341.148ZM559.422 337.91L557.501 339.83C556.97 340.361 556.97 341.22 557.501 341.751C557.766 342.015 558.114 342.148 558.462 342.148C558.809 342.148 559.157 342.015 559.422 341.751L561.342 339.83C561.873 339.299 561.873 338.441 561.342 337.91C560.811 337.379 559.953 337.38 559.422 337.91ZM558.106 333.692C557.73 333.042 556.901 332.817 556.251 333.194L553.898 334.553C553.249 334.927 553.026 335.759 553.401 336.408C553.654 336.842 554.109 337.087 554.579 337.087C554.808 337.087 555.042 337.028 555.256 336.905L557.609 335.547C558.258 335.172 558.481 334.342 558.106 333.692ZM556.07 328.778C555.874 328.053 555.136 327.621 554.406 327.818L551.782 328.523C551.058 328.718 550.628 329.461 550.822 330.186C550.985 330.793 551.534 331.193 552.133 331.193C552.248 331.193 552.368 331.178 552.486 331.146L555.11 330.442C555.834 330.246 556.264 329.502 556.07 328.778Z" fill="#000000" fill-rule="nonzero" opacity="0" stroke="none" vectornator:layerName="path"/>
</g>
</g>
</g>
</svg>
