<svg width="420" height="399" xmlns="http://www.w3.org/2000/svg" xmlns:xlink="http://www.w3.org/1999/xlink" xml:space="preserve" overflow="hidden"><g transform="translate(-1193 -1706)"><rect x="1203.5" y="1770.5" width="164" height="162" stroke="#002060" stroke-width="20.625" stroke-miterlimit="8" fill="#C1E5F5"/><rect x="1367.5" y="1770.5" width="165" height="162" stroke="#002060" stroke-width="20.625" stroke-miterlimit="8" fill="#D9F2D0"/><rect x="1203.5" y="1932.5" width="164" height="162" stroke="#002060" stroke-width="20.625" stroke-miterlimit="8" fill="#4E95D9"/><rect x="1367.5" y="1932.5" width="165" height="162" stroke="#002060" stroke-width="20.625" stroke-miterlimit="8" fill="#96DCF8"/><rect x="1273.5" y="1716.5" width="164" height="162" stroke="#002060" stroke-width="20.625" stroke-miterlimit="8" fill="#C1E5F5"/><rect x="1437.5" y="1716.5" width="165" height="162" stroke="#002060" stroke-width="20.625" stroke-miterlimit="8" fill="#D9F2D0"/><rect x="1273.5" y="1878.5" width="164" height="161" stroke="#002060" stroke-width="20.625" stroke-miterlimit="8" fill="#4E95D9"/><rect x="1437.5" y="1878.5" width="165" height="161" stroke="#002060" stroke-width="20.625" stroke-miterlimit="8" fill="#96DCF8"/><path d="M1440 1743C1483.84 1743 1525.14 1764.54 1549.93 1801.29 1574.71 1837.41 1579.79 1883.66 1563.9 1924.84L1513.02 2037 1366.98 2037 1316.1 1924.84C1300.21 1883.66 1305.29 1837.41 1330.08 1801.29 1354.86 1764.54 1396.16 1743 1440 1743ZM1440 1819.03C1408.23 1819.03 1382.81 1844.38 1382.81 1876.06 1382.81 1907.74 1408.23 1933.08 1440 1933.08 1471.77 1933.08 1497.19 1907.74 1497.19 1876.06 1497.19 1844.38 1471.77 1819.03 1440 1819.03Z" fill="#002060" fill-rule="evenodd"/></g></svg>