<svg width="350" height="344" xmlns="http://www.w3.org/2000/svg" xmlns:xlink="http://www.w3.org/1999/xlink" xml:space="preserve" overflow="hidden"><g transform="translate(-1890 -1269)"><rect x="1900.5" y="1279.5" width="165" height="162" stroke="#002060" stroke-width="20.625" stroke-miterlimit="8" fill="#C1E5F5"/><rect x="2065.5" y="1279.5" width="164" height="162" stroke="#002060" stroke-width="20.625" stroke-miterlimit="8" fill="#D9F2D0"/><rect x="1900.5" y="1441.5" width="165" height="161" stroke="#002060" stroke-width="20.625" stroke-miterlimit="8" fill="#4E95D9"/><rect x="2065.5" y="1441.5" width="164" height="161" stroke="#002060" stroke-width="20.625" stroke-miterlimit="8" fill="#96DCF8"/><path d="M2067.5 1306C2111.18 1306 2152.32 1327.54 2177.01 1364.29 2201.7 1400.41 2206.76 1446.66 2190.94 1487.84L2140.25 1600 1994.75 1600 1944.06 1487.84C1928.24 1446.66 1933.3 1400.41 1957.99 1364.29 1982.68 1327.54 2023.82 1306 2067.5 1306ZM2067.5 1382.03C2035.85 1382.03 2010.53 1407.38 2010.53 1439.06 2010.53 1470.74 2035.85 1496.08 2067.5 1496.08 2099.15 1496.08 2124.47 1470.74 2124.47 1439.06 2124.47 1407.38 2099.15 1382.03 2067.5 1382.03Z" fill="#002060" fill-rule="evenodd"/></g></svg>