<svg width="350" height="345" xmlns="http://www.w3.org/2000/svg" xmlns:xlink="http://www.w3.org/1999/xlink" xml:space="preserve" overflow="hidden"><g transform="translate(-865 -863)"><rect x="875.5" y="873.5" width="110" height="108" stroke="#002060" stroke-width="20.625" stroke-miterlimit="8" fill="#A6CAEC"/><rect x="985.5" y="873.5" width="109" height="108" stroke="#002060" stroke-width="20.625" stroke-miterlimit="8" fill="#4E95D9"/><rect x="1094.5" y="873.5" width="110" height="108" stroke="#002060" stroke-width="20.625" stroke-miterlimit="8" fill="#215F9A"/><rect x="875.5" y="981.5" width="110" height="108" stroke="#002060" stroke-width="20.625" stroke-miterlimit="8" fill="#4E95D9"/><rect x="985.5" y="981.5" width="109" height="108" stroke="#002060" stroke-width="20.625" stroke-miterlimit="8" fill="#92D050"/><rect x="1094.5" y="981.5" width="110" height="108" stroke="#002060" stroke-width="20.625" stroke-miterlimit="8" fill="#92D050"/><rect x="875.5" y="1089.5" width="110" height="108" stroke="#002060" stroke-width="20.625" stroke-miterlimit="8" fill="#FBE3D6"/><rect x="985.5" y="1089.5" width="109" height="108" stroke="#002060" stroke-width="20.625" stroke-miterlimit="8" fill="#8ED973"/><rect x="1094.5" y="1089.5" width="110" height="108" stroke="#002060" stroke-width="20.625" stroke-miterlimit="8" fill="#00B050"/><path d="M1040.5 937.5C1076.43 937.5 1110.28 956.32 1130.59 988.425 1150.9 1019.98 1155.06 1060.38 1142.05 1096.36L1099 1197.5 981.998 1197.5 938.955 1096.36C925.936 1060.38 930.102 1019.98 950.411 988.425 970.72 956.32 1004.57 937.5 1040.5 937.5ZM1040.5 1003.92C1014.46 1003.92 993.633 1026.06 993.633 1053.74 993.633 1081.42 1014.46 1103.56 1040.5 1103.56 1066.54 1103.56 1087.37 1081.42 1087.37 1053.74 1087.37 1026.06 1066.54 1003.92 1040.5 1003.92Z" stroke="#002060" stroke-width="20.625" stroke-miterlimit="8" fill="#FFFFFF" fill-rule="evenodd"/></g></svg>