<svg width="394" height="360" xmlns="http://www.w3.org/2000/svg" xmlns:xlink="http://www.w3.org/1999/xlink" xml:space="preserve" overflow="hidden"><g transform="translate(-1429 -849)"><rect x="1439.5" y="867.5" width="109" height="108" stroke="#002060" stroke-width="20.625" stroke-miterlimit="8" fill="#A6CAEC"/><rect x="1548.5" y="867.5" width="110" height="108" stroke="#002060" stroke-width="20.625" stroke-miterlimit="8" fill="#4E95D9"/><rect x="1658.5" y="867.5" width="110" height="108" stroke="#002060" stroke-width="20.625" stroke-miterlimit="8" fill="#215F9A"/><rect x="1439.5" y="975.5" width="109" height="108" stroke="#002060" stroke-width="20.625" stroke-miterlimit="8" fill="#4E95D9"/><rect x="1548.5" y="975.5" width="110" height="108" stroke="#002060" stroke-width="20.625" stroke-miterlimit="8" fill="#92D050"/><rect x="1658.5" y="975.5" width="110" height="108" stroke="#002060" stroke-width="20.625" stroke-miterlimit="8" fill="#92D050"/><rect x="1439.5" y="1083.5" width="109" height="107" stroke="#002060" stroke-width="20.625" stroke-miterlimit="8" fill="#FBE3D6"/><rect x="1548.5" y="1083.5" width="110" height="107" stroke="#002060" stroke-width="20.625" stroke-miterlimit="8" fill="#8ED973"/><rect x="1658.5" y="1083.5" width="110" height="107" stroke="#002060" stroke-width="20.625" stroke-miterlimit="8" fill="#00B050"/><path d="M1539.76 891 1666.31 891 1749 969.892 1749 1169 1536 1169C1536.42 1075.08 1536.84 981.162 1539.76 891Z" fill="#FFC000" fill-rule="evenodd" fill-opacity="0.501961"/><g><g><g><path d="M1549.25 1156.5 1549.25 901.5 1654.25 901.5 1654.25 980.25 1736.75 980.25 1736.75 1156.5 1549.25 1156.5ZM1676.75 910.875 1723.62 957.75 1676.75 957.75 1676.75 910.875ZM1676.75 879 1526.75 879 1526.75 1179 1759.25 1179 1759.25 961.5 1676.75 879Z" stroke="#FFFFFF" stroke-width="3.75" fill="#FFFFFF"/></g></g></g></g></svg>