<svg width="353" height="357" xmlns="http://www.w3.org/2000/svg" xmlns:xlink="http://www.w3.org/1999/xlink" xml:space="preserve" overflow="hidden"><defs><clipPath id="clip0"><rect x="311" y="862" width="353" height="357"/></clipPath></defs><g clip-path="url(#clip0)" transform="translate(-311 -862)"><path d="M489.007 862C562.739 862 626.001 906.953 653.024 971.02L661.653 998.895 594.697 998.895 593.83 996.095C576.56 955.151 536.129 926.421 489.007 926.421 426.177 926.421 375.243 977.496 375.243 1040.5 375.243 1103.5 426.177 1154.58 489.007 1154.58 524.348 1154.58 555.926 1138.42 576.792 1113.06L590.707 1090.07 513.247 1090.07 513.247 1028.57 664 1028.57 664 1070.47 663.397 1076.47 659.371 1090.07 659.37 1090.07 654.666 1105.95C628.633 1172.15 564.275 1219 489.007 1219 390.696 1219 311 1139.08 311 1040.5 311 941.917 390.696 862 489.007 862Z" fill="#0070C0" fill-rule="evenodd"/><path d="M439 1040.5C439 1013.71 460.49 992 487 992 513.51 992 535 1013.71 535 1040.5 535 1067.29 513.51 1089 487 1089 460.49 1089 439 1067.29 439 1040.5Z" fill="#FFFFFF" fill-rule="evenodd"/><path d="M487.363 1073.5C469.24 1073.5 454.411 1058.65 454.411 1040.5 454.411 1022.35 469.24 1007.5 487.363 1007.5 505.486 1007.5 520.315 1022.35 520.315 1040.5 520.315 1058.65 505.486 1073.5 487.363 1073.5ZM561.504 1019.88C559.856 1013.83 557.385 1008.05 554.364 1002.83L561.229 982.2 545.577 966.525 524.983 973.4C519.491 970.375 513.724 967.9 507.683 966.25L498.347 947 476.379 947 466.768 966.25C460.727 967.9 454.96 970.375 449.743 973.4L429.148 966.525 413.496 982.2 420.361 1002.83C417.341 1008.33 414.869 1014.1 413.222 1020.15L394 1029.5 394 1051.5 413.222 1061.12C414.869 1067.18 417.341 1072.95 420.361 1078.18L413.496 1098.8 429.148 1114.48 449.743 1107.6C455.235 1110.63 461.001 1113.1 467.043 1114.75L476.653 1134 498.621 1134 508.232 1114.75C514.273 1113.1 520.04 1110.63 525.257 1107.6L545.852 1114.48 561.504 1098.8 554.639 1078.18C557.66 1072.68 560.131 1066.9 561.779 1060.85L581 1051.23 581 1029.23 561.504 1019.88Z" fill="#00B050" fill-rule="evenodd"/></g></svg>