<svg width="508" height="500" xmlns="http://www.w3.org/2000/svg" xmlns:xlink="http://www.w3.org/1999/xlink" xml:space="preserve" overflow="hidden"><g transform="translate(-3442 -592)"><rect x="3452.5" y="602.5" width="244" height="239" stroke="#FFFFFF" stroke-width="20.625" stroke-miterlimit="8" fill="#FF0000"/><rect x="3696.5" y="602.5" width="243" height="239" stroke="#FFFFFF" stroke-width="20.625" stroke-miterlimit="8" fill="#FFC000"/><rect x="3452.5" y="841.5" width="244" height="240" stroke="#FFFFFF" stroke-width="20.625" stroke-miterlimit="8" fill="#00B050"/><rect x="3696.5" y="841.5" width="243" height="240" stroke="#FFFFFF" stroke-width="20.625" stroke-miterlimit="8" fill="#002060"/><path d="M3523 720C3523 692.386 3545.16 670 3572.5 670 3599.84 670 3622 692.386 3622 720 3622 747.614 3599.84 770 3572.5 770 3545.16 770 3523 747.614 3523 720Z" fill="#FFFFFF" fill-rule="evenodd"/><path d="M3768 951C3768 923.386 3790.39 901 3818 901 3845.61 901 3868 923.386 3868 951 3868 978.614 3845.61 1001 3818 1001 3790.39 1001 3768 978.614 3768 951Z" fill="#FFFFFF" fill-rule="evenodd"/></g></svg>