<svg width="476" height="490" xmlns="http://www.w3.org/2000/svg" xmlns:xlink="http://www.w3.org/1999/xlink" xml:space="preserve" overflow="hidden"><g transform="translate(-2164 -605)"><path d="M2275 712C2275 684.386 2297.16 662 2324.5 662 2351.84 662 2374 684.386 2374 712 2374 739.614 2351.84 762 2324.5 762 2297.16 762 2275 739.614 2275 712Z" fill="#FF0000" fill-rule="evenodd"/><path d="M2164 848C2164 820.386 2186.16 798 2213.5 798 2240.84 798 2263 820.386 2263 848 2263 875.614 2240.84 898 2213.5 898 2186.16 898 2164 875.614 2164 848Z" fill="#FF0000" fill-rule="evenodd"/><path d="M2275 967C2275 939.386 2297.16 917 2324.5 917 2351.84 917 2374 939.386 2374 967 2374 994.614 2351.84 1017 2324.5 1017 2297.16 1017 2275 994.614 2275 967Z" fill="#FF0000" fill-rule="evenodd"/><path d="M2440 712C2440 684.386 2462.39 662 2490 662 2517.61 662 2540 684.386 2540 712 2540 739.614 2517.61 762 2490 762 2462.39 762 2440 739.614 2440 712Z" fill="#002060" fill-rule="evenodd"/><path d="M2540 848C2540 820.386 2562.39 798 2590 798 2617.61 798 2640 820.386 2640 848 2640 875.614 2617.61 898 2590 898 2562.39 898 2540 875.614 2540 848Z" fill="#002060" fill-rule="evenodd"/><path d="M2440 967C2440 939.386 2462.39 917 2490 917 2517.61 917 2540 939.386 2540 967 2540 994.614 2517.61 1017 2490 1017 2462.39 1017 2440 994.614 2440 967Z" fill="#002060" fill-rule="evenodd"/><path d="M2402 605 2402 1080.75" stroke="#000000" stroke-width="27.5" stroke-miterlimit="8" fill="none" fill-rule="evenodd"/></g></svg>