<svg width="469" height="462" xmlns="http://www.w3.org/2000/svg" xmlns:xlink="http://www.w3.org/1999/xlink" xml:space="preserve" overflow="hidden"><g transform="translate(-2247 -1384)"><rect x="2257.5" y="1394.5" width="149" height="147" stroke="#002060" stroke-width="20.625" stroke-miterlimit="8" fill="#A6CAEC"/><rect x="2406.5" y="1394.5" width="149" height="147" stroke="#002060" stroke-width="20.625" stroke-miterlimit="8" fill="#4E95D9"/><rect x="2555.5" y="1394.5" width="150" height="147" stroke="#002060" stroke-width="20.625" stroke-miterlimit="8" fill="#215F9A"/><rect x="2257.5" y="1541.5" width="149" height="147" stroke="#002060" stroke-width="20.625" stroke-miterlimit="8" fill="#4E95D9"/><rect x="2406.5" y="1541.5" width="149" height="147" stroke="#002060" stroke-width="20.625" stroke-miterlimit="8" fill="#92D050"/><rect x="2555.5" y="1541.5" width="150" height="147" stroke="#002060" stroke-width="20.625" stroke-miterlimit="8" fill="#92D050"/><rect x="2257.5" y="1688.5" width="149" height="147" stroke="#002060" stroke-width="20.625" stroke-miterlimit="8" fill="#FBE3D6"/><rect x="2406.5" y="1688.5" width="149" height="147" stroke="#002060" stroke-width="20.625" stroke-miterlimit="8" fill="#8ED973"/><rect x="2555.5" y="1688.5" width="150" height="147" stroke="#002060" stroke-width="20.625" stroke-miterlimit="8" fill="#00B050"/><path d="M2276 1463.5C2276 1436.16 2298.39 1414 2326 1414 2353.61 1414 2376 1436.16 2376 1463.5 2376 1490.84 2353.61 1513 2326 1513 2298.39 1513 2276 1490.84 2276 1463.5Z" fill="#FFFFFF" fill-rule="evenodd"/><path d="M2434 1602C2434 1574.39 2456.16 1552 2483.5 1552 2510.84 1552 2533 1574.39 2533 1602 2533 1629.61 2510.84 1652 2483.5 1652 2456.16 1652 2434 1629.61 2434 1602Z" fill="#FFFFFF" fill-rule="evenodd"/><path d="M2580 1761.5C2580 1734.16 2602.39 1712 2630 1712 2657.61 1712 2680 1734.16 2680 1761.5 2680 1788.84 2657.61 1811 2630 1811 2602.39 1811 2580 1788.84 2580 1761.5Z" fill="#FFFFFF" fill-rule="evenodd"/></g></svg>