<svg width="475" height="469" xmlns="http://www.w3.org/2000/svg" xmlns:xlink="http://www.w3.org/1999/xlink" xml:space="preserve" overflow="hidden"><defs><clipPath id="clip0"><rect x="2807" y="605" width="475" height="469"/></clipPath></defs><g clip-path="url(#clip0)" transform="translate(-2807 -605)"><path d="M2807 851C2807 823.386 2829.16 801 2856.5 801 2883.84 801 2906 823.386 2906 851 2906 878.614 2883.84 901 2856.5 901 2829.16 901 2807 878.614 2807 851Z" fill="#FF0000" fill-rule="evenodd"/><path d="M2990 655C2990 627.386 3012.39 605 3040 605 3067.61 605 3090 627.386 3090 655 3090 682.614 3067.61 705 3040 705 3012.39 705 2990 682.614 2990 655Z" fill="#002060" fill-rule="evenodd"/><path d="M3183 851C3183 823.386 3205.16 801 3232.5 801 3259.84 801 3282 823.386 3282 851 3282 878.614 3259.84 901 3232.5 901 3205.16 901 3183 878.614 3183 851Z" fill="#FF0000" fill-rule="evenodd"/><path d="M3005 1024C3005 996.386 3027.39 974 3055 974 3082.61 974 3105 996.386 3105 1024 3105 1051.61 3082.61 1074 3055 1074 3027.39 1074 3005 1051.61 3005 1024Z" fill="#002060" fill-rule="evenodd"/><path d="M2963.25 731.809 3054.9 823.467 3146.56 731.809 3165.97 751.218 3074.31 842.876 3165.97 934.534 3146.56 953.942 3054.9 862.284 2963.25 953.942 2943.84 934.534 3035.49 842.876 2943.84 751.218Z" stroke="#000000" stroke-width="6.875" stroke-miterlimit="8" fill-rule="evenodd"/></g></svg>