<svg width="340" height="271" xmlns="http://www.w3.org/2000/svg" xmlns:xlink="http://www.w3.org/1999/xlink" xml:space="preserve" overflow="hidden"><g transform="translate(-1531 -946)"><path d="M1558.5 990.667C1558.5 981.186 1566.19 973.5 1575.67 973.5L1644.33 973.5C1653.81 973.5 1661.5 981.186 1661.5 990.667L1661.5 1060.33C1661.5 1069.81 1653.81 1077.5 1644.33 1077.5L1575.67 1077.5C1566.19 1077.5 1558.5 1069.81 1558.5 1060.33Z" stroke="#000000" stroke-width="55" stroke-linecap="round" stroke-linejoin="round" stroke-miterlimit="10" fill="#43A047" fill-rule="evenodd"/><path d="M1620.5 1097.5 1620.5 1188.5 1810.5 1188.5" stroke="#000000" stroke-width="55" stroke-linecap="round" stroke-linejoin="round" stroke-miterlimit="10" fill="none" fill-rule="evenodd"/><path d="M0 0 0.000360892 61.3463" stroke="#000000" stroke-width="55" stroke-linecap="round" stroke-linejoin="round" stroke-miterlimit="10" fill="none" fill-rule="evenodd" transform="matrix(1 0 0 -1 1708.5 1188.85)"/><path d="M1739.5 995.834C1739.5 986.261 1747.26 978.5 1756.83 978.5L1826.17 978.5C1835.74 978.5 1843.5 986.261 1843.5 995.834L1843.5 1065.17C1843.5 1074.74 1835.74 1082.5 1826.17 1082.5L1756.83 1082.5C1747.26 1082.5 1739.5 1074.74 1739.5 1065.17Z" stroke="#000000" stroke-width="55" stroke-linecap="round" stroke-linejoin="round" stroke-miterlimit="10" fill="none" fill-rule="evenodd"/></g></svg>