<svg width="575" height="590" xmlns="http://www.w3.org/2000/svg" xmlns:xlink="http://www.w3.org/1999/xlink" xml:space="preserve" overflow="hidden"><g transform="translate(-3340 -1884)"><path d="M3685.72 1951.5C3734.2 1951.5 3773.5 1951.5 3773.5 1951.5L3773.5 2406.5C3773.5 2406.5 3734.2 2406.5 3685.72 2406.5L3466.28 2406.5C3417.8 2406.5 3378.5 2406.5 3378.5 2406.5L3378.5 1951.5C3378.5 1951.5 3417.8 1951.5 3466.28 1951.5Z" stroke="#111111" stroke-width="76.7708" stroke-linecap="round" stroke-linejoin="round" stroke-miterlimit="10" fill="#FFFFFF" fill-rule="evenodd"/><path d="M3876.5 2025C3876.5 2081.61 3830.61 2127.5 3774 2127.5 3717.39 2127.5 3671.5 2081.61 3671.5 2025 3671.5 1968.39 3717.39 1922.5 3774 1922.5 3830.61 1922.5 3876.5 1968.39 3876.5 2025Z" stroke="#111111" stroke-width="76.7708" stroke-linecap="round" stroke-linejoin="round" stroke-miterlimit="10" fill="#1E88E5" fill-rule="evenodd"/><path d="M3876.5 2333C3876.5 2389.61 3830.61 2435.5 3774 2435.5 3717.39 2435.5 3671.5 2389.61 3671.5 2333 3671.5 2276.39 3717.39 2230.5 3774 2230.5 3830.61 2230.5 3876.5 2276.39 3876.5 2333Z" stroke="#111111" stroke-width="76.7708" stroke-linecap="round" stroke-linejoin="round" stroke-miterlimit="10" fill="#1E88E5" fill-rule="evenodd"/><path d="M3773.5 2127.5 3773.5 2230.5" stroke="#111111" stroke-width="76.7708" stroke-linecap="round" stroke-linejoin="round" stroke-miterlimit="10" fill="none" fill-rule="evenodd"/></g></svg>