<svg width="353" height="297" xmlns="http://www.w3.org/2000/svg" xmlns:xlink="http://www.w3.org/1999/xlink" xml:space="preserve" overflow="hidden"><g transform="translate(-1531 -594)"><path d="M1559.5 862.498C1763.18 863.254 1703.94 662.013 1856.5 660.5" stroke="#042433" stroke-width="55" stroke-linecap="round" stroke-linejoin="round" stroke-miterlimit="10" fill="none" fill-rule="evenodd"/><path d="M1558.5 717.5C1558.5 688.781 1581.56 665.5 1610 665.5 1638.44 665.5 1661.5 688.781 1661.5 717.5 1661.5 746.219 1638.44 769.5 1610 769.5 1581.56 769.5 1558.5 746.219 1558.5 717.5Z" stroke="#042433" stroke-width="55" stroke-linecap="round" stroke-linejoin="round" stroke-miterlimit="10" fill="#FB8C00" fill-rule="evenodd"/><path d="M1705.5 649C1705.5 629.946 1720.95 614.5 1740 614.5 1759.05 614.5 1774.5 629.946 1774.5 649 1774.5 668.054 1759.05 683.5 1740 683.5 1720.95 683.5 1705.5 668.054 1705.5 649Z" stroke="#042433" stroke-width="41.25" stroke-linecap="round" stroke-linejoin="round" stroke-miterlimit="10" fill="#FB8C00" fill-rule="evenodd"/></g></svg>