<svg width="280" height="287" xmlns="http://www.w3.org/2000/svg" xmlns:xlink="http://www.w3.org/1999/xlink" xml:space="preserve" overflow="hidden"><g transform="translate(-2553 -908)"><path d="M2567 970.5C2567 943.714 2588.71 922 2615.5 922 2642.29 922 2664 943.714 2664 970.5 2664 997.286 2642.29 1019 2615.5 1019 2588.71 1019 2567 997.286 2567 970.5Z" stroke="#042433" stroke-width="27.5" stroke-miterlimit="8" fill="#43A047" fill-rule="evenodd"/><path d="M2715 1026C2715 997.281 2738.28 974 2767 974 2795.72 974 2819 997.281 2819 1026 2819 1054.72 2795.72 1078 2767 1078 2738.28 1078 2715 1054.72 2715 1026Z" stroke="#042433" stroke-width="27.5" stroke-miterlimit="8" fill="#FB8C00" fill-rule="evenodd"/><path d="M2586 1129.5C2586 1101.06 2609.28 1078 2638 1078 2666.72 1078 2690 1101.06 2690 1129.5 2690 1157.94 2666.72 1181 2638 1181 2609.28 1181 2586 1157.94 2586 1129.5Z" stroke="#042433" stroke-width="27.5" stroke-miterlimit="8" fill="#FB8C00" fill-rule="evenodd"/></g></svg>