<svg width="237" height="264" xmlns="http://www.w3.org/2000/svg" xmlns:xlink="http://www.w3.org/1999/xlink" xml:space="preserve" overflow="hidden"><g transform="translate(-1587 -1609)"><path d="M1641.91 1634.6C1645.93 1634.6 1649.18 1637.82 1649.18 1641.8L1649.18 1692.2C1649.18 1696.18 1645.93 1699.4 1641.91 1699.4L1620.09 1699.4C1616.07 1699.4 1612.82 1696.18 1612.82 1692.2L1612.82 1641.8C1612.82 1637.82 1616.07 1634.6 1620.09 1634.6L1641.91 1634.6M1641.91 1613 1620.09 1613C1604.02 1613 1591 1625.89 1591 1641.8L1591 1692.2C1591 1708.11 1604.02 1721 1620.09 1721L1641.91 1721C1657.98 1721 1671 1708.11 1671 1692.2L1671 1641.8C1671 1625.89 1657.98 1613 1641.91 1613Z" stroke="#0D0D0D" stroke-width="8.02083" stroke-miterlimit="8" fill-rule="evenodd"/><path d="M1693 1613 1714 1613 1714 1721 1693 1721Z" stroke="#0D0D0D" stroke-width="8.02083" stroke-miterlimit="8" fill-rule="evenodd"/><path d="M1786.91 1634.6C1790.93 1634.6 1794.18 1637.82 1794.18 1641.8L1794.18 1692.2C1794.18 1696.18 1790.93 1699.4 1786.91 1699.4L1765.09 1699.4C1761.07 1699.4 1757.82 1696.18 1757.82 1692.2L1757.82 1641.8C1757.82 1637.82 1761.07 1634.6 1765.09 1634.6L1786.91 1634.6M1786.91 1613 1765.09 1613C1749.02 1613 1736 1625.89 1736 1641.8L1736 1692.2C1736 1708.11 1749.02 1721 1765.09 1721L1786.91 1721C1802.98 1721 1816 1708.11 1816 1692.2L1816 1641.8C1816 1625.89 1802.98 1613 1786.91 1613Z" stroke="#0D0D0D" stroke-width="8.02083" stroke-miterlimit="8" fill-rule="evenodd"/><path d="M1790.91 1781.8C1794.93 1781.8 1798.18 1785.05 1798.18 1789.07L1798.18 1839.93C1798.18 1843.95 1794.93 1847.2 1790.91 1847.2L1769.09 1847.2C1765.07 1847.2 1761.82 1843.95 1761.82 1839.93L1761.82 1789.07C1761.82 1785.05 1765.07 1781.8 1769.09 1781.8L1790.91 1781.8M1790.91 1760 1769.09 1760C1753.02 1760 1740 1773.01 1740 1789.07L1740 1839.93C1740 1855.99 1753.02 1869 1769.09 1869L1790.91 1869C1806.98 1869 1820 1855.99 1820 1839.93L1820 1789.07C1820 1773.01 1806.98 1760 1790.91 1760Z" stroke="#0D0D0D" stroke-width="8.02083" stroke-miterlimit="8" fill-rule="evenodd"/><path d="M1599 1760 1620 1760 1620 1869 1599 1869Z" stroke="#0D0D0D" stroke-width="8.02083" stroke-miterlimit="8" fill-rule="evenodd"/><path d="M1692.91 1781.8C1696.93 1781.8 1700.18 1785.05 1700.18 1789.07L1700.18 1839.93C1700.18 1843.95 1696.93 1847.2 1692.91 1847.2L1671.09 1847.2C1667.07 1847.2 1663.82 1843.95 1663.82 1839.93L1663.82 1789.07C1663.82 1785.05 1667.07 1781.8 1671.09 1781.8L1692.91 1781.8M1692.91 1760 1671.09 1760C1655.02 1760 1642 1773.01 1642 1789.07L1642 1839.93C1642 1855.99 1655.02 1869 1671.09 1869L1692.91 1869C1708.98 1869 1722 1855.99 1722 1839.93L1722 1789.07C1722 1773.01 1708.98 1760 1692.91 1760Z" stroke="#0D0D0D" stroke-width="8.02083" stroke-miterlimit="8" fill-rule="evenodd"/></g></svg>