<svg width="317" height="322" xmlns="http://www.w3.org/2000/svg" xmlns:xlink="http://www.w3.org/1999/xlink" xml:space="preserve" overflow="hidden"><g transform="translate(-1534 -1248)"><path d="M0 0 216.686 195.938" stroke="#7F7F7F" stroke-width="55" stroke-linecap="round" stroke-linejoin="round" stroke-miterlimit="10" fill="none" fill-rule="evenodd" transform="matrix(-1 0 0 1 1778.19 1275.5)"/><path d="M0 0 216.686 195.938" stroke="#000000" stroke-width="55" stroke-linecap="round" stroke-linejoin="round" stroke-miterlimit="10" fill="none" fill-rule="evenodd" transform="matrix(-1 0 0 1 1820.19 1346.5)"/><path d="M1592.5 1448C1592.5 1428.95 1608.17 1413.5 1627.5 1413.5 1646.83 1413.5 1662.5 1428.95 1662.5 1448 1662.5 1467.05 1646.83 1482.5 1627.5 1482.5 1608.17 1482.5 1592.5 1467.05 1592.5 1448Z" stroke="#042433" stroke-width="41.25" stroke-linecap="round" stroke-linejoin="round" stroke-miterlimit="10" fill="#FB8C00" fill-rule="evenodd"/><path d="M1761.5 1437C1761.5 1417.95 1776.95 1402.5 1796 1402.5 1815.05 1402.5 1830.5 1417.95 1830.5 1437 1830.5 1456.05 1815.05 1471.5 1796 1471.5 1776.95 1471.5 1761.5 1456.05 1761.5 1437Z" stroke="#042433" stroke-width="41.25" stroke-linecap="round" stroke-linejoin="round" stroke-miterlimit="10" fill="#FB8C00" fill-rule="evenodd"/></g></svg>