<?xml version="1.0" encoding="UTF-8" standalone="no"?>
<!DOCTYPE svg PUBLIC "-//W3C//DTD SVG 1.1//EN" "http://www.w3.org/Graphics/SVG/1.1/DTD/svg11.dtd">
<!-- Created with Vectornator (http://vectornator.io/) -->
<svg height="100%" stroke-miterlimit="10" style="fill-rule:nonzero;clip-rule:evenodd;stroke-linecap:round;stroke-linejoin:round;" version="1.1" viewBox="1076.74 281.408 77.2425 79.8493" width="100%" xml:space="preserve" xmlns="http://www.w3.org/2000/svg" xmlns:vectornator="http://vectornator.io" xmlns:xlink="http://www.w3.org/1999/xlink">
<defs/>
<clipPath id="ArtboardFrame">
<rect height="79.8493" width="77.2425" x="1076.74" y="281.408"/>
</clipPath>
<g clip-path="url(#ArtboardFrame)" id="Layer" vectornator:layerName="Layer">
<g opacity="1" vectornator:layerName="Group 8">
<path d="M1095.1 293.864C1095.1 292.634 1096.01 291.637 1097.13 291.637C1098.26 291.637 1099.17 292.634 1099.17 293.864C1099.17 295.094 1098.26 296.091 1097.13 296.091C1096.01 296.091 1095.1 295.094 1095.1 293.864Z" fill="#f1d244" fill-rule="nonzero" opacity="1" stroke="#000000" stroke-linecap="butt" stroke-linejoin="round" stroke-width="0.690418" vectornator:layerName="Oval 50"/>
<path d="M1126.97 316.733C1126.97 315.523 1127.87 314.543 1128.97 314.543C1130.08 314.543 1130.98 315.523 1130.98 316.733C1130.98 317.943 1130.08 318.923 1128.97 318.923C1127.87 318.923 1126.97 317.943 1126.97 316.733Z" fill="#3e68ff" fill-rule="nonzero" opacity="1" stroke="#000000" stroke-linecap="butt" stroke-linejoin="round" stroke-width="0.679118" vectornator:layerName="Oval 52"/>
<path d="M1088.67 301.966C1088.67 300.736 1089.58 299.739 1090.71 299.739C1091.83 299.739 1092.74 300.736 1092.74 301.966C1092.74 303.196 1091.83 304.193 1090.71 304.193C1089.58 304.193 1088.67 303.196 1088.67 301.966Z" fill="#f1d244" fill-rule="nonzero" opacity="1" stroke="#000000" stroke-linecap="butt" stroke-linejoin="round" stroke-width="0.690418" vectornator:layerName="Oval 54"/>
<path d="M1104.36 295.526C1104.36 294.296 1105.28 293.299 1106.4 293.299C1107.52 293.299 1108.44 294.296 1108.44 295.526C1108.44 296.755 1107.52 297.752 1106.4 297.752C1105.28 297.752 1104.36 296.755 1104.36 295.526Z" fill="#f1d244" fill-rule="nonzero" opacity="1" stroke="#000000" stroke-linecap="butt" stroke-linejoin="round" stroke-width="0.690418" vectornator:layerName="Oval 56"/>
<path d="M1142.45 313.624C1142.45 312.415 1143.35 311.434 1144.45 311.434C1145.56 311.434 1146.46 312.415 1146.46 313.624C1146.46 314.834 1145.56 315.815 1144.45 315.815C1143.35 315.815 1142.45 314.834 1142.45 313.624Z" fill="#3e68ff" fill-rule="nonzero" opacity="1" stroke="#000000" stroke-linecap="butt" stroke-linejoin="round" stroke-width="0.679118" vectornator:layerName="Oval 58"/>
<path d="M1104.36 304.414C1104.36 303.184 1105.28 302.187 1106.4 302.187C1107.52 302.187 1108.44 303.184 1108.44 304.414C1108.44 305.644 1107.52 306.641 1106.4 306.641C1105.28 306.641 1104.36 305.644 1104.36 304.414Z" fill="#f1d244" fill-rule="nonzero" opacity="1" stroke="#000000" stroke-linecap="butt" stroke-linejoin="round" stroke-width="0.690418" vectornator:layerName="Oval 60"/>
<path d="M1135.68 322.468C1135.68 321.259 1136.57 320.278 1137.68 320.278C1138.79 320.278 1139.68 321.259 1139.68 322.468C1139.68 323.678 1138.79 324.659 1137.68 324.659C1136.57 324.659 1135.68 323.678 1135.68 322.468Z" fill="#3e68ff" fill-rule="nonzero" opacity="1" stroke="#000000" stroke-linecap="butt" stroke-linejoin="round" stroke-width="0.679118" vectornator:layerName="Oval 62"/>
<path d="M1095.8 309.348C1095.8 308.118 1096.72 307.121 1097.84 307.121C1098.96 307.121 1099.88 308.118 1099.88 309.348C1099.88 310.578 1098.96 311.575 1097.84 311.575C1096.72 311.575 1095.8 310.578 1095.8 309.348Z" fill="#f1d244" fill-rule="nonzero" opacity="1" stroke="#000000" stroke-linecap="butt" stroke-linejoin="round" stroke-width="0.690418" vectornator:layerName="Oval 64"/>
<path d="M1090.64 338.594C1090.64 337.306 1091.59 336.261 1092.77 336.261C1093.95 336.261 1094.9 337.306 1094.9 338.594C1094.9 339.883 1093.95 340.928 1092.77 340.928C1091.59 340.928 1090.64 339.883 1090.64 338.594Z" fill="#e94420" fill-rule="nonzero" opacity="1" stroke="#000000" stroke-linecap="butt" stroke-linejoin="round" stroke-width="0.723514" vectornator:layerName="Oval 66"/>
<path d="M1083.9 347.084C1083.9 345.795 1084.86 344.75 1086.03 344.75C1087.21 344.75 1088.17 345.795 1088.17 347.084C1088.17 348.373 1087.21 349.418 1086.03 349.418C1084.86 349.418 1083.9 348.373 1083.9 347.084Z" fill="#e94420" fill-rule="nonzero" opacity="1" stroke="#000000" stroke-linecap="butt" stroke-linejoin="round" stroke-width="0.723514" vectornator:layerName="Oval 68"/>
<path d="M1100.1 340.928C1100.1 339.639 1101.05 338.594 1102.23 338.594C1103.41 338.594 1104.36 339.639 1104.36 340.928C1104.36 342.217 1103.41 343.262 1102.23 343.262C1101.05 343.262 1100.1 342.217 1100.1 340.928Z" fill="#e94420" fill-rule="nonzero" opacity="1" stroke="#000000" stroke-linecap="butt" stroke-linejoin="round" stroke-width="0.723514" vectornator:layerName="Oval 70"/>
<path d="M1093.67 351.264C1093.67 349.975 1094.63 348.93 1095.8 348.93C1096.98 348.93 1097.94 349.975 1097.94 351.264C1097.94 352.553 1096.98 353.598 1095.8 353.598C1094.63 353.598 1093.67 352.553 1093.67 351.264Z" fill="#e94420" fill-rule="nonzero" opacity="1" stroke="#000000" stroke-linecap="butt" stroke-linejoin="round" stroke-width="0.723514" vectornator:layerName="Oval 72"/>
<path d="M1128.97 327.575C1128.97 326.366 1129.87 325.385 1130.98 325.385C1132.08 325.385 1132.98 326.366 1132.98 327.575C1132.98 328.785 1132.08 329.766 1130.98 329.766C1129.87 329.766 1128.97 328.785 1128.97 327.575Z" fill="#3e68ff" fill-rule="nonzero" opacity="1" stroke="#000000" stroke-linecap="butt" stroke-linejoin="round" stroke-width="0.679118" vectornator:layerName="Oval 74"/>
<path d="M1098.53 282.205C1088.85 282.205 1081 290.057 1081 299.743C1081 309.428 1088.85 317.28 1098.53 317.28C1108.22 317.28 1116.07 309.428 1116.07 299.743C1116.07 290.057 1108.22 282.205 1098.53 282.205Z" fill="none" opacity="1" stroke="#000000" stroke-linecap="butt" stroke-linejoin="miter" stroke-width="1.59432" vectornator:layerName="path 13"/>
<path d="M1135.65 302.235C1125.97 302.235 1118.11 310.087 1118.11 319.773C1118.11 329.458 1125.97 337.31 1135.65 337.31C1145.34 337.31 1153.19 329.458 1153.19 319.773C1153.19 310.087 1145.34 302.235 1135.65 302.235Z" fill="none" opacity="1" stroke="#000000" stroke-linecap="butt" stroke-linejoin="miter" stroke-width="1.59432" vectornator:layerName="path 15"/>
<path d="M1095.08 325.385C1085.39 325.385 1077.54 333.237 1077.54 342.922C1077.54 352.608 1085.39 360.46 1095.08 360.46C1104.76 360.46 1112.62 352.608 1112.62 342.922C1112.62 333.237 1104.76 325.385 1095.08 325.385Z" fill="none" opacity="1" stroke="#000000" stroke-linecap="butt" stroke-linejoin="miter" stroke-width="1.59432" vectornator:layerName="path 17"/>
</g>
</g>
</svg>
