<svg width="376" height="376" xmlns="http://www.w3.org/2000/svg" xmlns:xlink="http://www.w3.org/1999/xlink" xml:space="preserve" overflow="hidden"><defs><clipPath id="clip0"><rect x="1046" y="589" width="376" height="376"/></clipPath></defs><g clip-path="url(#clip0)" transform="translate(-1046 -589)"><path d="M1046 777C1046 673.17 1130.17 589 1234 589 1337.83 589 1422 673.17 1422 777 1422 880.829 1337.83 965 1234 965 1130.17 965 1046 880.829 1046 777Z" fill="#002060" fill-rule="evenodd"/><path d="M1163.46 639 1185.54 639 1185.54 693.104 1240 693.104 1240 714.896 1185.54 714.896 1185.54 769 1163.46 769 1163.46 714.896 1109 714.896 1109 693.104 1163.46 693.104 1163.46 639Z" stroke="#FFFFFF" stroke-width="13.75" stroke-miterlimit="8" fill="#FFFFFF" fill-rule="evenodd"/><path d="M1274 692 1371 692 1371 715 1274 715 1274 692Z" stroke="#FFFFFF" stroke-width="13.75" stroke-miterlimit="8" fill="#FFFFFF" fill-rule="evenodd"/><path d="M1326.73 783C1331.96 783 1336.32 784.784 1339.79 788.351 1343.26 791.919 1345 796.353 1345 801.653 1345 806.749 1343.26 811.081 1339.79 814.649 1336.32 818.216 1331.96 820 1326.73 820 1321.29 820 1316.81 818.216 1313.29 814.649 1309.76 811.081 1308 806.749 1308 801.653 1308 796.353 1309.76 791.919 1313.29 788.351 1316.81 784.784 1321.29 783 1326.73 783Z" stroke="#FFFFFF" stroke-width="13.75" stroke-miterlimit="8" fill="#FFFFFF" fill-rule="evenodd"/><path d="M1136.39 803 1174.54 841.562 1212.31 803.453 1228 818.558 1189.89 857.076 1227.85 895.442 1212.46 911 1174.47 872.665 1136.54 911 1121 895.593 1159.09 857.151 1121 818.709 1136.39 803Z" stroke="#FFFFFF" stroke-width="13.75" stroke-miterlimit="8" fill="#FFFFFF" fill-rule="evenodd"/><path d="M1261 835 1391 835 1391 857 1261 857 1261 835Z" stroke="#FFFFFF" stroke-width="13.75" stroke-miterlimit="8" fill="#FFFFFF" fill-rule="evenodd"/><path d="M1326.73 876C1331.96 876 1336.32 877.704 1339.79 881.111 1343.26 884.518 1345 888.79 1345 893.926 1345 898.963 1343.26 903.235 1339.79 906.741 1336.32 910.247 1331.96 912 1326.73 912 1321.29 912 1316.81 910.247 1313.29 906.741 1309.76 903.235 1308 898.963 1308 893.926 1308 888.79 1309.76 884.518 1313.29 881.111 1316.81 877.704 1321.29 876 1326.73 876Z" stroke="#FFFFFF" stroke-width="13.75" stroke-miterlimit="8" fill="#FFFFFF" fill-rule="evenodd"/></g></svg>