<svg width="253" height="290" xmlns="http://www.w3.org/2000/svg" xmlns:xlink="http://www.w3.org/1999/xlink" xml:space="preserve" overflow="hidden"><g transform="translate(-1576 -1364)"><path d="M0.0240032 0.0441253 211.024 248.044" stroke="#000000" stroke-width="41.25" stroke-linecap="round" stroke-linejoin="round" stroke-miterlimit="10" fill="none" fill-rule="evenodd" transform="matrix(-1 1.22465e-16 1.22465e-16 1 1808.5 1384.5)"/><path d="M1633.93 1464.8C1633.93 1445.74 1649.37 1430.3 1668.43 1430.3 1687.49 1430.3 1702.93 1445.74 1702.93 1464.8 1702.93 1483.85 1687.49 1499.3 1668.43 1499.3 1649.37 1499.3 1633.93 1483.85 1633.93 1464.8Z" stroke="#042433" stroke-width="31.398" stroke-miterlimit="8" fill="#43A047" fill-rule="evenodd"/><path d="M1738.94 1503.8C1738.94 1483.64 1755.28 1467.3 1775.44 1467.3 1795.6 1467.3 1811.94 1483.64 1811.94 1503.8 1811.94 1523.96 1795.6 1540.3 1775.44 1540.3 1755.28 1540.3 1738.94 1523.96 1738.94 1503.8Z" stroke="#042433" stroke-width="31.398" stroke-miterlimit="8" fill="#FB8C00" fill-rule="evenodd"/><path d="M1647.94 1576.8C1647.94 1556.64 1664.28 1540.3 1684.44 1540.3 1704.6 1540.3 1720.94 1556.64 1720.94 1576.8 1720.94 1596.95 1704.6 1613.3 1684.44 1613.3 1664.28 1613.3 1647.94 1596.95 1647.94 1576.8Z" stroke="#042433" stroke-width="31.398" stroke-miterlimit="8" fill="#FB8C00" fill-rule="evenodd"/></g></svg>