<svg width="377" height="376" xmlns="http://www.w3.org/2000/svg" xmlns:xlink="http://www.w3.org/1999/xlink" xml:space="preserve" overflow="hidden"><defs><clipPath id="clip0"><rect x="1521" y="582" width="377" height="376"/></clipPath></defs><g clip-path="url(#clip0)" transform="translate(-1521 -582)"><path d="M1521 770C1521 666.17 1605.39 582 1709.5 582 1813.61 582 1898 666.17 1898 770 1898 873.83 1813.61 958 1709.5 958 1605.39 958 1521 873.83 1521 770Z" fill="#00B050" fill-rule="evenodd"/><path d="M1646.46 694.824 1812.54 694.824 1812.54 754.565 1646.46 754.565ZM1646.46 784.435 1812.54 784.435 1812.54 844.176 1646.46 844.176Z" stroke="#00B050" stroke-width="6.875" stroke-miterlimit="8" fill="#FFFFFF" fill-rule="evenodd"/><path d="M1709.13 582C1722.12 582 1734.8 583.315 1747.05 585.819L1754 587.976 1745.93 586.996C1659.78 586.996 1589.94 671.166 1589.94 774.996 1589.94 852.868 1629.23 919.682 1685.21 948.222L1710.88 957.824 1709.13 958C1605.23 958 1521 873.83 1521 770 1521 666.17 1605.23 582 1709.13 582Z" fill="#002060" fill-rule="evenodd"/></g></svg>