<svg width="377" height="376" xmlns="http://www.w3.org/2000/svg" xmlns:xlink="http://www.w3.org/1999/xlink" xml:space="preserve" overflow="hidden"><defs><clipPath id="clip0"><rect x="459" y="609" width="377" height="376"/></clipPath></defs><g clip-path="url(#clip0)" transform="translate(-459 -609)"><path d="M459 797C459 693.171 543.394 609 647.5 609 751.606 609 836 693.171 836 797 836 900.829 751.606 985 647.5 985 543.394 985 459 900.829 459 797Z" fill="#002060" fill-rule="evenodd"/><path d="M611.57 661.518 688.136 635.996 755.515 703.374 729.993 779.941 653.426 805.463 586.048 738.084Z" stroke="#042433" stroke-width="20.625" stroke-miterlimit="8" fill="#FF0000" fill-rule="evenodd"/><path d="M650.118 805.893 726.685 780.371 794.063 847.749 768.541 924.316 691.975 949.838 624.596 882.459Z" stroke="#042433" stroke-width="20.625" stroke-miterlimit="8" fill="#FFC000" fill-rule="evenodd"/><path d="M509.018 764.897 585.584 739.375 652.963 806.754 627.441 883.32 550.874 908.842 483.496 841.464Z" stroke="#042433" stroke-width="20.625" stroke-miterlimit="8" fill="#92D050" fill-rule="evenodd"/></g></svg>