<svg width="376" height="377" xmlns="http://www.w3.org/2000/svg" xmlns:xlink="http://www.w3.org/1999/xlink" xml:space="preserve" overflow="hidden"><defs><clipPath id="clip0"><rect x="2011" y="1336" width="376" height="377"/></clipPath></defs><g clip-path="url(#clip0)" transform="translate(-2011 -1336)"><path d="M2011 1524.5C2011 1420.39 2095.17 1336 2199 1336 2302.83 1336 2387 1420.39 2387 1524.5 2387 1628.61 2302.83 1713 2199 1713 2095.17 1713 2011 1628.61 2011 1524.5Z" fill="#002060" fill-rule="evenodd"/><path d="M2030 1564.91C2042.95 1534.11 2055.9 1503.31 2072.1 1506.72 2088.29 1510.13 2107.98 1594 2127.14 1585.38 2146.3 1576.76 2164.65 1455.36 2187.05 1455 2209.44 1454.64 2239.4 1574.42 2261.52 1583.22 2283.65 1592.02 2301.73 1512.11 2319.81 1507.8 2337.89 1503.49 2353.94 1530.43 2370 1557.36" stroke="#FFFFFF" stroke-width="27.5" stroke-linecap="round" stroke-linejoin="round" stroke-miterlimit="10" fill="none" fill-rule="evenodd"/></g></svg>