<svg width="376" height="377" xmlns="http://www.w3.org/2000/svg" xmlns:xlink="http://www.w3.org/1999/xlink" xml:space="preserve" overflow="hidden"><defs><clipPath id="clip0"><rect x="3291" y="1344" width="376" height="377"/></clipPath></defs><g clip-path="url(#clip0)" transform="translate(-3291 -1344)"><path d="M3291 1532.5C3291 1428.39 3375.17 1344 3479 1344 3582.83 1344 3667 1428.39 3667 1532.5 3667 1636.61 3582.83 1721 3479 1721 3375.17 1721 3291 1636.61 3291 1532.5Z" fill="#002060" fill-rule="evenodd"/><rect x="3368" y="1422" width="59.9998" height="57.9998" fill="#FFFFFF"/><rect x="3368" y="1504" width="59.9998" height="59.0001" fill="#FFFFFF"/><rect x="3368" y="1588" width="59.9998" height="57.9998" fill="#FFFFFF"/><rect x="3450" y="1421" width="60.0002" height="58.9998" fill="#FFFFFF"/><rect x="3450" y="1504" width="60.0002" height="58.0001" fill="#FFFFFF"/><rect x="3450" y="1587" width="60.0002" height="57.9998" fill="#FFFFFF"/><rect x="3531" y="1421" width="60.0002" height="58.9998" fill="#FFFFFF"/><rect x="3531" y="1504" width="60.0002" height="58.0001" fill="#FFFFFF"/><rect x="3531" y="1587" width="60.0002" height="57.9998" fill="#FFFFFF"/></g></svg>