<svg width="374" height="376" xmlns="http://www.w3.org/2000/svg" xmlns:xlink="http://www.w3.org/1999/xlink" xml:space="preserve" overflow="hidden"><defs><clipPath id="clip0"><rect x="2013" y="591" width="374" height="376"/></clipPath></defs><g clip-path="url(#clip0)" transform="translate(-2013 -591)"><path d="M2262.6 747C2265.44 747 2268.46 747.39 2271.48 747.39L2289.24 750.202C2307.75 754.192 2325.75 763.564 2342.52 777.937 2352.52 786.062 2363.62 799.988 2372.22 811.883L2381 824.62 2372.23 852.896C2353.22 897.894 2317.22 933.942 2272.27 952.975L2259.32 957 2138.99 957 2126.04 952.975C2092.33 938.7 2063.65 914.854 2043.39 884.84L2036 871.203 2039.39 871.219C2117.62 860.514 2156.65 807.155 2157.1 806.608 2182.41 768.796 2220.95 747 2262.6 747Z" fill="#00B050" fill-rule="evenodd"/><path d="M2042.19 676 2047.31 676.572C2081.22 682.472 2132.83 703.444 2167 773.336 2163.27 777.746 2159.69 782.538 2156.27 787.686 2153.83 790.824 2116.98 837.562 2046.3 847.443L2024.97 849 2015.2 817.3 2013 795.387 2013 763.125 2015.2 741.212C2017.69 728.924 2021.38 717.071 2026.13 705.779L2042.19 676Z" fill="#92D050" fill-rule="evenodd"/><path d="M2199.2 591C2302.92 591 2387 675.322 2387 779.339 2387 792.341 2385.69 805.036 2383.18 817.296L2381.01 824.331 2372.23 811.575C2363.63 799.663 2352.53 785.716 2342.53 777.578 2325.77 763.185 2307.77 753.798 2289.26 749.802L2271.51 746.986C2268.49 746.986 2265.47 746.595 2262.63 746.595 2220.99 746.595 2182.45 768.424 2157.15 806.293 2156.71 806.84 2117.69 860.279 2039.47 871L2036.08 870.984 2026.15 852.649 2025 848.924 2046.35 847.371C2117.11 837.512 2154 790.88 2156.45 787.75 2159.87 782.613 2163.45 777.833 2167.19 773.433 2132.98 703.7 2081.31 682.776 2047.36 676.889L2042.23 676.318 2043.47 674.037C2077.22 623.938 2134.37 591 2199.2 591Z" fill="#002060" fill-rule="evenodd"/><path d="M2139 957 2259 957 2236.75 963.447C2224.56 965.776 2211.93 967 2199 967 2186.07 967 2173.44 965.776 2161.25 963.447L2139 957Z" fill="#00B050" fill-rule="evenodd"/><path d="M2178.44 761C2206.75 735.08 2238.26 721.956 2270.14 722.799L2272 722.799C2247.94 688.7 2218.23 669.454 2187.4 668.002 2166.89 667.877 2146.61 675.707 2128 690.937 2147.39 707.842 2164.56 731.703 2178.44 761Z" fill="#FF0000" fill-rule="evenodd"/></g></svg>