<svg width="410" height="410" xmlns="http://www.w3.org/2000/svg" xmlns:xlink="http://www.w3.org/1999/xlink" xml:space="preserve" overflow="hidden"><g transform="translate(-1603 -1061)"><path d="M1626.42 1113.41C1626.42 1097.46 1636.2 1084.53 1648.26 1084.53L1735.59 1084.53C1747.64 1084.53 1757.42 1097.46 1757.42 1113.41L1757.42 1230.64C1757.42 1246.59 1747.64 1259.53 1735.59 1259.53L1648.26 1259.53C1636.2 1259.53 1626.42 1246.59 1626.42 1230.64Z" stroke="#000000" stroke-width="45.8333" stroke-linecap="round" stroke-linejoin="round" stroke-miterlimit="10" fill="#FF0000" fill-rule="evenodd"/><path d="M1705.42 1293.53 1705.42 1447.53 1947.42 1447.53" stroke="#000000" stroke-width="45.8333" stroke-linecap="round" stroke-linejoin="round" stroke-miterlimit="10" fill="none" fill-rule="evenodd"/><path d="M1856.42 1121.86C1856.42 1105.66 1866.34 1092.53 1878.58 1092.53L1967.26 1092.53C1979.5 1092.53 1989.42 1105.66 1989.42 1121.86L1989.42 1239.2C1989.42 1255.39 1979.5 1268.53 1967.26 1268.53L1878.58 1268.53C1866.34 1268.53 1856.42 1255.39 1856.42 1239.2Z" stroke="#000000" stroke-width="45.8333" stroke-linecap="round" stroke-linejoin="round" stroke-miterlimit="10" fill="none" fill-rule="evenodd"/><path d="M1827 1324 1827 1447.69" stroke="#000000" stroke-width="45.8333" stroke-linecap="round" stroke-linejoin="round" stroke-miterlimit="10" fill="none" fill-rule="evenodd"/></g></svg>