<svg width="401" height="414" xmlns="http://www.w3.org/2000/svg" xmlns:xlink="http://www.w3.org/1999/xlink" xml:space="preserve" overflow="hidden"><g transform="translate(-2675 -1092)"><path d="M0.0352763 0.0518633 310.131 291.542" stroke="#0D0D0D" stroke-width="36.6667" stroke-linecap="round" stroke-linejoin="round" stroke-miterlimit="10" fill="#00B050" fill-rule="evenodd" transform="matrix(-0.953358 0.301843 0.301843 0.953358 2977.63 1116.02)"/><path d="M2696.2 1359.37C2687.65 1332.36 2702.09 1303.68 2728.46 1295.33 2754.84 1286.98 2783.15 1302.12 2791.71 1329.14 2800.26 1356.16 2785.82 1384.84 2759.45 1393.19 2733.08 1401.54 2704.76 1386.39 2696.2 1359.37Z" stroke="#0D0D0D" stroke-width="36.6667" stroke-linecap="round" stroke-linejoin="round" stroke-miterlimit="10" fill="#00B050" fill-rule="evenodd"/><path d="M2960.43 1267.89C2951.87 1240.88 2966.01 1212.29 2992 1204.06 3018 1195.83 3046.01 1211.07 3054.57 1238.09 3063.12 1265.11 3048.98 1293.69 3022.99 1301.92 2997 1310.15 2968.98 1294.91 2960.43 1267.89Z" stroke="#0D0D0D" stroke-width="36.6667" stroke-linecap="round" stroke-linejoin="round" stroke-miterlimit="10" fill="#00B050" fill-rule="evenodd"/><path d="M2798.38 1176.82C2789.82 1149.81 2804.27 1121.13 2830.64 1112.78 2857.01 1104.43 2885.33 1119.57 2893.88 1146.59 2902.44 1173.61 2887.99 1202.29 2861.62 1210.64 2835.25 1218.99 2806.93 1203.84 2798.38 1176.82Z" stroke="#0D0D0D" stroke-width="36.6667" stroke-linecap="round" stroke-linejoin="round" stroke-miterlimit="10" fill="#00B050" fill-rule="evenodd"/><path d="M2859.17 1436.96C2850.62 1409.94 2864.76 1381.36 2890.75 1373.13 2916.74 1364.9 2944.76 1380.14 2953.31 1407.15 2961.87 1434.17 2947.73 1462.76 2921.74 1470.99 2895.75 1479.22 2867.73 1463.98 2859.17 1436.96Z" stroke="#0D0D0D" stroke-width="36.6667" stroke-linecap="round" stroke-linejoin="round" stroke-miterlimit="10" fill="#00B050" fill-rule="evenodd"/></g></svg>