<svg width="406" height="420" xmlns="http://www.w3.org/2000/svg" xmlns:xlink="http://www.w3.org/1999/xlink" xml:space="preserve" overflow="hidden"><g transform="translate(-2124 -1093)"><path d="M0.0352763 0.0518633 310.131 291.542" stroke="#000000" stroke-width="41.25" stroke-linecap="round" stroke-linejoin="round" stroke-miterlimit="10" fill="none" fill-rule="evenodd" transform="matrix(-0.953358 0.301843 0.301843 0.953358 2429.42 1119.89)"/><path d="M2147.99 1363.24C2139.44 1336.23 2153.88 1307.55 2180.25 1299.2 2206.63 1290.85 2234.94 1305.99 2243.5 1333.01 2252.05 1360.03 2237.61 1388.71 2211.24 1397.06 2184.86 1405.41 2156.55 1390.26 2147.99 1363.24Z" stroke="#042433" stroke-width="41.25" stroke-linecap="round" stroke-linejoin="round" stroke-miterlimit="10" fill="#FF0000" fill-rule="evenodd"/><path d="M2412.22 1271.76C2403.66 1244.75 2417.8 1216.16 2443.79 1207.93 2469.78 1199.7 2497.8 1214.94 2506.35 1241.96 2514.91 1268.98 2500.77 1297.56 2474.78 1305.79 2448.79 1314.02 2420.77 1298.78 2412.22 1271.76Z" stroke="#042433" stroke-width="41.25" stroke-linecap="round" stroke-linejoin="round" stroke-miterlimit="10" fill="#FF0000" fill-rule="evenodd"/><path d="M2250.17 1180.69C2241.61 1153.68 2256.05 1125 2282.43 1116.65 2308.8 1108.3 2337.12 1123.44 2345.67 1150.46 2354.22 1177.48 2339.78 1206.16 2313.41 1214.51 2287.04 1222.86 2258.72 1207.71 2250.17 1180.69Z" stroke="#042433" stroke-width="41.25" stroke-linecap="round" stroke-linejoin="round" stroke-miterlimit="10" fill="#FB8C00" fill-rule="evenodd"/><path d="M2310.96 1440.83C2302.41 1413.81 2316.55 1385.23 2342.54 1377 2368.53 1368.77 2396.55 1384.01 2405.1 1411.03 2413.66 1438.04 2399.52 1466.63 2373.52 1474.86 2347.53 1483.09 2319.52 1467.85 2310.96 1440.83Z" stroke="#042433" stroke-width="41.25" stroke-linecap="round" stroke-linejoin="round" stroke-miterlimit="10" fill="#FB8C00" fill-rule="evenodd"/></g></svg>