<svg width="418" height="460" xmlns="http://www.w3.org/2000/svg" xmlns:xlink="http://www.w3.org/1999/xlink" xml:space="preserve" overflow="hidden"><g transform="translate(-1139 -1064)"><path d="M0.0336032 0.0614774 295.422 345.586" stroke="#000000" stroke-width="41.25" stroke-linecap="round" stroke-linejoin="round" stroke-miterlimit="10" fill="none" fill-rule="evenodd" transform="matrix(-0.953358 0.301843 0.301843 0.953358 1435.67 1084.68)"/><path d="M1156.38 1366.06C1145.72 1332.41 1164.19 1296.54 1197.63 1285.95 1231.07 1275.37 1266.81 1294.07 1277.47 1327.72 1288.12 1361.37 1269.65 1397.24 1236.21 1407.82 1202.78 1418.41 1167.03 1399.7 1156.38 1366.06Z" stroke="#042433" stroke-width="27.5" stroke-linecap="round" stroke-linejoin="round" stroke-miterlimit="10" fill="#FB8C00" fill-rule="evenodd"/><path d="M1420.78 1252.13C1410.13 1218.48 1428.21 1182.73 1461.17 1172.3 1494.12 1161.87 1529.49 1180.69 1540.14 1214.34 1550.79 1247.99 1532.71 1283.74 1499.75 1294.17 1466.8 1304.6 1431.43 1285.78 1420.78 1252.13Z" stroke="#042433" stroke-width="27.5" stroke-linecap="round" stroke-linejoin="round" stroke-miterlimit="10" fill="#FB8C00" fill-rule="evenodd"/></g></svg>