<svg width="351" height="351" xmlns="http://www.w3.org/2000/svg" xmlns:xlink="http://www.w3.org/1999/xlink" xml:space="preserve" overflow="hidden"><g transform="translate(-1978 -1715)"><rect x="1984" y="1726" width="109" height="108" fill="#A6CAEC"/><rect x="2093" y="1726" width="110" height="108" fill="#4E95D9"/><rect x="2203" y="1726" width="109" height="108" fill="#215F9A"/><rect x="1984" y="1834" width="109" height="108" fill="#4E95D9"/><rect x="2093" y="1834" width="110" height="108" fill="#92D050"/><rect x="2203" y="1834" width="109" height="108" fill="#92D050"/><rect x="1984" y="1942" width="109" height="107" fill="#FBE3D6"/><rect x="2093" y="1942" width="110" height="107" fill="#8ED973"/><rect x="2203" y="1942" width="109" height="107" fill="#00B050"/><path d="M1988.5 1725.5 2318.5 1725.5 2318.5 2055.5 1988.5 2055.5Z" stroke="#002060" stroke-width="20.625" stroke-miterlimit="8" fill="none" fill-rule="evenodd"/><path d="M2034 1807.5C2034 1781.82 2054.82 1761 2080.5 1761 2106.18 1761 2127 1781.82 2127 1807.5 2127 1833.18 2106.18 1854 2080.5 1854 2054.82 1854 2034 1833.18 2034 1807.5Z" stroke="#042433" stroke-width="27.5" stroke-miterlimit="8" fill="#FF0000" fill-rule="evenodd"/><path d="M2188 1864.5C2188 1838.82 2208.82 1818 2234.5 1818 2260.18 1818 2281 1838.82 2281 1864.5 2281 1890.18 2260.18 1911 2234.5 1911 2208.82 1911 2188 1890.18 2188 1864.5Z" stroke="#042433" stroke-width="27.5" stroke-miterlimit="8" fill="#92D050" fill-rule="evenodd"/><path d="M2077 1960C2077 1934.59 2097.82 1914 2123.5 1914 2149.18 1914 2170 1934.59 2170 1960 2170 1985.41 2149.18 2006 2123.5 2006 2097.82 2006 2077 1985.41 2077 1960Z" stroke="#042433" stroke-width="27.5" stroke-miterlimit="8" fill="#0F9ED5" fill-rule="evenodd"/></g></svg>