<svg width="363" height="365" xmlns="http://www.w3.org/2000/svg" xmlns:xlink="http://www.w3.org/1999/xlink" xml:space="preserve" overflow="hidden"><g transform="translate(-3216 -1072)"><path d="M3300.07 1108.22C3306.2 1108.22 3311.15 1112.66 3311.15 1118.15L3311.15 1187.68C3311.15 1193.17 3306.2 1197.62 3300.07 1197.62L3266.79 1197.62C3260.66 1197.62 3255.71 1193.17 3255.71 1187.68L3255.71 1118.15C3255.71 1112.66 3260.66 1108.22 3266.79 1108.22L3300.07 1108.22M3300.07 1078.42 3266.79 1078.42C3242.29 1078.42 3222.43 1096.2 3222.43 1118.15L3222.43 1187.68C3222.43 1209.63 3242.29 1227.42 3266.79 1227.42L3300.07 1227.42C3324.57 1227.42 3344.43 1209.63 3344.43 1187.68L3344.43 1118.15C3344.43 1096.2 3324.57 1078.42 3300.07 1078.42Z" stroke="#0D0D0D" stroke-width="12.2151" stroke-miterlimit="8" fill-rule="evenodd"/><path d="M3378.43 1078.42 3410.43 1078.42 3410.43 1227.42 3378.43 1227.42Z" stroke="#0D0D0D" stroke-width="12.2151" stroke-miterlimit="8" fill-rule="evenodd"/><path d="M3522.07 1108.22C3528.2 1108.22 3533.15 1112.66 3533.15 1118.15L3533.15 1187.68C3533.15 1193.17 3528.2 1197.62 3522.07 1197.62L3488.79 1197.62C3482.66 1197.62 3477.71 1193.17 3477.71 1187.68L3477.71 1118.15C3477.71 1112.66 3482.66 1108.22 3488.79 1108.22L3522.07 1108.22M3522.07 1078.42 3488.79 1078.42C3464.29 1078.42 3444.43 1096.2 3444.43 1118.15L3444.43 1187.68C3444.43 1209.63 3464.29 1227.42 3488.79 1227.42L3522.07 1227.42C3546.57 1227.42 3566.43 1209.63 3566.43 1187.68L3566.43 1118.15C3566.43 1096.2 3546.57 1078.42 3522.07 1078.42Z" stroke="#0D0D0D" stroke-width="12.2151" stroke-miterlimit="8" fill-rule="evenodd"/><path d="M3528.07 1311.22C3534.2 1311.22 3539.15 1315.67 3539.15 1321.16L3539.15 1390.69C3539.15 1396.18 3534.2 1400.62 3528.07 1400.62L3494.79 1400.62C3488.66 1400.62 3483.71 1396.18 3483.71 1390.69L3483.71 1321.16C3483.71 1315.67 3488.66 1311.22 3494.79 1311.22L3528.07 1311.22M3528.07 1281.42 3494.79 1281.42C3470.29 1281.42 3450.43 1299.21 3450.43 1321.16L3450.43 1390.69C3450.43 1412.64 3470.29 1430.42 3494.79 1430.42L3528.07 1430.42C3552.57 1430.42 3572.43 1412.64 3572.43 1390.69L3572.43 1321.16C3572.43 1299.21 3552.57 1281.42 3528.07 1281.42Z" stroke="#0D0D0D" stroke-width="12.2151" stroke-miterlimit="8" fill-rule="evenodd"/><path d="M3234.43 1281.42 3266.43 1281.42 3266.43 1430.42 3234.43 1430.42Z" stroke="#0D0D0D" stroke-width="12.2151" stroke-miterlimit="8" fill-rule="evenodd"/><path d="M3378.07 1311.22C3384.2 1311.22 3389.15 1315.67 3389.15 1321.16L3389.15 1390.69C3389.15 1396.18 3384.2 1400.62 3378.07 1400.62L3344.79 1400.62C3338.66 1400.62 3333.71 1396.18 3333.71 1390.69L3333.71 1321.16C3333.71 1315.67 3338.66 1311.22 3344.79 1311.22L3378.07 1311.22M3378.07 1281.42 3344.79 1281.42C3320.29 1281.42 3300.43 1299.21 3300.43 1321.16L3300.43 1390.69C3300.43 1412.64 3320.29 1430.42 3344.79 1430.42L3378.07 1430.42C3402.57 1430.42 3422.43 1412.64 3422.43 1390.69L3422.43 1321.16C3422.43 1299.21 3402.57 1281.42 3378.07 1281.42Z" stroke="#0D0D0D" stroke-width="12.2151" stroke-miterlimit="8" fill-rule="evenodd"/></g></svg>