<svg width="384" height="384" xmlns="http://www.w3.org/2000/svg" xmlns:xlink="http://www.w3.org/1999/xlink" xml:space="preserve" overflow="hidden"><g transform="translate(-550 -1042)"><path d="M658.5 1233C658.5 1179.15 701.928 1135.5 755.5 1135.5 809.072 1135.5 852.5 1179.15 852.5 1233 852.5 1286.85 809.072 1330.5 755.5 1330.5 701.928 1330.5 658.5 1286.85 658.5 1233Z" stroke="#042433" stroke-width="6.875" stroke-miterlimit="8" fill="#FFC000" fill-rule="evenodd"/><path d="M741.734 1298.06C706.553 1298.06 677.769 1269.23 677.769 1234 677.769 1198.77 706.553 1169.94 741.734 1169.94 776.914 1169.94 805.698 1198.77 805.698 1234 805.698 1269.23 776.914 1298.06 741.734 1298.06ZM885.655 1193.96C882.456 1182.22 877.659 1171.01 871.796 1160.87L885.122 1120.83 854.738 1090.4 814.76 1103.75C804.1 1097.88 792.906 1093.07 781.179 1089.87L763.055 1052.5 720.412 1052.5 701.756 1089.87C690.029 1093.07 678.835 1097.88 668.707 1103.75L628.729 1090.4 598.346 1120.83 611.672 1160.87C605.809 1171.54 601.011 1182.75 597.813 1194.5L560.5 1212.65 560.5 1255.35 597.813 1274.04C601.011 1285.78 605.809 1296.99 611.672 1307.13L598.346 1347.17 628.729 1377.6 668.707 1364.25C679.368 1370.13 690.562 1374.93 702.289 1378.13L720.945 1415.5 763.588 1415.5 782.245 1378.13C793.972 1374.93 805.166 1370.13 815.293 1364.25L855.271 1377.6 885.655 1347.17 872.329 1307.13C878.192 1296.46 882.989 1285.25 886.188 1273.5L923.5 1254.82 923.5 1212.11 885.655 1193.96Z" stroke="#FFFFFF" stroke-width="20.625" stroke-miterlimit="8" fill="#002060" fill-rule="evenodd"/></g></svg>