<svg width="350" height="345" xmlns="http://www.w3.org/2000/svg" xmlns:xlink="http://www.w3.org/1999/xlink" xml:space="preserve" overflow="hidden"><g transform="translate(-1390 -1296)"><rect x="1400.5" y="1306.5" width="110" height="108" stroke="#002060" stroke-width="20.625" stroke-miterlimit="8" fill="#A6CAEC"/><rect x="1510.5" y="1306.5" width="109" height="108" stroke="#002060" stroke-width="20.625" stroke-miterlimit="8" fill="#4E95D9"/><rect x="1619.5" y="1306.5" width="110" height="108" stroke="#002060" stroke-width="20.625" stroke-miterlimit="8" fill="#215F9A"/><rect x="1400.5" y="1414.5" width="110" height="108" stroke="#002060" stroke-width="20.625" stroke-miterlimit="8" fill="#4E95D9"/><rect x="1510.5" y="1414.5" width="109" height="108" stroke="#002060" stroke-width="20.625" stroke-miterlimit="8" fill="#92D050"/><rect x="1619.5" y="1414.5" width="110" height="108" stroke="#002060" stroke-width="20.625" stroke-miterlimit="8" fill="#92D050"/><rect x="1400.5" y="1522.5" width="110" height="108" stroke="#002060" stroke-width="20.625" stroke-miterlimit="8" fill="#FBE3D6"/><rect x="1510.5" y="1522.5" width="109" height="108" stroke="#002060" stroke-width="20.625" stroke-miterlimit="8" fill="#8ED973"/><rect x="1619.5" y="1522.5" width="110" height="108" stroke="#002060" stroke-width="20.625" stroke-miterlimit="8" fill="#00B050"/><rect x="1468.5" y="1377.5" width="181" height="182" stroke="#002060" stroke-width="0" stroke-miterlimit="8" fill="#FFFFFF"/><path d="M1469 1386C1500.66 1393.85 1532.32 1401.71 1551.89 1425.08 1571.47 1448.45 1571.08 1503.23 1586.43 1526.22 1601.79 1549.21 1622.89 1556.1 1644 1563" stroke="#FF0000" stroke-width="27.5" stroke-miterlimit="8" fill="none" fill-rule="evenodd"/><rect x="1469.5" y="1381.5" width="182" height="182" stroke="#002060" stroke-width="20.625" stroke-miterlimit="8" fill="none"/></g></svg>