<svg width="366" height="343" xmlns="http://www.w3.org/2000/svg" xmlns:xlink="http://www.w3.org/1999/xlink" xml:space="preserve" overflow="hidden"><defs><clipPath id="clip0"><rect x="3727" y="1282" width="366" height="343"/></clipPath></defs><g clip-path="url(#clip0)" transform="translate(-3727 -1282)"><path d="M4073.22 1625 3746.78 1625C3735.9 1625 3727 1613.97 3727 1600.5L3727 1306.5C3727 1293.02 3735.9 1282 3746.78 1282L3839.77 1282C3843.72 1282 3847.68 1283.22 3850.65 1286.29L3905.05 1331 4073.22 1331C4084.1 1331 4093 1342.02 4093 1355.5L4093 1600.5C4093 1613.97 4084.1 1625 4073.22 1625Z" fill="#00B050" fill-rule="evenodd"/><path d="M3936.01 1425 3880.99 1425 3880.99 1507.5 3838 1507.5 3908.5 1590 3979 1507.5 3936.01 1507.5Z" fill="#FFFFFF" fill-rule="evenodd"/><path d="M4021.88 1435.34C4019.14 1418.53 4009.86 1403.44 3996.13 1393.5 3982.05 1383.55 3964.19 1379.78 3947.02 1383.21 3930.2 1357.49 3898.95 1344.8 3869.07 1352 3839.89 1359.54 3817.91 1383.89 3813.44 1413.73 3794.21 1414.42 3776.01 1423.68 3764.34 1439.11 3750.6 1458.32 3748.2 1483.35 3757.81 1504.96 3767.77 1526.22 3788.38 1540.29 3811.73 1541.66L3836.79 1541.66 3827.52 1530.34 3818.94 1520.39 3812.76 1520.39C3797.3 1519.36 3783.57 1510.1 3776.7 1496.04 3770.18 1481.64 3771.89 1465.18 3781.16 1452.14 3790.44 1439.45 3805.89 1433.28 3821.69 1435.68L3833.7 1437.74 3833.7 1424.36C3833.7 1400.01 3850.19 1378.75 3873.88 1372.92 3897.58 1367.09 3921.96 1378.75 3932.94 1400.36L3937.07 1408.59 3945.65 1405.5C3958.7 1401.04 3972.78 1403.1 3984.11 1410.99 3995.1 1419.22 4001.62 1431.91 4001.97 1445.63L4001.97 1456.26 4016.05 1456.26C4033.56 1456.95 4047.29 1471.35 4046.95 1488.5 4046.95 1505.99 4032.87 1520.05 4015.7 1520.39L3997.85 1520.39 3988.92 1530.34 3979.3 1542 4015.7 1542C4043.52 1541.31 4066.18 1519.36 4067.9 1491.58 4069.62 1463.8 4049.36 1439.45 4021.88 1435.34Z" fill="#FFFFFF" fill-rule="evenodd"/></g></svg>