<svg width="309" height="309" xmlns="http://www.w3.org/2000/svg" xmlns:xlink="http://www.w3.org/1999/xlink" xml:space="preserve" overflow="hidden"><defs><clipPath id="clip0"><rect x="1918" y="598" width="309" height="309"/></clipPath></defs><g clip-path="url(#clip0)" transform="translate(-1918 -598)"><path d="M2156.73 598 1918 836.46 1988.62 907 2227 668.884 2156.73 598ZM2161.55 705.015 2134.68 731.854 2113.32 710.52 2103.68 720.155 2125.03 741.489 2098.16 768.329 2076.81 746.995 2067.16 756.63 2088.52 777.964 2061.65 804.803 2040.29 783.469 2030.65 793.104 2052 814.438 2025.13 841.278 2003.78 819.944 1994.13 829.578 2015.49 850.912 1988.96 877.408 1947.63 836.116 2156.73 627.249 2198.06 668.54 2171.54 695.036 2150.18 673.702 2140.19 683.681 2161.55 705.015Z" fill-rule="evenodd"/></g></svg>