<svg width="354" height="350" xmlns="http://www.w3.org/2000/svg" xmlns:xlink="http://www.w3.org/1999/xlink" xml:space="preserve" overflow="hidden"><g transform="translate(-1389 -893)"><rect x="1399" y="912" width="109" height="108" fill="#A6CAEC"/><rect x="1508" y="912" width="110" height="108" fill="#4E95D9"/><rect x="1618" y="912" width="110" height="108" fill="#215F9A"/><rect x="1399" y="1020" width="109" height="108" fill="#4E95D9"/><rect x="1508" y="1020" width="110" height="108" fill="#92D050"/><rect x="1618" y="1020" width="110" height="108" fill="#92D050"/><rect x="1399" y="1128" width="109" height="108" fill="#FBE3D6"/><rect x="1508" y="1128" width="110" height="108" fill="#8ED973"/><rect x="1618" y="1128" width="110" height="108" fill="#00B050"/><rect x="1399.5" y="903.5" width="333" height="329" stroke="#002060" stroke-width="20.625" stroke-miterlimit="8" fill="none"/><path d="M1636.46 936.5C1645.92 936.5 1652.79 938.321 1657.07 941.962 1661.36 945.603 1663.5 950.327 1663.5 956.134 1663.5 961.251 1662.07 965.311 1659.21 968.313 1656.36 971.314 1652.81 972.815 1648.58 972.815 1644.63 972.815 1641.38 971.585 1638.82 969.125 1636.26 966.664 1634.98 963.712 1634.98 960.267 1634.98 957.807 1635.79 955.199 1637.42 952.443 1639.04 949.688 1639.86 947.818 1639.86 946.834 1639.86 945.751 1639.49 944.865 1638.75 944.176 1638.01 943.487 1637.05 943.143 1635.87 943.143 1630.05 943.143 1624.1 946.735 1617.99 953.919 1607.94 965.434 1599.86 983.64 1593.75 1008.54L1615.18 1008.54 1610.01 1025.81 1589.17 1025.81 1571.88 1094.01C1563.81 1126.19 1555.92 1149.52 1548.24 1163.98 1540.56 1178.45 1531.57 1189.15 1521.27 1196.09 1510.98 1203.03 1499.18 1206.5 1485.88 1206.5 1477.51 1206.5 1471.35 1204.9 1467.41 1201.7 1463.47 1198.5 1461.5 1194.74 1461.5 1190.41 1461.5 1186.37 1463.13 1182.88 1466.38 1179.93 1469.63 1176.98 1473.91 1175.5 1479.23 1175.5 1483.67 1175.5 1487.06 1176.63 1489.43 1178.89 1491.79 1181.16 1492.97 1184.01 1492.97 1187.46 1492.97 1190.61 1492.24 1192.94 1490.76 1194.47 1489.28 1195.99 1488.54 1197 1488.54 1197.5L1489.28 1198.53C1489.87 1199.02 1490.56 1199.27 1491.35 1199.27 1494.3 1199.27 1496.82 1198.33 1498.89 1196.46 1504.11 1191.84 1508 1186.23 1510.56 1179.63 1512.33 1175.11 1515.73 1163.15 1520.76 1143.76L1550.9 1025.81 1530.36 1025.81 1535.24 1008.54C1542.62 1008.64 1547.99 1007.7 1551.34 1005.73 1554.69 1003.77 1558.24 999.338 1561.98 992.449 1572.82 972.471 1584.25 958.151 1596.27 949.491 1608.28 940.83 1621.68 936.5 1636.46 936.5Z" stroke="#FFFFFF" stroke-width="6.875" stroke-miterlimit="8" fill="#FFFFFF" fill-rule="evenodd"/></g></svg>