<svg width="351" height="351" xmlns="http://www.w3.org/2000/svg" xmlns:xlink="http://www.w3.org/1999/xlink" xml:space="preserve" overflow="hidden"><g transform="translate(-2386 -592)"><rect x="2391" y="602" width="110" height="108" fill="#A6CAEC"/><rect x="2501" y="602" width="109" height="108" fill="#4E95D9"/><rect x="2610" y="602" width="110" height="108" fill="#215F9A"/><rect x="2391" y="710" width="110" height="108" fill="#4E95D9"/><rect x="2501" y="710" width="109" height="108" fill="#92D050"/><rect x="2610" y="710" width="110" height="108" fill="#92D050"/><rect x="2391" y="818" width="110" height="108" fill="#FBE3D6"/><rect x="2501" y="818" width="109" height="108" fill="#8ED973"/><rect x="2610" y="818" width="110" height="108" fill="#00B050"/><path d="M2471.09 691.53 2637.91 691.53 2637.91 751.506 2471.09 751.506ZM2471.09 781.494 2637.91 781.494 2637.91 841.47 2471.09 841.47Z" fill-rule="evenodd"/><path d="M2396.5 602.5 2726.5 602.5 2726.5 932.5 2396.5 932.5Z" stroke="#002060" stroke-width="20.625" stroke-miterlimit="8" fill="none" fill-rule="evenodd"/></g></svg>