<svg width="358" height="358" xmlns="http://www.w3.org/2000/svg" xmlns:xlink="http://www.w3.org/1999/xlink" xml:space="preserve" overflow="hidden"><g transform="translate(-3003 -577)"><path d="M3020.5 752.5C3020.5 664.135 3092.36 592.5 3181 592.5 3269.64 592.5 3341.5 664.135 3341.5 752.5 3341.5 840.866 3269.64 912.5 3181 912.5 3092.36 912.5 3020.5 840.866 3020.5 752.5Z" stroke="#042433" stroke-width="6.875" stroke-miterlimit="8" fill="#92D050" fill-rule="evenodd"/><path d="M3092.42 876.615C3140.73 872.968 3198.46 864.928 3239.65 830.497L3278.41 871.468C3224.63 916.521 3147.46 917.704 3092.42 876.615ZM3072.34 653.643 3111.1 694.613C3074.76 734.165 3063.21 791.027 3056.89 839.059 3018.91 781.82 3024.37 704.841 3072.34 653.643ZM3271.98 635.576C3223.67 639.223 3165.94 647.263 3124.75 681.693L3085.99 640.723C3139.77 595.671 3216.94 594.486 3271.98 635.576ZM3181.83 769.384 3226.73 816.841C3188.98 847.377 3135.58 854.54 3087.94 858.206L3181.83 769.384ZM3168.91 755.727 3075.02 844.549C3081.32 797.182 3091.43 744.269 3124.02 708.27L3168.91 755.727ZM3289.38 667.642C3283.08 715.009 3273.31 767.599 3240.38 803.921L3195.49 756.464 3289.38 667.642ZM3182.57 742.807 3137.67 695.35C3175.42 664.814 3228.82 657.651 3276.46 653.985L3182.57 742.807ZM3292.06 858.548 3253.3 817.578C3289.96 778.367 3301.19 721.164 3307.51 673.132 3345.49 730.371 3340.03 807.35 3292.06 858.548ZM3311.94 633.36C3244.11 561.662 3131.16 558.529 3059.46 626.356 2987.77 694.184 2984.63 807.133 3052.46 878.831 3120.29 950.529 3233.24 953.662 3304.94 885.835 3376.63 818.007 3379.77 705.058 3311.94 633.36Z" fill-rule="evenodd"/></g></svg>