<svg width="350" height="344" xmlns="http://www.w3.org/2000/svg" xmlns:xlink="http://www.w3.org/1999/xlink" xml:space="preserve" overflow="hidden"><g transform="translate(-3841 -644)"><rect x="3851.5" y="654.5" width="110" height="107" stroke="#002060" stroke-width="20.625" stroke-miterlimit="8" fill="#8ED973"/><rect x="3961.5" y="654.5" width="109" height="107" stroke="#002060" stroke-width="20.625" stroke-miterlimit="8" fill="#8ED973"/><rect x="4070.5" y="654.5" width="110" height="107" stroke="#002060" stroke-width="20.625" stroke-miterlimit="8" fill="#8ED973"/><rect x="3851.5" y="761.5" width="110" height="108" stroke="#002060" stroke-width="20.625" stroke-miterlimit="8" fill="#8ED973"/><rect x="3961.5" y="761.5" width="109" height="108" stroke="#002060" stroke-width="20.625" stroke-miterlimit="8" fill="#8ED973"/><rect x="4070.5" y="761.5" width="110" height="108" stroke="#002060" stroke-width="20.625" stroke-miterlimit="8" fill="#8ED973"/><rect x="3851.5" y="869.5" width="110" height="108" stroke="#002060" stroke-width="20.625" stroke-miterlimit="8" fill="#8ED973"/><rect x="3961.5" y="869.5" width="109" height="108" stroke="#002060" stroke-width="20.625" stroke-miterlimit="8" fill="#8ED973"/><rect x="4070.5" y="869.5" width="110" height="108" stroke="#002060" stroke-width="20.625" stroke-miterlimit="8" fill="#8ED973"/><path d="M4021 684C3950.26 684 3893 741.487 3893 812.5 3893 883.513 3950.26 941 4021 941 4091.74 941 4149 883.513 4149 812.5 4149 741.487 4091.74 684 4021 684ZM4014.26 717.816C4023.69 717.816 4031.11 725.255 4031.11 734.724 4031.11 744.192 4023.69 751.632 4014.26 751.632 4004.83 751.632 3997.42 744.192 3997.42 734.724 3997.42 725.255 4004.83 717.816 4014.26 717.816ZM4054.68 907.184 3987.32 907.184 3987.32 886.895 4010.89 886.895 4010.89 785.447 3990.68 785.447 3990.68 765.158 4031.11 765.158 4031.11 785.447 4031.11 886.895 4054.68 886.895 4054.68 907.184Z" fill="#002060" fill-rule="evenodd"/></g></svg>