<svg width="352" height="351" xmlns="http://www.w3.org/2000/svg" xmlns:xlink="http://www.w3.org/1999/xlink" xml:space="preserve" overflow="hidden"><g transform="translate(-2860 -1245)"><rect x="2866" y="1256" width="109" height="108" fill="#A6CAEC"/><rect x="2975" y="1256" width="110" height="108" fill="#4E95D9"/><rect x="3085" y="1256" width="109" height="108" fill="#215F9A"/><rect x="2866" y="1364" width="109" height="108" fill="#4E95D9"/><rect x="2975" y="1364" width="110" height="108" fill="#92D050"/><rect x="3085" y="1364" width="109" height="108" fill="#92D050"/><rect x="2866" y="1472" width="109" height="107" fill="#FBE3D6"/><rect x="2975" y="1472" width="110" height="107" fill="#8ED973"/><rect x="3085" y="1472" width="109" height="107" fill="#00B050"/><rect x="2870.5" y="1255.5" width="331" height="330" stroke="#002060" stroke-width="20.625" stroke-miterlimit="8" fill="none"/><path d="M2951 1424.5C2951 1381.7 2985.92 1347 3029 1347 3072.08 1347 3107 1381.7 3107 1424.5 3107 1467.3 3072.08 1502 3029 1502 2985.92 1502 2951 1467.3 2951 1424.5Z" stroke="#042433" stroke-width="27.5" stroke-miterlimit="8" fill="#FFC000" fill-rule="evenodd"/></g></svg>