<svg width="367" height="343" xmlns="http://www.w3.org/2000/svg" xmlns:xlink="http://www.w3.org/1999/xlink" xml:space="preserve" overflow="hidden"><defs><clipPath id="clip0"><rect x="2548" y="1276" width="367" height="343"/></clipPath></defs><g clip-path="url(#clip0)" transform="translate(-2548 -1276)"><path d="M2895.16 1619 2567.84 1619C2556.93 1619 2548 1607.98 2548 1594.5L2548 1300.5C2548 1287.03 2556.93 1276 2567.84 1276L2661.08 1276C2665.04 1276 2669.01 1277.22 2671.99 1280.29L2726.54 1325 2895.16 1325C2906.07 1325 2915 1336.03 2915 1349.5L2915 1594.5C2915 1607.98 2906.07 1619 2895.16 1619Z" fill="#002060" fill-rule="evenodd"/><path d="M2732.58 1350C2785.42 1350 2830.77 1382.11 2850.13 1427.87L2856.32 1447.78 2808.33 1447.78 2807.71 1445.78C2795.33 1416.54 2766.35 1396.01 2732.58 1396.01 2687.55 1396.01 2651.04 1432.5 2651.04 1477.5 2651.04 1522.5 2687.55 1558.98 2732.58 1558.98 2757.91 1558.98 2780.54 1547.44 2795.5 1529.33L2805.47 1512.91 2749.95 1512.91 2749.95 1468.98 2858 1468.98 2858 1498.91 2857.57 1503.2 2854.68 1512.91 2854.68 1512.91 2851.31 1524.25C2832.65 1571.54 2786.53 1605 2732.58 1605 2662.12 1605 2605 1547.92 2605 1477.5 2605 1407.08 2662.12 1350 2732.58 1350Z" fill="#FFFFFF" fill-rule="evenodd"/><path d="M2695 1482.5C2695 1461.79 2711.79 1445 2732.5 1445 2753.21 1445 2770 1461.79 2770 1482.5 2770 1503.21 2753.21 1520 2732.5 1520 2711.79 1520 2695 1503.21 2695 1482.5Z" fill="#FFFFFF" fill-rule="evenodd"/></g></svg>