<svg width="367" height="343" xmlns="http://www.w3.org/2000/svg" xmlns:xlink="http://www.w3.org/1999/xlink" xml:space="preserve" overflow="hidden"><defs><clipPath id="clip0"><rect x="3215" y="1279" width="367" height="343"/></clipPath></defs><g clip-path="url(#clip0)" transform="translate(-3215 -1279)"><path d="M3562.16 1622 3234.84 1622C3223.93 1622 3215 1610.98 3215 1597.5L3215 1303.5C3215 1290.03 3223.93 1279 3234.84 1279L3328.08 1279C3332.04 1279 3336.01 1280.23 3338.99 1283.29L3393.54 1328 3562.16 1328C3573.07 1328 3582 1339.03 3582 1352.5L3582 1597.5C3582 1610.98 3573.07 1622 3562.16 1622Z" fill="#002060" fill-rule="evenodd"/><path d="M3289.82 1530.66C3279.27 1526.78 3270.68 1518.9 3265.89 1508.7 3259.44 1494.29 3261.1 1477.53 3270.25 1464.68 3279.57 1452 3295.13 1445.56 3310.65 1447.96L3322.85 1450 3322.85 1436.66C3322.95 1412.24 3339.49 1390.98 3363.07 1384.95 3386.73 1379.22 3411.18 1390.67 3422.03 1412.52L3426.18 1420.83 3434.81 1417.76C3447.71 1413.2 3462.02 1415.2 3473.18 1423.14 3484.28 1431.29 3490.85 1444.26 3490.87 1458.06L3490.87 1468.82 3504.89 1468.82C3522.69 1469.49 3536.58 1484.52 3535.91 1502.38 3535.27 1519.44 3521.55 1533.07 3504.54 1533.52L3486.51 1533.52 3441.98 1533.45 3441.98 1554.93 3468.27 1555 3504.54 1555C3534.21 1554.3 3557.69 1529.59 3556.98 1499.82 3556.37 1473.56 3536.97 1451.57 3511.07 1447.76 3508.33 1430.9 3499.1 1415.79 3485.37 1405.7 3471.16 1395.6 3453.41 1391.86 3436.35 1395.36 3419.56 1369.35 3388.26 1356.79 3358.23 1364.02 3328.9 1371.52 3306.95 1396.01 3302.61 1426.07 3283.18 1426.66 3265.08 1436.12 3253.45 1451.75 3239.64 1471.01 3237.13 1496.2 3246.86 1517.82 3256.77 1539.13 3277.53 1553.27 3300.93 1554.63L3326.15 1554.63 3352.67 1554.71 3352.67 1533.29 3308.01 1533.21 3301.82 1533.21C3297.92 1532.96 3294.06 1532.17 3290.37 1530.87Z" fill="#FFFFFF" fill-rule="evenodd"/><path d="M3424.32 1596 3424.32 1513.5 3467 1513.5 3397 1431 3327 1513.5 3369.68 1513.5 3369.68 1596 3424.32 1596Z" fill="#FFFFFF" fill-rule="evenodd"/></g></svg>