<svg width="343" height="337" xmlns="http://www.w3.org/2000/svg" xmlns:xlink="http://www.w3.org/1999/xlink" xml:space="preserve" overflow="hidden"><g transform="translate(-519 -645)"><rect x="529.5" y="733.5" width="80.0001" height="79.0001" stroke="#002060" stroke-width="20.625" stroke-miterlimit="8" fill="#A6CAEC"/><rect x="609.5" y="733.5" width="81.0001" height="79.0001" stroke="#002060" stroke-width="20.625" stroke-miterlimit="8" fill="#4E95D9"/><rect x="690.5" y="733.5" width="80.9998" height="79.0001" stroke="#002060" stroke-width="20.625" stroke-miterlimit="8" fill="#215F9A"/><rect x="529.5" y="812.5" width="80.0001" height="79.9998" stroke="#002060" stroke-width="20.625" stroke-miterlimit="8" fill="#4E95D9"/><rect x="609.5" y="812.5" width="81.0001" height="79.9998" stroke="#002060" stroke-width="20.625" stroke-miterlimit="8" fill="#92D050"/><rect x="690.5" y="812.5" width="80.9998" height="79.9998" stroke="#002060" stroke-width="20.625" stroke-miterlimit="8" fill="#92D050"/><rect x="529.5" y="892.5" width="80.0001" height="79.0001" stroke="#002060" stroke-width="20.625" stroke-miterlimit="8" fill="#FBE3D6"/><rect x="609.5" y="892.5" width="81.0001" height="79.0001" stroke="#002060" stroke-width="20.625" stroke-miterlimit="8" fill="#8ED973"/><rect x="690.5" y="892.5" width="80.9998" height="79.0001" stroke="#002060" stroke-width="20.625" stroke-miterlimit="8" fill="#00B050"/><rect x="571.5" y="693.5" width="79.9998" height="80.0001" stroke="#002060" stroke-width="20.625" stroke-miterlimit="8" fill="#A6CAEC"/><rect x="651.5" y="693.5" width="81.0001" height="80.0001" stroke="#002060" stroke-width="20.625" stroke-miterlimit="8" fill="#4E95D9"/><rect x="732.5" y="693.5" width="80.0001" height="80.0001" stroke="#002060" stroke-width="20.625" stroke-miterlimit="8" fill="#215F9A"/><rect x="571.5" y="773.5" width="79.9998" height="79.0001" stroke="#002060" stroke-width="20.625" stroke-miterlimit="8" fill="#4E95D9"/><rect x="651.5" y="773.5" width="81.0001" height="79.0001" stroke="#002060" stroke-width="20.625" stroke-miterlimit="8" fill="#92D050"/><rect x="732.5" y="773.5" width="80.0001" height="79.0001" stroke="#002060" stroke-width="20.625" stroke-miterlimit="8" fill="#92D050"/><rect x="571.5" y="852.5" width="79.9998" height="79.0001" stroke="#002060" stroke-width="20.625" stroke-miterlimit="8" fill="#FBE3D6"/><rect x="651.5" y="852.5" width="81.0001" height="79.0001" stroke="#002060" stroke-width="20.625" stroke-miterlimit="8" fill="#8ED973"/><rect x="732.5" y="852.5" width="80.0001" height="79.0001" stroke="#002060" stroke-width="20.625" stroke-miterlimit="8" fill="#00B050"/><rect x="609.5" y="655.5" width="81.0001" height="79.0001" stroke="#002060" stroke-width="20.625" stroke-miterlimit="8" fill="#A6CAEC"/><rect x="690.5" y="655.5" width="80.9998" height="79.0001" stroke="#002060" stroke-width="20.625" stroke-miterlimit="8" fill="#4E95D9"/><rect x="771.5" y="655.5" width="80.0001" height="79.0001" stroke="#002060" stroke-width="20.625" stroke-miterlimit="8" fill="#215F9A"/><rect x="609.5" y="734.5" width="81.0001" height="79.0001" stroke="#002060" stroke-width="20.625" stroke-miterlimit="8" fill="#4E95D9"/><rect x="690.5" y="734.5" width="80.9998" height="79.0001" stroke="#002060" stroke-width="20.625" stroke-miterlimit="8" fill="#92D050"/><rect x="771.5" y="734.5" width="80.0001" height="79.0001" stroke="#002060" stroke-width="20.625" stroke-miterlimit="8" fill="#92D050"/><rect x="609.5" y="813.5" width="81.0001" height="79.9998" stroke="#002060" stroke-width="20.625" stroke-miterlimit="8" fill="#FBE3D6"/><rect x="690.5" y="813.5" width="80.9998" height="79.9998" stroke="#002060" stroke-width="20.625" stroke-miterlimit="8" fill="#8ED973"/><rect x="771.5" y="813.5" width="80.0001" height="79.9998" stroke="#002060" stroke-width="20.625" stroke-miterlimit="8" fill="#00B050"/></g></svg>