<svg width="350" height="345" xmlns="http://www.w3.org/2000/svg" xmlns:xlink="http://www.w3.org/1999/xlink" xml:space="preserve" overflow="hidden"><g transform="translate(-2971 -649)"><rect x="2981.5" y="659.5" width="110" height="108" stroke="#002060" stroke-width="20.625" stroke-miterlimit="8" fill="#A6CAEC"/><rect x="3091.5" y="659.5" width="109" height="108" stroke="#002060" stroke-width="20.625" stroke-miterlimit="8" fill="#4E95D9"/><rect x="3200.5" y="659.5" width="110" height="108" stroke="#002060" stroke-width="20.625" stroke-miterlimit="8" fill="#215F9A"/><rect x="2981.5" y="767.5" width="110" height="108" stroke="#002060" stroke-width="20.625" stroke-miterlimit="8" fill="#4E95D9"/><rect x="3091.5" y="767.5" width="109" height="108" stroke="#002060" stroke-width="20.625" stroke-miterlimit="8" fill="#92D050"/><rect x="3200.5" y="767.5" width="110" height="108" stroke="#002060" stroke-width="20.625" stroke-miterlimit="8" fill="#92D050"/><rect x="2981.5" y="875.5" width="110" height="108" stroke="#002060" stroke-width="20.625" stroke-miterlimit="8" fill="#FBE3D6"/><rect x="3091.5" y="875.5" width="109" height="108" stroke="#002060" stroke-width="20.625" stroke-miterlimit="8" fill="#8ED973"/><rect x="3200.5" y="875.5" width="110" height="108" stroke="#002060" stroke-width="20.625" stroke-miterlimit="8" fill="#00B050"/><path d="M3064.44 742.279C3105.44 701.277 3171.92 701.277 3212.92 742.279L3215.97 745.327C3256.97 786.329 3256.97 852.805 3215.97 893.806L3212.92 896.855C3171.92 937.856 3105.44 937.856 3064.44 896.855L3061.39 893.806C3020.39 852.805 3020.39 786.329 3061.39 745.327Z" stroke="#FFFFFF" stroke-width="27.5" stroke-miterlimit="8" fill="#FFFFFF" fill-rule="evenodd" fill-opacity="0.529412"/></g></svg>