<svg width="428" height="384" xmlns="http://www.w3.org/2000/svg" xmlns:xlink="http://www.w3.org/1999/xlink" xml:space="preserve" overflow="hidden"><g transform="translate(-773 -2473)"><path d="M858.39 2473 954.019 2473 1129.61 2473C1160.75 2473 1186 2498.25 1186 2529.39L1186 2553.23 1186 2553.23 1186 2782.95 1186 2782.95 1186 2800.61C1186 2831.75 1160.75 2857 1129.61 2857L940.315 2857 858.39 2857C827.247 2857 802 2831.75 802 2800.61L802 2529.39C802 2498.25 827.247 2473 858.39 2473Z" fill="#002060" fill-rule="evenodd"/><path d="M976 2515.25 1129.75 2515.25 1129.75 2582.25 1102.25 2582.25 1102.25 2529 1116 2542.75 976 2542.75ZM1157.25 2568.5 1116 2651 1074.75 2568.5Z" fill="#FFFFFF"/><path d="M998 2810.75 844.25 2810.75 844.25 2744.75 871.75 2744.75 871.75 2797 858 2783.25 998 2783.25ZM816.75 2758.5 858 2676 899.25 2758.5Z" fill="#FFFFFF"/><path d="M888.364 2503.5 917.537 2503.5 965.5 2636.5 936.525 2636.5 927.031 2607.25 878.969 2607.25 869.179 2636.5 840.5 2636.5 888.364 2503.5ZM902.901 2530.97 885.595 2584.23 920.207 2584.23 902.901 2530.97Z" stroke="#FFFFFF" stroke-width="6.875" stroke-miterlimit="8" fill="#FFFFFF" fill-rule="evenodd"/><path d="M1047.5 2687.5 1092.92 2687.5C1107.26 2687.5 1118.62 2690.22 1126.98 2695.65 1135.34 2701.09 1139.52 2709.44 1139.52 2720.7 1139.52 2727.75 1137.75 2733.73 1134.23 2738.63 1130.71 2743.54 1126.02 2747.08 1120.16 2749.26 1129.38 2751.1 1136.41 2754.86 1141.24 2760.52 1146.08 2766.19 1148.5 2773.17 1148.5 2781.47 1148.5 2790.36 1146.48 2797.69 1142.43 2803.46 1138.38 2809.22 1132.59 2813.5 1125.05 2816.3 1117.52 2819.1 1108.48 2820.5 1097.95 2820.5L1047.5 2820.5 1047.5 2687.5ZM1075.24 2709.93 1075.24 2741.35 1092.52 2741.35C1097.85 2741.35 1102.33 2739.97 1105.95 2737.2 1109.57 2734.44 1111.38 2730.38 1111.38 2725.05 1111.38 2721.29 1110.55 2718.31 1108.91 2716.11 1107.26 2713.9 1105.03 2712.32 1102.2 2711.36 1099.37 2710.41 1096.14 2709.93 1092.52 2709.93L1075.24 2709.93ZM1075.24 2762.6 1075.24 2797.48 1096.96 2797.48C1101.31 2797.48 1105.26 2796.93 1108.81 2795.85 1112.36 2794.76 1115.18 2792.85 1117.25 2790.12 1119.33 2787.38 1120.36 2783.71 1120.36 2779.1 1120.36 2773.17 1118.16 2768.94 1113.75 2766.4 1109.34 2763.86 1103.74 2762.6 1096.96 2762.6L1075.24 2762.6Z" stroke="#FFFFFF" stroke-width="6.875" stroke-miterlimit="8" fill="#FFFFFF" fill-rule="evenodd"/></g></svg>