<svg width="385" height="384" xmlns="http://www.w3.org/2000/svg" xmlns:xlink="http://www.w3.org/1999/xlink" xml:space="preserve" overflow="hidden"><g transform="translate(-1244 -2475)"><path d="M1300.54 2475 1396.42 2475 1572.46 2475C1603.69 2475 1629 2500.25 1629 2531.39L1629 2555.23 1629 2555.23 1629 2784.95 1629 2784.95 1629 2802.61C1629 2833.75 1603.69 2859 1572.46 2859L1382.68 2859 1300.54 2859C1269.31 2859 1244 2833.75 1244 2802.61L1244 2531.39C1244 2500.25 1269.31 2475 1300.54 2475Z" fill="#002060" fill-rule="evenodd"/><path d="M1355.78 2525 1379.22 2525 1379.22 2583.27 1437 2583.27 1437 2606.73 1379.22 2606.73 1379.22 2665 1355.78 2665 1355.78 2606.73 1298 2606.73 1298 2583.27 1355.78 2583.27 1355.78 2525Z" stroke="#FFFFFF" stroke-width="13.75" stroke-miterlimit="8" fill="#FFFFFF" fill-rule="evenodd"/><path d="M1474 2582 1578 2582 1578 2607 1474 2607 1474 2582Z" stroke="#FFFFFF" stroke-width="13.75" stroke-miterlimit="8" fill="#FFFFFF" fill-rule="evenodd"/><path d="M1529.74 2680C1535.26 2680 1539.85 2681.88 1543.51 2685.64 1547.17 2689.4 1549 2694.07 1549 2699.66 1549 2705.03 1547.17 2709.6 1543.51 2713.36 1539.85 2717.12 1535.26 2719 1529.74 2719 1524.01 2719 1519.29 2717.12 1515.57 2713.36 1511.86 2709.6 1510 2705.03 1510 2699.66 1510 2694.07 1511.86 2689.4 1515.57 2685.64 1519.29 2681.88 1524.01 2680 1529.74 2680Z" stroke="#FFFFFF" stroke-width="13.75" stroke-miterlimit="8" fill="#FFFFFF" fill-rule="evenodd"/><path d="M1326.54 2701 1367.55 2742.06 1408.14 2701.48 1425 2717.57 1384.04 2758.58 1424.84 2799.43 1408.3 2816 1367.47 2775.18 1326.7 2816 1310 2799.59 1350.94 2758.66 1310 2717.73 1326.54 2701Z" stroke="#FFFFFF" stroke-width="13.75" stroke-miterlimit="8" fill="#FFFFFF" fill-rule="evenodd"/><path d="M1460 2736 1599 2736 1599 2759 1460 2759 1460 2736Z" stroke="#FFFFFF" stroke-width="13.75" stroke-miterlimit="8" fill="#FFFFFF" fill-rule="evenodd"/><path d="M1529.74 2779C1535.26 2779 1539.85 2780.85 1543.51 2784.54 1547.17 2788.23 1549 2792.86 1549 2798.42 1549 2803.88 1547.17 2808.5 1543.51 2812.3 1539.85 2816.1 1535.26 2818 1529.74 2818 1524.01 2818 1519.29 2816.1 1515.57 2812.3 1511.86 2808.5 1510 2803.88 1510 2798.42 1510 2792.86 1511.86 2788.23 1515.57 2784.54 1519.29 2780.85 1524.01 2779 1529.74 2779Z" stroke="#FFFFFF" stroke-width="13.75" stroke-miterlimit="8" fill="#FFFFFF" fill-rule="evenodd"/></g></svg>