<svg width="386" height="385" xmlns="http://www.w3.org/2000/svg" xmlns:xlink="http://www.w3.org/1999/xlink" xml:space="preserve" overflow="hidden"><defs><clipPath id="clip0"><rect x="299" y="2492" width="386" height="385"/></clipPath></defs><g clip-path="url(#clip0)" transform="translate(-299 -2492)"><path d="M356.537 2492 452.415 2492 628.463 2492C659.687 2492 685 2517.31 685 2548.54L685 2572.44 685 2572.44 685 2802.75 685 2802.75 685 2820.46C685 2851.69 659.687 2877 628.463 2877L438.675 2877 356.537 2877C325.312 2877 300 2851.69 300 2820.46L300 2548.54C300 2517.31 325.312 2492 356.537 2492Z" fill="#002060" fill-rule="evenodd"/><path d="M542.385 2568 542.385 2639.04 383 2639.04 383 2729.96 542.385 2729.96 542.385 2801 679 2684.5Z" fill="#FFFFFF" fill-rule="evenodd"/><path d="M430.375 2530 611 2684.5 430.375 2839 430.375 2744.79 299 2744.79 299 2624.21 430.375 2624.21 430.375 2530Z" fill="#FFFFFF" fill-rule="evenodd"/></g></svg>