<svg width="387" height="385" xmlns="http://www.w3.org/2000/svg" xmlns:xlink="http://www.w3.org/1999/xlink" xml:space="preserve" overflow="hidden"><defs><clipPath id="clip0"><rect x="1777" y="2475" width="387" height="385"/></clipPath></defs><g clip-path="url(#clip0)" transform="translate(-1777 -2475)"><path d="M1833.54 2476 1929.42 2476 2105.46 2476C2136.69 2476 2162 2501.25 2162 2532.39L2162 2556.23 2162 2556.23 2162 2785.95 2162 2785.95 2162 2803.61C2162 2834.75 2136.69 2860 2105.46 2860L1915.68 2860 1833.54 2860C1802.31 2860 1777 2834.75 1777 2803.61L1777 2532.39C1777 2501.25 1802.31 2476 1833.54 2476Z" fill="#002060" fill-rule="evenodd"/><path d="M1932.14 2475 2107.64 2475C2138.77 2475 2164 2500.25 2164 2531.39L2164 2555.23 2164 2555.23 2164 2784.95 2164 2784.95 2164 2802.61C2164 2833.75 2138.77 2859 2107.64 2859L1918.45 2859 1889.84 2835.38C1847.92 2793.45 1822 2735.51 1822 2671.52 1822 2591.53 1862.51 2521 1924.12 2479.36Z" fill="#00B050" fill-rule="evenodd"/><path d="M2002.14 2559.5C2029.47 2559.5 2050.95 2565.02 2066.58 2576.05 2082.22 2587.08 2093.83 2604.02 2101.43 2626.88L2042.24 2640.03C2040.17 2633.43 2038 2628.6 2035.73 2625.55 2031.98 2620.43 2027.4 2616.48 2021.97 2613.73 2016.54 2610.97 2010.48 2609.59 2003.77 2609.59 1988.58 2609.59 1976.94 2615.69 1968.85 2627.89 1962.73 2636.94 1959.68 2651.16 1959.68 2670.54 1959.68 2694.55 1963.33 2711 1970.63 2719.91 1977.93 2728.81 1988.18 2733.26 2001.4 2733.26 2014.23 2733.26 2023.92 2729.67 2030.48 2722.48 2037.04 2715.29 2041.8 2704.84 2044.76 2691.15L2103.5 2708.88C2099.55 2725.33 2093.34 2739.07 2084.86 2750.11 2076.37 2761.14 2065.84 2769.46 2053.27 2775.08 2040.69 2780.69 2024.68 2783.5 2005.25 2783.5 1981.67 2783.5 1962.41 2780.08 1947.47 2773.24 1932.52 2766.4 1919.63 2754.36 1908.78 2737.14 1897.93 2719.91 1892.5 2697.86 1892.5 2670.98 1892.5 2635.15 1902.04 2607.61 1921.13 2588.37 1940.22 2569.12 1967.22 2559.5 2002.14 2559.5Z" stroke="#00B050" stroke-width="6.875" stroke-miterlimit="8" fill="#FFFFFF" fill-rule="evenodd"/></g></svg>