<svg width="384" height="384" xmlns="http://www.w3.org/2000/svg" xmlns:xlink="http://www.w3.org/1999/xlink" xml:space="preserve" overflow="hidden"><defs><clipPath id="clip0"><rect x="1178" y="346" width="384" height="384"/></clipPath></defs><g clip-path="url(#clip0)" transform="translate(-1178 -346)"><path d="M1234.39 346 1330.02 346 1505.61 346C1536.75 346 1562 371.247 1562 402.391L1562 426.231 1562 426.233 1562 655.946 1562 655.948 1562 673.61C1562 704.753 1536.75 730 1505.61 730L1316.31 730 1234.39 730C1203.25 730 1178 704.753 1178 673.61L1178 402.391C1178 371.247 1203.25 346 1234.39 346Z" fill="#002060" fill-rule="evenodd"/><rect x="1370.5" y="414.5" width="124" height="124" stroke="#FFFFFF" stroke-width="20.625" stroke-miterlimit="8" fill="none"/><rect x="1246.5" y="414.5" width="124" height="124" stroke="#FFFFFF" stroke-width="20.625" stroke-miterlimit="8" fill="none"/><rect x="1370.5" y="538.5" width="124" height="124" stroke="#FFFFFF" stroke-width="20.625" stroke-miterlimit="8" fill="none"/><rect x="1246.5" y="538.5" width="124" height="124" stroke="#FFFFFF" stroke-width="20.625" stroke-miterlimit="8" fill="none"/><path d="M1274 433 1343 457.055 1343 464.054 1343 474.179 1343 481.314 1274 507 1274 487.838 1327.79 469.296 1274 452.027 1274 433Z" fill="#FFFFFF" fill-rule="evenodd"/><path d="M1472 433 1472 453.826 1412.75 472.73 1472 493.025 1472 514 1396 485.884 1396 478.074 1396 466.992 1396 459.331 1472 433Z" fill="#FFFFFF" fill-rule="evenodd"/><path d="M1271 575 1343 575 1343 595 1271 595 1271 575Z" fill="#FFFFFF" fill-rule="evenodd"/><path d="M1271 608 1343 608 1343 628 1271 628 1271 608Z" fill="#FFFFFF" fill-rule="evenodd"/><path d="M1395 577 1468 577 1468 597 1395 597 1395 577Z" fill="#FFFFFF" fill-rule="evenodd"/><path d="M1395 610 1468 610 1468 631 1395 631 1395 610Z" fill="#FFFFFF" fill-rule="evenodd"/><path d="M1447 561 1412 645" stroke="#FFFFFF" stroke-width="10.3125" stroke-miterlimit="8" fill="none" fill-rule="evenodd"/></g></svg>