<svg width="385" height="384" xmlns="http://www.w3.org/2000/svg" xmlns:xlink="http://www.w3.org/1999/xlink" xml:space="preserve" overflow="hidden"><g transform="translate(-2365 -2475)"><path d="M2421.54 2475 2517.42 2475 2693.46 2475C2724.69 2475 2750 2500.25 2750 2531.39L2750 2555.23 2750 2555.23 2750 2784.95 2750 2784.95 2750 2802.61C2750 2833.75 2724.69 2859 2693.46 2859L2503.68 2859 2421.54 2859C2390.31 2859 2365 2833.75 2365 2802.61L2365 2531.39C2365 2500.25 2390.31 2475 2421.54 2475Z" fill="#002060" fill-rule="evenodd"/><rect x="2423.5" y="2538.5" width="129" height="128" stroke="#FFFFFF" stroke-width="20.625" stroke-miterlimit="8" fill="#FF0000"/><rect x="2551.5" y="2670.5" width="129" height="128" stroke="#FFFFFF" stroke-width="20.625" stroke-miterlimit="8" fill="#92D050"/><path d="M2438 2708 2508 2732.38 2508 2739.47 2508 2749.74 2508 2756.97 2438 2783 2438 2763.58 2492.57 2744.79 2438 2727.28 2438 2708Z" fill="#FFFFFF" fill-rule="evenodd"/><path d="M2674 2549 2674 2569.83 2614.75 2588.73 2674 2609.02 2674 2630 2598 2601.88 2598 2594.07 2598 2582.99 2598 2575.33 2674 2549Z" fill="#FFFFFF" fill-rule="evenodd"/></g></svg>