<svg width="384" height="384" xmlns="http://www.w3.org/2000/svg" xmlns:xlink="http://www.w3.org/1999/xlink" xml:space="preserve" overflow="hidden"><defs><clipPath id="clip0"><rect x="1264" y="600" width="384" height="384"/></clipPath></defs><g clip-path="url(#clip0)" transform="translate(-1264 -600)"><path d="M1320.38 600 1416 600 1407.97 604.36C1346.33 646.005 1305.81 716.53 1305.81 796.52 1305.81 860.512 1331.75 918.446 1373.68 960.382L1402.3 984 1320.38 984C1289.24 984 1264 958.753 1264 927.61L1264 656.39C1264 625.246 1289.24 600 1320.38 600Z" fill="#002060" fill-rule="evenodd"/><path d="M1416.15 600 1591.64 600C1622.77 600 1648 625.246 1648 656.39L1648 680.231 1648 680.232 1648 751.799 1452.39 669.977 1375.86 680.053 1561.16 778.128 1588.68 792.907 1561.16 807.685 1375.86 905.089 1452.39 914.493 1648 832.671 1648 909.946 1648 909.948 1648 927.61C1648 958.753 1622.77 984 1591.64 984L1402.45 984 1373.85 960.382C1342.41 928.93 1319.97 888.479 1310.72 843.223L1307 806.342 1355.72 806.342 1355.72 779.472 1307.08 779.472 1307.87 767.005C1316.47 699.35 1354.22 640.799 1408.12 604.36L1416.15 600ZM1382.57 779.472 1382.57 806.342 1436.28 806.342 1436.28 779.472 1382.57 779.472ZM1463.14 779.472 1463.14 806.342 1516.85 806.342 1516.85 779.472 1463.14 779.472Z" fill="#00B050" fill-rule="evenodd"/><path d="M1302 779 1307 779 1305.94 796.13 1306.92 806 1302 806 1302 779Z" fill-rule="evenodd"/></g></svg>