<svg width="384" height="385" xmlns="http://www.w3.org/2000/svg" xmlns:xlink="http://www.w3.org/1999/xlink" xml:space="preserve" overflow="hidden"><defs><clipPath id="clip0"><rect x="129" y="1524" width="384" height="385"/></clipPath></defs><g clip-path="url(#clip0)" transform="translate(-129 -1524)"><path d="M280.466 1524 456.475 1524C487.693 1524 513 1549.31 513 1580.54L513 1604.44 513 1604.44 513 1834.75 513 1834.76 513 1852.46C513 1883.69 487.693 1909 456.475 1909L266.729 1909 238.036 1885.32C196 1843.28 170 1785.19 170 1721.03 170 1640.83 210.625 1570.12 272.414 1528.37Z" fill="#00B050" fill-rule="evenodd"/><path d="M185.383 1524 281 1524 272.968 1528.37C211.334 1570.12 170.811 1640.83 170.811 1721.03 170.811 1785.19 196.745 1843.28 238.676 1885.32L267.297 1909 185.383 1909C154.243 1909 129 1883.69 129 1852.46L129 1580.54C129 1549.31 154.243 1524 185.383 1524Z" fill="#002060" fill-rule="evenodd"/><path d="M361.819 1524 476.25 1524C496.547 1524 513 1549.31 513 1580.54L513 1604.44 513 1604.44 513 1834.75 513 1834.76 513 1852.46C513 1883.69 496.547 1909 476.25 1909L352.888 1909 334.233 1885.32C306.904 1843.28 290 1785.19 290 1721.03 290 1640.83 316.412 1570.12 356.584 1528.37Z" fill-rule="evenodd"/></g></svg>