<svg width="385" height="385" xmlns="http://www.w3.org/2000/svg" xmlns:xlink="http://www.w3.org/1999/xlink" xml:space="preserve" overflow="hidden"><defs><clipPath id="clip0"><rect x="1492" y="57" width="385" height="385"/></clipPath></defs><g clip-path="url(#clip0)" transform="translate(-1492 -57)"><path d="M1766.16 106C1796.85 106 1825.35 115.318 1849 131.276L1876.65 156.375 1876.65 185.186 1877 185.186 1877 346.51 1876.65 346.51 1876.65 351.884 1857.63 370.434C1832.44 390.207 1800.68 402 1766.16 402 1684.33 402 1618 335.738 1618 254 1618 172.262 1684.33 106 1766.16 106Z" fill="#002060" fill-rule="evenodd"/><path d="M1819.89 117C1839.51 117 1858.2 120.938 1875.2 128.059L1877 129.026 1877 205 1773 205 1773 125.009 1777.64 123.327C1790.99 119.215 1805.18 117 1819.89 117Z" fill="#4E95D9" fill-rule="evenodd"/><path d="M1768 125 1768 205 1686 205 1686.75 202.934C1701.01 168.936 1728.01 141.699 1761.72 127.318L1768 125Z" fill="#A6CAEC" fill-rule="evenodd"/><path d="M1684.64 210 1768 210 1768 312 1684.64 312 1681.38 303.121C1677.23 289.815 1675 275.668 1675 261 1675 246.332 1677.23 232.185 1681.38 218.879L1684.64 210Z" fill="#4E95D9" fill-rule="evenodd"/><path d="M1773 210 1877 210 1877 312 1773 312 1773 210Z" fill="#FBE3D6" fill-rule="evenodd"/><path d="M1686 317 1768 317 1768 397 1761.72 394.682C1728.01 380.301 1701.01 353.064 1686.75 319.066L1686 317Z" fill="#FBE3D6" fill-rule="evenodd"/><path d="M1773 317 1877 317 1877 393.837 1875.2 394.815C1858.2 402.017 1839.51 406 1819.89 406 1805.18 406 1790.99 403.76 1777.64 399.601L1773 397.9 1773 317Z" fill="#CAEEFB" fill-rule="evenodd"/><path d="M1644.47 57.0001 1820.48 57.0001C1851.69 57.0001 1877 82.3125 1877 113.537L1877 156.085 1849.29 130.903C1825.6 114.892 1797.04 105.543 1766.29 105.543 1684.3 105.543 1617.83 172.024 1617.83 254.032 1617.83 336.039 1684.3 402.52 1766.29 402.52 1800.88 402.52 1832.7 390.688 1857.94 370.849L1877 352.238 1877 385.463C1877 416.688 1851.69 442 1820.48 442L1630.73 442 1602.04 418.321C1560 376.276 1534 318.191 1534 254.032 1534 173.833 1574.62 103.125 1636.41 61.3716L1644.47 57.0001Z" fill="#00B050" fill-rule="evenodd"/><path d="M1548.38 57.0001 1644 57.0001 1635.97 61.3716C1574.33 103.125 1533.81 173.833 1533.81 254.032 1533.81 318.191 1559.75 376.276 1601.68 418.321L1630.3 442 1548.38 442C1517.24 442 1492 416.688 1492 385.463L1492 113.537C1492 82.3125 1517.24 57.0001 1548.38 57.0001Z" fill="#002060" fill-rule="evenodd"/><path d="M1773 210 1877 210 1877 312 1773 312 1773 210Z" fill="#00B050" fill-rule="evenodd"/><path d="M1877 353 1707 254.5 1877 156Z" fill="#C00000" fill-rule="evenodd"/></g></svg>