<svg width="384" height="384" xmlns="http://www.w3.org/2000/svg" xmlns:xlink="http://www.w3.org/1999/xlink" xml:space="preserve" overflow="hidden"><defs><clipPath id="clip0"><rect x="994" y="797" width="384" height="384"/></clipPath><radialGradient cx="358833" cy="411480" r="545964" fx="358833" fy="411480" gradientUnits="userSpaceOnUse" spreadMethod="pad" id="fill1" gradientTransform="matrix(0.000360892 0 0 0.000360892 1119 845)"><stop offset="0" stop-color="#0070C0"/><stop offset="0.39" stop-color="#0070C0"/><stop offset="0.97" stop-color="#0B3041"/><stop offset="1" stop-color="#0B3041"/></radialGradient></defs><g clip-path="url(#clip0)" transform="translate(-994 -797)"><path d="M1267.36 845C1298.09 845 1326.63 854.35 1350.31 870.361L1378 895.546 1378 977.971 1298.97 977.971 1298.97 1058.02 1378 1058.02 1378 1091.71 1358.96 1110.33C1333.73 1130.17 1301.93 1142 1267.36 1142 1185.42 1142 1119 1075.51 1119 993.5 1119 911.486 1185.42 845 1267.36 845Z" fill="url(#fill1)" fill-rule="evenodd"/><path d="M1146.14 797 1321.64 797C1352.77 797 1378 822.247 1378 853.391L1378 895.828 1350.37 870.711C1326.75 854.742 1298.27 845.417 1267.61 845.417 1185.86 845.417 1119.59 911.725 1119.59 993.52 1119.59 1075.31 1185.86 1141.62 1267.61 1141.62 1302.1 1141.62 1333.83 1129.82 1359 1110.03L1378 1091.47 1378 1124.61C1378 1155.75 1352.77 1181 1321.64 1181L1132.45 1181 1103.84 1157.38C1061.92 1115.45 1036 1057.51 1036 993.52 1036 913.53 1076.51 843.005 1138.12 801.36L1146.14 797Z" fill="#00B050" fill-rule="evenodd"/><path d="M1050.38 797 1146 797 1137.97 801.36C1076.33 843.005 1035.81 913.53 1035.81 993.52 1035.81 1057.51 1061.75 1115.45 1103.68 1157.38L1132.3 1181 1050.38 1181C1019.24 1181 994 1155.75 994 1124.61L994 853.391C994 822.247 1019.24 797 1050.38 797Z" fill="#002060" fill-rule="evenodd"/><path d="M1299 977 1378 977 1378 1060 1299 1060 1299 977Z" fill="#00B050" fill-rule="evenodd"/></g></svg>