<svg width="400" height="384" xmlns="http://www.w3.org/2000/svg" xmlns:xlink="http://www.w3.org/1999/xlink" xml:space="preserve" overflow="hidden"><defs><clipPath id="clip0"><rect x="1800" y="813" width="400" height="384"/></clipPath></defs><g clip-path="url(#clip0)" transform="translate(-1800 -813)"><path d="M1952.47 813 2128.48 813C2159.69 813 2185 838.247 2185 869.39L2185 911.828 2157.29 886.711C2133.6 870.742 2105.04 861.417 2074.29 861.417 1992.3 861.417 1925.83 927.725 1925.83 1009.52 1925.83 1091.31 1992.3 1157.62 2074.29 1157.62 2108.88 1157.62 2140.7 1145.82 2165.94 1126.03L2185 1107.47 2185 1140.61C2185 1171.75 2159.69 1197 2128.48 1197L1938.73 1197 1910.04 1173.38C1868 1131.45 1842 1073.51 1842 1009.52 1842 929.53 1882.62 859.005 1944.41 817.36L1952.47 813Z" fill="#00B050" fill-rule="evenodd"/><path d="M1856.75 813 1953 813 1944.92 817.36C1882.88 859.005 1842.09 929.53 1842.09 1009.52 1842.09 1073.51 1868.19 1131.45 1910.4 1173.38L1939.21 1197 1856.75 1197C1825.41 1197 1800 1171.75 1800 1140.61L1800 869.39C1800 838.247 1825.41 813 1856.75 813Z" fill="#002060" fill-rule="evenodd"/><path d="M2072 881C2001.26 881 1944 938.263 1944 1009 1944 1079.74 2001.26 1137 2072 1137 2142.74 1137 2200 1079.74 2200 1009 2200 938.263 2142.74 881 2072 881ZM2065.26 914.684C2074.69 914.684 2082.11 922.095 2082.11 931.526 2082.11 940.958 2074.69 948.369 2065.26 948.369 2055.83 948.369 2048.42 940.958 2048.42 931.526 2048.42 922.095 2055.83 914.684 2065.26 914.684ZM2105.68 1103.32 2038.32 1103.32 2038.32 1083.11 2061.89 1083.11 2061.89 982.053 2041.68 982.053 2041.68 961.842 2082.11 961.842 2082.11 982.053 2082.11 1083.11 2105.68 1083.11 2105.68 1103.32Z" fill="#002060" fill-rule="evenodd"/></g></svg>