<svg width="384" height="384" xmlns="http://www.w3.org/2000/svg" xmlns:xlink="http://www.w3.org/1999/xlink" xml:space="preserve" overflow="hidden"><defs><clipPath id="clip0"><rect x="2795" y="91" width="384" height="384"/></clipPath></defs><g clip-path="url(#clip0)" transform="translate(-2795 -91)"><path d="M3068.16 139C3098.85 139 3127.35 148.35 3151 164.361L3178.65 189.546 3178.65 218.453 3179 218.453 3179 380.323 3178.65 380.323 3178.65 385.715 3159.63 404.327C3134.44 424.167 3102.68 436 3068.16 436 2986.33 436 2920 369.514 2920 287.5 2920 205.486 2986.33 139 3068.16 139Z" fill="#002060" fill-rule="evenodd"/><path d="M3122.44 150C3141.87 150 3160.38 153.938 3177.22 161.059L3179 162.026 3179 238 3076 238 3076 158.009 3080.59 156.327C3093.81 152.215 3107.87 150 3122.44 150Z" fill="#4E95D9" fill-rule="evenodd"/><path d="M3070 159 3070 238 2988 238 2988.75 235.96C3003.01 202.386 3030.01 175.49 3063.72 161.289L3070 159Z" fill="#A6CAEC" fill-rule="evenodd"/><path d="M2987.53 244 3070 244 3070 346 2987.53 346 2984.31 337.121C2980.21 323.815 2978 309.668 2978 295 2978 280.332 2980.21 266.185 2984.31 252.879L2987.53 244Z" fill="#4E95D9" fill-rule="evenodd"/><path d="M3076 244 3179 244 3179 346 3076 346 3076 244Z" fill="#FBE3D6" fill-rule="evenodd"/><path d="M2988 351 3070 351 3070 430 3063.72 427.711C3030.01 413.51 3003.01 386.614 2988.75 353.04L2988 351Z" fill="#FBE3D6" fill-rule="evenodd"/><path d="M3076 351 3179 351 3179 426.974 3177.22 427.94C3160.38 435.062 3141.87 439 3122.44 439 3107.87 439 3093.81 436.785 3080.59 432.673L3076 430.991 3076 351Z" fill="#CAEEFB" fill-rule="evenodd"/><path d="M2947.14 91.0001 3122.64 91.0001C3153.77 91.0001 3179 116.247 3179 147.39L3179 189.828 3151.37 164.711C3127.75 148.742 3099.27 139.417 3068.61 139.417 2986.86 139.417 2920.59 205.725 2920.59 287.52 2920.59 369.314 2986.86 435.622 3068.61 435.622 3103.1 435.622 3134.83 423.821 3160 404.034L3179 385.471 3179 418.61C3179 449.753 3153.77 475 3122.64 475L2933.45 475 2904.84 451.382C2862.92 409.446 2837 351.512 2837 287.52 2837 207.53 2877.51 137.005 2939.12 95.3602L2947.14 91.0001Z" fill="#00B050" fill-rule="evenodd"/><path d="M2851.38 91.0001 2947 91.0001 2938.97 95.3602C2877.33 137.005 2836.81 207.53 2836.81 287.52 2836.81 351.512 2862.75 409.446 2904.68 451.382L2933.3 475 2851.38 475C2820.24 475 2795 449.753 2795 418.61L2795 147.39C2795 116.247 2820.24 91.0001 2851.38 91.0001Z" fill="#002060" fill-rule="evenodd"/><path d="M3076 244 3179 244 3179 346 3076 346 3076 244Z" fill="#00B050" fill-rule="evenodd"/><path d="M3179 386 3009 288 3179 190Z" fill="#FFC000" fill-rule="evenodd"/></g></svg>