<svg width="387" height="385" xmlns="http://www.w3.org/2000/svg" xmlns:xlink="http://www.w3.org/1999/xlink" xml:space="preserve" overflow="hidden"><defs><clipPath id="clip0"><rect x="1875" y="822" width="387" height="385"/></clipPath></defs><g clip-path="url(#clip0)" transform="translate(-1875 -822)"><path d="M1931.54 823 2027.42 823 2203.46 823C2234.69 823 2260 848.247 2260 879.39L2260 903.231 2260 903.232 2260 1132.95 2260 1132.95 2260 1150.61C2260 1181.75 2234.69 1207 2203.46 1207L2013.68 1207 1931.54 1207C1900.31 1207 1875 1181.75 1875 1150.61L1875 879.39C1875 848.247 1900.31 823 1931.54 823Z" fill="#002060" fill-rule="evenodd"/><path d="M2030.14 822 2205.64 822C2236.77 822 2262 847.247 2262 878.39L2262 902.23 2262 902.232 2262 1131.95 2262 1131.95 2262 1149.61C2262 1180.75 2236.77 1206 2205.64 1206L2016.45 1206 1987.84 1182.38C1945.92 1140.45 1920 1082.51 1920 1018.52 1920 938.529 1960.51 868.005 2022.12 826.36Z" fill="#00B050" fill-rule="evenodd"/><path d="M2200.25 868.5C2210.83 868.5 2218.51 870.543 2223.31 874.63 2228.1 878.716 2230.5 884.018 2230.5 890.534 2230.5 896.277 2228.9 900.833 2225.71 904.201 2222.51 907.57 2218.54 909.254 2213.8 909.254 2209.39 909.254 2205.76 907.873 2202.89 905.112 2200.03 902.351 2198.59 899.038 2198.59 895.172 2198.59 892.411 2199.5 889.484 2201.32 886.392 2203.14 883.3 2204.05 881.201 2204.05 880.097 2204.05 878.882 2203.63 877.888 2202.81 877.115 2201.98 876.342 2200.91 875.955 2199.58 875.955 2193.08 875.955 2186.41 879.986 2179.58 888.049 2168.34 900.971 2159.3 921.402 2152.47 949.344L2176.44 949.344 2170.65 968.727 2147.34 968.727 2128 1045.26C2118.96 1081.38 2110.14 1107.55 2101.55 1123.79 2092.95 1140.02 2082.89 1152.03 2071.37 1159.82 2059.86 1167.61 2046.66 1171.5 2031.78 1171.5 2022.41 1171.5 2015.52 1169.71 2011.11 1166.12 2006.7 1162.53 2004.5 1158.3 2004.5 1153.44 2004.5 1148.91 2006.32 1144.99 2009.96 1141.68 2013.59 1138.37 2018.39 1136.71 2024.34 1136.71 2029.3 1136.71 2033.1 1137.98 2035.75 1140.52 2038.39 1143.06 2039.71 1146.26 2039.71 1150.13 2039.71 1153.66 2038.89 1156.29 2037.23 1158 2035.58 1159.71 2034.75 1160.84 2034.75 1161.39L2035.58 1162.55C2036.24 1163.11 2037.01 1163.38 2037.9 1163.38 2041.2 1163.38 2044.01 1162.33 2046.33 1160.23 2052.17 1155.04 2056.52 1148.75 2059.39 1141.35 2061.37 1136.27 2065.17 1122.85 2070.8 1101.09L2104.52 968.727 2081.54 968.727 2087 949.344C2095.26 949.455 2101.27 948.406 2105.02 946.197 2108.77 943.988 2112.73 939.018 2116.92 931.287 2129.05 908.867 2141.83 892.798 2155.28 883.079 2168.72 873.36 2183.71 868.5 2200.25 868.5Z" stroke="#FFFFFF" stroke-width="6.875" stroke-miterlimit="8" fill="#FFFFFF" fill-rule="evenodd"/></g></svg>