<svg width="384" height="384" xmlns="http://www.w3.org/2000/svg" xmlns:xlink="http://www.w3.org/1999/xlink" xml:space="preserve" overflow="hidden"><defs><clipPath id="clip0"><rect x="680" y="1515" width="384" height="384"/></clipPath></defs><g clip-path="url(#clip0)" transform="translate(-680 -1515)"><path d="M736.39 1515 832.019 1515 1007.61 1515C1038.75 1515 1064 1540.25 1064 1571.39L1064 1595.23 1064 1595.23 1064 1824.95 1064 1824.95 1064 1842.61C1064 1873.75 1038.75 1899 1007.61 1899L818.315 1899 736.39 1899C705.247 1899 680 1873.75 680 1842.61L680 1571.39C680 1540.25 705.247 1515 736.39 1515Z" fill="#002060" fill-rule="evenodd"/><path d="M725.5 1571.5 840.5 1611.81 840.5 1623.54 840.5 1640.5 840.5 1652.46 725.5 1695.5 725.5 1663.39 815.152 1632.32 725.5 1603.38 725.5 1571.5Z" stroke="#FFFFFF" stroke-width="6.875" stroke-linejoin="round" stroke-miterlimit="10" fill="#FFFFFF" fill-rule="evenodd"/><path d="M1022.5 1569.5 1022.5 1604.21 924.272 1635.72 1022.5 1669.54 1022.5 1704.5 896.5 1657.64 896.5 1644.62 896.5 1626.15 896.5 1613.38 1022.5 1569.5Z" stroke="#FFFFFF" stroke-width="6.875" stroke-linejoin="round" stroke-miterlimit="10" fill="#FFFFFF" fill-rule="evenodd"/><path d="M720.5 1741.5 840.5 1741.5 840.5 1774.5 720.5 1774.5 720.5 1741.5Z" stroke="#FFFFFF" stroke-width="6.875" stroke-linejoin="round" stroke-miterlimit="10" fill="#FFFFFF" fill-rule="evenodd"/><path d="M720.5 1796.5 840.5 1796.5 840.5 1830.5 720.5 1830.5 720.5 1796.5Z" stroke="#FFFFFF" stroke-width="6.875" stroke-linejoin="round" stroke-miterlimit="10" fill="#FFFFFF" fill-rule="evenodd"/><path d="M896.5 1747.5 1016.5 1747.5 1016.5 1780.5 896.5 1780.5 896.5 1747.5Z" stroke="#FFFFFF" stroke-width="6.875" stroke-linejoin="round" stroke-miterlimit="10" fill="#FFFFFF" fill-rule="evenodd"/><path d="M896.5 1802.5 1016.5 1802.5 1016.5 1836.5 896.5 1836.5 896.5 1802.5Z" stroke="#FFFFFF" stroke-width="6.875" stroke-linejoin="round" stroke-miterlimit="10" fill="#FFFFFF" fill-rule="evenodd"/><path d="M982.5 1721.5 923.5 1860.5" stroke="#FFFFFF" stroke-width="6.875" stroke-miterlimit="8" fill="none" fill-rule="evenodd"/></g></svg>