<svg width="385" height="384" xmlns="http://www.w3.org/2000/svg" xmlns:xlink="http://www.w3.org/1999/xlink" xml:space="preserve" overflow="hidden"><defs><clipPath id="clip0"><rect x="3403" y="2195" width="385" height="384"/></clipPath></defs><g clip-path="url(#clip0)" transform="translate(-3403 -2195)"><path d="M3459.54 2195 3555.42 2195 3731.46 2195C3762.69 2195 3788 2220.25 3788 2251.39L3788 2275.23 3788 2275.23 3788 2504.95 3788 2504.95 3788 2522.61C3788 2553.75 3762.69 2579 3731.46 2579L3541.68 2579 3459.54 2579C3428.31 2579 3403 2553.75 3403 2522.61L3403 2251.39C3403 2220.25 3428.31 2195 3459.54 2195Z" fill="#00B050" fill-rule="evenodd"/><rect x="3440" y="2300" width="311" height="165" fill="#002060"/><rect x="3515" y="2233" width="166" height="298" fill="#002060"/><rect x="3517" y="2301" width="164" height="165" fill="#00B050"/></g></svg>