<svg width="385" height="385" xmlns="http://www.w3.org/2000/svg" xmlns:xlink="http://www.w3.org/1999/xlink" xml:space="preserve" overflow="hidden"><g transform="translate(-2830 -2478)"><path d="M2886.54 2478 2982.42 2478 3158.46 2478C3189.69 2478 3215 2503.31 3215 2534.54L3215 2558.44 3215 2558.44 3215 2788.75 3215 2788.76 3215 2806.46C3215 2837.69 3189.69 2863 3158.46 2863L2968.68 2863 2886.54 2863C2855.31 2863 2830 2837.69 2830 2806.46L2830 2534.54C2830 2503.31 2855.31 2478 2886.54 2478Z" fill="#002060" fill-rule="evenodd"/><path d="M2871 2798 2977.15 2733 3170 2733 3063.85 2798Z" fill="#FFFFFF" fill-rule="evenodd"/><path d="M2874 2797 2934.75 2528 3117 2528 3056.25 2797Z" fill="#00B050" fill-rule="evenodd"/></g></svg>