<svg width="385" height="385" xmlns="http://www.w3.org/2000/svg" xmlns:xlink="http://www.w3.org/1999/xlink" xml:space="preserve" overflow="hidden"><defs><clipPath id="clip0"><rect x="2124" y="57" width="385" height="385"/></clipPath></defs><g clip-path="url(#clip0)" transform="translate(-2124 -57)"><path d="M2398.16 106C2428.85 106 2457.35 115.318 2481 131.276L2508.65 156.375 2508.65 185.186 2509 185.186 2509 346.51 2508.65 346.51 2508.65 351.884 2489.63 370.434C2464.44 390.207 2432.68 402 2398.16 402 2316.33 402 2250 335.738 2250 254 2250 172.262 2316.33 106 2398.16 106Z" fill="#002060" fill-rule="evenodd"/><path d="M2451.89 117C2471.51 117 2490.2 120.938 2507.2 128.059L2509 129.026 2509 205 2405 205 2405 125.009 2409.64 123.327C2422.99 119.215 2437.18 117 2451.89 117Z" fill="#4E95D9" fill-rule="evenodd"/><path d="M2400 125 2400 205 2318 205 2318.75 202.934C2333.01 168.936 2360.01 141.699 2393.72 127.318L2400 125Z" fill="#A6CAEC" fill-rule="evenodd"/><path d="M2316.64 210 2400 210 2400 312 2316.64 312 2313.38 303.121C2309.23 289.815 2307 275.668 2307 261 2307 246.332 2309.23 232.185 2313.38 218.879L2316.64 210Z" fill="#4E95D9" fill-rule="evenodd"/><path d="M2405 210 2509 210 2509 312 2405 312 2405 210Z" fill="#FBE3D6" fill-rule="evenodd"/><path d="M2318 317 2400 317 2400 397 2393.72 394.682C2360.01 380.301 2333.01 353.064 2318.75 319.066L2318 317Z" fill="#FBE3D6" fill-rule="evenodd"/><path d="M2405 317 2509 317 2509 393.837 2507.2 394.815C2490.2 402.017 2471.51 406 2451.89 406 2437.18 406 2422.99 403.76 2409.64 399.601L2405 397.9 2405 317Z" fill="#CAEEFB" fill-rule="evenodd"/><path d="M2276.47 57.0001 2452.48 57.0001C2483.69 57.0001 2509 82.3125 2509 113.537L2509 156.085 2481.29 130.903C2457.6 114.892 2429.04 105.543 2398.29 105.543 2316.3 105.543 2249.83 172.024 2249.83 254.032 2249.83 336.039 2316.3 402.52 2398.29 402.52 2432.88 402.52 2464.7 390.688 2489.94 370.849L2509 352.238 2509 385.463C2509 416.688 2483.69 442 2452.48 442L2262.73 442 2234.04 418.321C2192 376.276 2166 318.191 2166 254.032 2166 173.833 2206.62 103.125 2268.41 61.3716L2276.47 57.0001Z" fill="#00B050" fill-rule="evenodd"/><path d="M2180.38 57.0001 2276 57.0001 2267.97 61.3716C2206.33 103.125 2165.81 173.833 2165.81 254.032 2165.81 318.191 2191.75 376.276 2233.68 418.321L2262.3 442 2180.38 442C2149.24 442 2124 416.688 2124 385.463L2124 113.537C2124 82.3125 2149.24 57.0001 2180.38 57.0001Z" fill="#002060" fill-rule="evenodd"/><path d="M2405 210 2509 210 2509 312 2405 312 2405 210Z" fill="#00B050" fill-rule="evenodd"/><path d="M2509 353 2339 254.5 2509 156Z" fill="#002060" fill-rule="evenodd"/></g></svg>