<svg width="387" height="386" xmlns="http://www.w3.org/2000/svg" xmlns:xlink="http://www.w3.org/1999/xlink" xml:space="preserve" overflow="hidden"><defs><clipPath id="clip0"><rect x="3482" y="796" width="387" height="386"/></clipPath></defs><g clip-path="url(#clip0)" transform="translate(-3482 -796)"><path d="M3538.39 797 3634.02 797 3809.61 797C3840.75 797 3866 822.313 3866 853.537L3866 877.44 3866 877.442 3866 1107.75 3866 1107.76 3866 1125.46C3866 1156.69 3840.75 1182 3809.61 1182L3620.31 1182 3538.39 1182C3507.25 1182 3482 1156.69 3482 1125.46L3482 853.537C3482 822.313 3507.25 797 3538.39 797Z" fill="#002060" fill-rule="evenodd"/><path d="M3637.14 796 3812.64 796C3843.77 796 3869 821.312 3869 852.537L3869 876.44 3869 876.441 3869 1106.75 3869 1106.76 3869 1124.46C3869 1155.69 3843.77 1181 3812.64 1181L3623.45 1181 3594.84 1157.32C3552.92 1115.28 3527 1057.19 3527 993.032 3527 912.833 3567.51 842.125 3629.12 800.372Z" fill="#00B050" fill-rule="evenodd"/><path d="M3689 847C3689 847 3603 968.347 3603 1022.82 3603 1070.39 3641.53 1109 3689 1109 3736.47 1109 3775 1070.39 3775 1022.82 3775 968.003 3689 847 3689 847Z" fill="#FFFFFF" fill-rule="evenodd"/></g></svg>