<svg width="384" height="384" xmlns="http://www.w3.org/2000/svg" xmlns:xlink="http://www.w3.org/1999/xlink" xml:space="preserve" overflow="hidden"><defs><clipPath id="clip0"><rect x="1673" y="346" width="384" height="384"/></clipPath></defs><g clip-path="url(#clip0)" transform="translate(-1673 -346)"><path d="M1729.39 346 1825.02 346 2000.61 346C2031.75 346 2057 371.247 2057 402.391L2057 426.231 2057 426.233 2057 655.946 2057 655.948 2057 673.61C2057 704.753 2031.75 730 2000.61 730L1811.31 730 1729.39 730C1698.25 730 1673 704.753 1673 673.61L1673 402.391C1673 371.247 1698.25 346 1729.39 346Z" fill="#002060" fill-rule="evenodd"/><rect x="1754.5" y="429.5" width="117" height="116" stroke="#FFFFFF" stroke-width="20.625" stroke-miterlimit="8" fill="#FF0000"/><rect x="1871.5" y="429.5" width="118" height="116" stroke="#FFFFFF" stroke-width="20.625" stroke-miterlimit="8" fill="#FFC000"/><rect x="1754.5" y="545.5" width="117" height="115" stroke="#FFFFFF" stroke-width="20.625" stroke-miterlimit="8" fill="#4E95D9"/><rect x="1871.5" y="545.5" width="118" height="115" stroke="#FFFFFF" stroke-width="20.625" stroke-miterlimit="8" fill="#92D050"/></g></svg>