<svg width="387" height="386" xmlns="http://www.w3.org/2000/svg" xmlns:xlink="http://www.w3.org/1999/xlink" xml:space="preserve" overflow="hidden"><defs><clipPath id="clip0"><rect x="789" y="852" width="387" height="386"/></clipPath></defs><g clip-path="url(#clip0)" transform="translate(-789 -852)"><path d="M845.39 853 941.019 853 1116.61 853C1147.75 853 1173 878.312 1173 909.537L1173 933.439 1173 933.441 1173 1163.75 1173 1163.76 1173 1181.46C1173 1212.69 1147.75 1238 1116.61 1238L927.315 1238 845.39 1238C814.247 1238 789 1212.69 789 1181.46L789 909.537C789 878.312 814.247 853 845.39 853Z" fill="#002060" fill-rule="evenodd"/><path d="M944.144 852 1119.64 852C1150.77 852 1176 877.313 1176 908.537L1176 932.44 1176 932.442 1176 1162.75 1176 1162.76 1176 1180.46C1176 1211.69 1150.77 1237 1119.64 1237L930.447 1237 901.837 1213.32C859.924 1171.28 834 1113.19 834 1049.03 834 968.833 874.506 898.125 936.115 856.372Z" fill="#00B050" fill-rule="evenodd"/><path d="M1173 1157 979.246 1157C912.284 1157 858 1102.72 858 1035.75L858 1035.75C858 968.791 912.284 914.508 979.246 914.508L1050.48 914.508 1050.48 883 1138.19 948.758 1050.48 1014.51 1050.48 983.008 979.246 983.008C950.115 983.008 926.5 1006.62 926.5 1035.75L926.5 1035.75C926.5 1064.88 950.115 1088.5 979.246 1088.5L1173 1088.5Z" fill="#FFFFFF" fill-rule="evenodd"/></g></svg>