<svg width="384" height="384" xmlns="http://www.w3.org/2000/svg" xmlns:xlink="http://www.w3.org/1999/xlink" xml:space="preserve" overflow="hidden"><defs><clipPath id="clip0"><rect x="199" y="1536" width="384" height="384"/></clipPath></defs><g clip-path="url(#clip0)" transform="translate(-199 -1536)"><path d="M351.144 1536 526.64 1536C557.767 1536 583 1561.25 583 1592.39L583 1616.23 583 1616.23 583 1845.95 583 1845.95 583 1863.61C583 1894.75 557.767 1920 526.64 1920L337.447 1920 308.837 1896.38C266.924 1854.45 241 1796.51 241 1732.52 241 1652.53 281.506 1582 343.115 1540.36Z" fill="#00B050" fill-rule="evenodd"/><path d="M255.383 1536 351 1536 342.968 1540.36C281.334 1582 240.811 1652.53 240.811 1732.52 240.811 1796.51 266.745 1854.45 308.676 1896.38L337.297 1920 255.383 1920C224.243 1920 199 1894.75 199 1863.61L199 1592.39C199 1561.25 224.243 1536 255.383 1536Z" fill="#002060" fill-rule="evenodd"/><path d="M336.445 1753.44 268 1753.44 268 1773 346.222 1773C351.6 1773 356 1768.6 356 1763.22L356 1685 336.445 1685 336.445 1753.44Z" fill="#FFFFFF" fill-rule="evenodd"/><path d="M230 1752C230 1692.35 278.353 1644 338 1644 397.647 1644 446 1692.35 446 1752 446 1811.65 397.647 1860 338 1860 278.353 1860 230 1811.65 230 1752Z" stroke="#FFFFFF" stroke-width="27.5" stroke-miterlimit="8" fill="none" fill-rule="evenodd"/><path d="M482.199 1557 505.801 1557 505.801 1614.85 564 1614.85 564 1638.15 505.801 1638.15 505.801 1696 482.199 1696 482.199 1638.15 424 1638.15 424 1614.85 482.199 1614.85 482.199 1557Z" stroke="#FFFFFF" stroke-width="13.75" stroke-miterlimit="8" fill="#FFFFFF" fill-rule="evenodd"/></g></svg>