<svg width="385" height="384" xmlns="http://www.w3.org/2000/svg" xmlns:xlink="http://www.w3.org/1999/xlink" xml:space="preserve" overflow="hidden"><defs><radialGradient cx="358833" cy="410094" r="544921" gradientUnits="userSpaceOnUse" spreadMethod="pad" id="fill0" gradientTransform="matrix(0.000360892 0 0 0.000360892 2286 851)"><stop offset="0" stop-color="#0070C0"/><stop offset="0.39" stop-color="#0070C0"/><stop offset="0.97" stop-color="#0B3041"/><stop offset="1" stop-color="#0B3041"/></radialGradient></defs><g transform="translate(-2161 -803)"><path d="M2434.36 851C2465.09 851 2493.63 860.318 2517.31 876.276L2545 901.376 2545 983.523 2465.97 983.523 2465.97 1063.31 2545 1063.31 2545 1096.88 2525.96 1115.43C2500.73 1135.21 2468.93 1147 2434.36 1147 2352.42 1147 2286 1080.74 2286 999 2286 917.262 2352.42 851 2434.36 851Z" fill="url(#fill0)" fill-rule="evenodd"/><path d="M2313 856 2388 856 2388 1152 2313 1152 2313 856Z" fill="#FFC000" fill-rule="evenodd"/><path d="M2390 851 2469 851 2469 1158 2390 1158 2390 851Z" fill="#FF0000" fill-rule="evenodd"/><path d="M2313.14 803 2488.64 803C2519.77 803 2545 828.247 2545 859.39L2545 901.828 2517.37 876.711C2493.75 860.742 2465.27 851.417 2434.61 851.417 2352.86 851.417 2286.59 917.725 2286.59 999.52 2286.59 1081.31 2352.86 1147.62 2434.61 1147.62 2469.1 1147.62 2500.83 1135.82 2526 1116.03L2545 1097.47 2545 1130.61C2545 1161.75 2519.77 1187 2488.64 1187L2299.45 1187 2270.84 1163.38C2228.92 1121.45 2203 1063.51 2203 999.52 2203 919.53 2243.51 849.005 2305.12 807.36L2313.14 803Z" fill="#00B050" fill-rule="evenodd"/><path d="M2217.38 803 2313 803 2304.97 807.36C2243.33 849.005 2202.81 919.53 2202.81 999.52 2202.81 1063.51 2228.75 1121.45 2270.68 1163.38L2299.3 1187 2217.38 1187C2186.24 1187 2161 1161.75 2161 1130.61L2161 859.39C2161 828.247 2186.24 803 2217.38 803Z" fill="#002060" fill-rule="evenodd"/><path d="M2467 983 2546 983 2546 1065 2467 1065 2467 983Z" fill="#00B050" fill-rule="evenodd"/></g></svg>