<svg width="386" height="384" xmlns="http://www.w3.org/2000/svg" xmlns:xlink="http://www.w3.org/1999/xlink" xml:space="preserve" overflow="hidden"><defs><clipPath id="clip0"><rect x="1391" y="784" width="386" height="384"/></clipPath></defs><g clip-path="url(#clip0)" transform="translate(-1391 -784)"><path d="M1544.47 784 1720.47 784C1751.69 784 1777 809.247 1777 840.391L1777 864.231 1777 864.233 1777 1093.95 1777 1093.95 1777 1111.61C1777 1142.75 1751.69 1168 1720.47 1168L1530.73 1168 1502.04 1144.38C1460 1102.45 1434 1044.51 1434 980.52 1434 900.53 1474.62 830.005 1536.41 788.36Z" fill="#00B050" fill-rule="evenodd"/><path d="M1449.38 784 1545 784 1536.97 788.36C1475.33 830.005 1434.81 900.53 1434.81 980.52 1434.81 1044.51 1460.75 1102.45 1502.68 1144.38L1531.3 1168 1449.38 1168C1418.24 1168 1393 1142.75 1393 1111.61L1393 840.391C1393 809.247 1418.24 784 1449.38 784Z" fill="#002060" fill-rule="evenodd"/><path d="M1511.62 826 1511.62 879.963 1391 879.963 1391 949.036 1511.62 949.036 1511.62 1003 1615 914.5Z" fill="#FFFFFF" fill-rule="evenodd"/><path d="M1632.62 965 1632.62 1018.96 1512 1018.96 1512 1088.04 1632.62 1088.04 1632.62 1142 1736 1053.5Z" fill="#FFFFFF" fill-rule="evenodd"/></g></svg>