<svg width="385" height="384" xmlns="http://www.w3.org/2000/svg" xmlns:xlink="http://www.w3.org/1999/xlink" xml:space="preserve" overflow="hidden"><defs><clipPath id="clip0"><rect x="2474" y="819" width="385" height="384"/></clipPath></defs><g clip-path="url(#clip0)" transform="translate(-2474 -819)"><path d="M2626.14 819 2801.64 819C2832.77 819 2858 844.247 2858 875.391L2858 917.828 2830.37 892.711C2806.75 876.742 2778.27 867.417 2747.61 867.417 2665.86 867.417 2599.59 933.725 2599.59 1015.52 2599.59 1097.31 2665.86 1163.62 2747.61 1163.62 2782.1 1163.62 2813.83 1151.82 2839 1132.03L2858 1113.47 2858 1146.61C2858 1177.75 2832.77 1203 2801.64 1203L2612.45 1203 2583.84 1179.38C2541.92 1137.45 2516 1079.51 2516 1015.52 2516 935.53 2556.51 865.005 2618.12 823.36L2626.14 819Z" fill="#00B050" fill-rule="evenodd"/><path d="M2530.38 819 2626 819 2617.97 823.36C2556.33 865.005 2515.81 935.53 2515.81 1015.52 2515.81 1079.51 2541.75 1137.45 2583.68 1179.38L2612.3 1203 2530.38 1203C2499.24 1203 2474 1177.75 2474 1146.61L2474 875.391C2474 844.247 2499.24 819 2530.38 819Z" fill="#002060" fill-rule="evenodd"/><path d="M2748.36 868C2779.09 868 2807.63 877.318 2831.31 893.276L2859 918.375 2859 985.263 2859 1000.52 2859 1080.31 2859 1090.5 2859 1113.88 2839.96 1132.43C2814.73 1152.21 2782.93 1164 2748.36 1164 2666.42 1164 2600 1097.74 2600 1016 2600 934.262 2666.42 868 2748.36 868Z" fill="#FFFFFF" fill-rule="evenodd"/><path d="M2596.65 1149.26 2645.79 1116.93C2652.48 1112.54 2655.98 1105.45 2656.15 1098.01L2673.45 1086.63C2687.12 1102.7 2706.43 1114.5 2728.59 1119.08 2782.37 1130.18 2835.44 1095.27 2846.55 1041.49 2857.65 987.723 2822.73 934.645 2768.96 923.544 2715.19 912.443 2662.11 947.355 2651.01 1001.13 2646.44 1023.29 2649.69 1045.37 2658.97 1064.61L2641.67 1075.99C2634.77 1073.21 2626.87 1073.61 2620.19 1078.01L2571.04 1110.34C2565.54 1113.96 2562.05 1119.35 2560.83 1125.22 2559.62 1131.08 2560.69 1137.42 2564.31 1142.93 2571.69 1153.28 2586.03 1156.24 2596.65 1149.26ZM2670.96 1004.91C2679.84 961.888 2722.3 933.958 2765.32 942.839 2808.34 951.72 2836.27 994.182 2827.39 1037.2 2818.5 1080.22 2776.04 1108.15 2733.02 1099.27 2690.01 1090.39 2662.08 1047.92 2670.96 1004.91Z" stroke="#000000" stroke-width="10.3125" stroke-miterlimit="8" fill-rule="evenodd"/></g></svg>