<svg width="384" height="384" xmlns="http://www.w3.org/2000/svg" xmlns:xlink="http://www.w3.org/1999/xlink" xml:space="preserve" overflow="hidden"><defs><clipPath id="clip0"><rect x="669" y="1536" width="384" height="384"/></clipPath></defs><g clip-path="url(#clip0)" transform="translate(-669 -1536)"><path d="M820.466 1536 996.475 1536C1027.69 1536 1053 1561.25 1053 1592.39L1053 1616.23 1053 1616.23 1053 1845.95 1053 1845.95 1053 1863.61C1053 1894.75 1027.69 1920 996.475 1920L806.729 1920 778.036 1896.38C736 1854.45 710 1796.51 710 1732.52 710 1652.53 750.625 1582 812.414 1540.36Z" fill="#00B050" fill-rule="evenodd"/><path d="M725.383 1536 821 1536 812.968 1540.36C751.334 1582 710.811 1652.53 710.811 1732.52 710.811 1796.51 736.745 1854.45 778.676 1896.38L807.297 1920 725.383 1920C694.243 1920 669 1894.75 669 1863.61L669 1592.39C669 1561.25 694.243 1536 725.383 1536Z" fill="#002060" fill-rule="evenodd"/><path d="M782.488 1652.53 1012.51 1652.53 1012.51 1712.51 782.488 1712.51ZM782.488 1742.49 1012.51 1742.49 1012.51 1802.47 782.488 1802.47Z" fill="#FFFFFF" fill-rule="evenodd"/></g></svg>