<svg width="384" height="385" xmlns="http://www.w3.org/2000/svg" xmlns:xlink="http://www.w3.org/1999/xlink" xml:space="preserve" overflow="hidden"><defs><clipPath id="clip0"><rect x="2038" y="1557" width="384" height="385"/></clipPath></defs><g clip-path="url(#clip0)" transform="translate(-2038 -1557)"><path d="M2094.39 1558 2190.02 1558 2365.61 1558C2396.75 1558 2422 1583.25 2422 1614.39L2422 1638.23 2422 1638.23 2422 1867.95 2422 1867.95 2422 1885.61C2422 1916.75 2396.75 1942 2365.61 1942L2176.32 1942 2094.39 1942C2063.25 1942 2038 1916.75 2038 1885.61L2038 1614.39C2038 1583.25 2063.25 1558 2094.39 1558Z" fill="#002060" fill-rule="evenodd"/><path d="M2190.14 1557 2365.64 1557C2396.77 1557 2422 1582.25 2422 1613.39L2422 1637.23 2422 1637.23 2422 1866.95 2422 1866.95 2422 1884.61C2422 1915.75 2396.77 1941 2365.64 1941L2176.45 1941 2147.84 1917.38C2105.92 1875.45 2080 1817.51 2080 1753.52 2080 1673.53 2120.51 1603 2182.12 1561.36Z" fill="#00B050" fill-rule="evenodd"/><path d="M2120 1671.5C2120 1636.98 2147.76 1609 2182 1609 2216.24 1609 2244 1636.98 2244 1671.5 2244 1706.02 2216.24 1734 2182 1734 2147.76 1734 2120 1706.02 2120 1671.5Z" stroke="#FFFFFF" stroke-width="13.75" stroke-miterlimit="8" fill="#FF0000" fill-rule="evenodd"/><path d="M2267 1810.5C2267 1778.19 2293.19 1752 2325.5 1752 2357.81 1752 2384 1778.19 2384 1810.5 2384 1842.81 2357.81 1869 2325.5 1869 2293.19 1869 2267 1842.81 2267 1810.5Z" stroke="#FFFFFF" stroke-width="13.75" stroke-miterlimit="8" fill="#FF0000" fill-rule="evenodd"/><path d="M2278 1671C2278 1645.04 2299.27 1624 2325.5 1624 2351.73 1624 2373 1645.04 2373 1671 2373 1696.96 2351.73 1718 2325.5 1718 2299.27 1718 2278 1696.96 2278 1671Z" stroke="#FFFFFF" stroke-width="13.75" stroke-miterlimit="8" fill="#92D050" fill-rule="evenodd"/><path d="M2131 1822C2131 1796.04 2152.04 1775 2178 1775 2203.96 1775 2225 1796.04 2225 1822 2225 1847.96 2203.96 1869 2178 1869 2152.04 1869 2131 1847.96 2131 1822Z" stroke="#FFFFFF" stroke-width="13.75" stroke-miterlimit="8" fill="#92D050" fill-rule="evenodd"/></g></svg>