<svg width="384" height="384" xmlns="http://www.w3.org/2000/svg" xmlns:xlink="http://www.w3.org/1999/xlink" xml:space="preserve" overflow="hidden"><defs><clipPath id="clip0"><rect x="1906" y="801" width="384" height="384"/></clipPath></defs><g clip-path="url(#clip0)" transform="translate(-1906 -801)"><path d="M2057.47 801 2233.47 801C2264.69 801 2290 826.247 2290 857.39L2290 881.231 2290 881.232 2290 1110.95 2290 1110.95 2290 1128.61C2290 1159.75 2264.69 1185 2233.47 1185L2043.73 1185 2015.04 1161.38C1973 1119.45 1947 1061.51 1947 997.52 1947 917.53 1987.62 847.005 2049.41 805.36Z" fill="#00B050" fill-rule="evenodd"/><path d="M1962.38 801 2058 801 2049.97 805.36C1988.33 847.005 1947.81 917.53 1947.81 997.52 1947.81 1061.51 1973.75 1119.45 2015.68 1161.38L2044.3 1185 1962.38 1185C1931.24 1185 1906 1159.75 1906 1128.61L1906 857.39C1906 826.247 1931.24 801 1962.38 801Z" fill="#002060" fill-rule="evenodd"/><path d="M2021 916 2021 1001.69 2070.06 1001.69C2069.32 1028.15 2047.58 1049.23 2021 1049.24L2021 1086C2067.96 1086.01 2106.25 1048.47 2107 1001.69L2107 1001.69 2107 916Z" fill="#FFFFFF" fill-rule="evenodd"/><path d="M2150 916 2150 1001.69 2198.49 1001.69C2197.76 1028.15 2176.27 1049.23 2150 1049.24L2150 1086C2196.42 1086.01 2234.26 1048.47 2235 1001.69L2235 1001.69 2235 916Z" fill="#FFFFFF" fill-rule="evenodd"/></g></svg>