<svg width="384" height="387" xmlns="http://www.w3.org/2000/svg" xmlns:xlink="http://www.w3.org/1999/xlink" xml:space="preserve" overflow="hidden"><g transform="translate(-3069 -708)"><path d="M3220.47 711 3396.47 711C3427.69 711 3453 736.247 3453 767.39L3453 791.23 3453 791.232 3453 1020.95 3453 1020.95 3453 1038.61C3453 1069.75 3427.69 1095 3396.47 1095L3206.73 1095 3178.04 1071.38C3136 1029.45 3110 971.512 3110 907.52 3110 827.529 3150.62 757.005 3212.41 715.36Z" fill="#00B050" fill-rule="evenodd"/><path d="M3125.38 711 3221 711 3212.97 715.36C3151.33 757.005 3110.81 827.529 3110.81 907.52 3110.81 971.512 3136.75 1029.45 3178.68 1071.38L3207.3 1095 3125.38 1095C3094.24 1095 3069 1069.75 3069 1038.61L3069 767.39C3069 736.247 3094.24 711 3125.38 711Z" fill="#002060" fill-rule="evenodd"/><path d="M3277 829.154 3223.04 829.154 3223.04 708 3153.96 708 3153.96 829.154 3100 829.154 3188.5 933Z" fill="#FFFFFF" fill-rule="evenodd"/><path d="M3239 972.385 3292.96 972.385 3292.96 1093 3362.04 1093 3362.04 972.385 3416 972.385 3327.5 869Z" fill="#FFFFFF" fill-rule="evenodd"/></g></svg>