<svg width="385" height="385" xmlns="http://www.w3.org/2000/svg" xmlns:xlink="http://www.w3.org/1999/xlink" xml:space="preserve" overflow="hidden"><defs><clipPath id="clip0"><rect x="2480" y="1548" width="385" height="385"/></clipPath></defs><g clip-path="url(#clip0)" transform="translate(-2480 -1548)"><path d="M2632.14 1548 2807.64 1548C2838.77 1548 2864 1573.25 2864 1604.39L2864 1628.23 2864 1628.23 2864 1857.95 2864 1857.95 2864 1875.61C2864 1906.75 2838.77 1932 2807.64 1932L2618.45 1932 2589.84 1908.38C2547.92 1866.45 2522 1808.51 2522 1744.52 2522 1664.53 2562.51 1594 2624.12 1552.36Z" fill="#00B050" fill-rule="evenodd"/><path d="M2536.38 1548 2632 1548 2623.97 1552.36C2562.33 1594 2521.81 1664.53 2521.81 1744.52 2521.81 1808.51 2547.75 1866.45 2589.68 1908.38L2618.3 1932 2536.38 1932C2505.24 1932 2480 1906.75 2480 1875.61L2480 1604.39C2480 1573.25 2505.24 1548 2536.38 1548Z" fill="#002060" fill-rule="evenodd"/><path d="M2676.53 1549 2819.19 1549C2844.49 1549 2865 1574.25 2865 1605.39L2865 1629.23 2865 1629.23 2865 1858.95 2865 1858.95 2865 1876.61C2865 1907.75 2844.49 1933 2819.19 1933L2665.4 1933 2642.14 1909.38C2608.07 1867.45 2587 1809.51 2587 1745.52 2587 1665.53 2619.93 1595 2670.01 1553.36Z" fill="#92D050" fill-rule="evenodd"/><path d="M2628.36 1673.32 2857.64 1673.32 2857.64 1733.06 2628.36 1733.06ZM2628.36 1762.94 2857.64 1762.94 2857.64 1822.68 2628.36 1822.68Z" fill="#FFFFFF" fill-rule="evenodd"/></g></svg>