<svg width="394" height="384" xmlns="http://www.w3.org/2000/svg" xmlns:xlink="http://www.w3.org/1999/xlink" xml:space="preserve" overflow="hidden"><defs><clipPath id="clip0"><rect x="1569" y="1557" width="394" height="384"/></clipPath></defs><g clip-path="url(#clip0)" transform="translate(-1569 -1557)"><path d="M1721.14 1557 1896.64 1557C1927.77 1557 1953 1582.25 1953 1613.39L1953 1637.23 1953 1637.23 1953 1866.95 1953 1866.95 1953 1884.61C1953 1915.75 1927.77 1941 1896.64 1941L1707.45 1941 1678.84 1917.38C1636.92 1875.45 1611 1817.51 1611 1753.52 1611 1673.53 1651.51 1603 1713.12 1561.36Z" fill="#00B050" fill-rule="evenodd"/><path d="M1625.38 1557 1721 1557 1712.97 1561.36C1651.33 1603 1610.81 1673.53 1610.81 1753.52 1610.81 1817.51 1636.75 1875.45 1678.68 1917.38L1707.3 1941 1625.38 1941C1594.24 1941 1569 1915.75 1569 1884.61L1569 1613.39C1569 1582.25 1594.24 1557 1625.38 1557Z" fill="#002060" fill-rule="evenodd"/><path d="M1780 1623.25 1891.75 1623.25 1891.75 1680.25 1864.25 1680.25 1864.25 1637 1878 1650.75 1780 1650.75ZM1919.25 1666.5 1878 1749 1836.75 1666.5Z" fill="#FFFFFF"/><path d="M1798 1875.75 1707.25 1875.75 1707.25 1817.75 1734.75 1817.75 1734.75 1862 1721 1848.25 1798 1848.25ZM1679.75 1831.5 1721 1749 1762.25 1831.5Z" fill="#FFFFFF"/><path d="M1706.71 1614.5 1731.21 1614.5 1771.5 1726.5 1747.16 1726.5 1739.19 1701.87 1698.81 1701.87 1690.59 1726.5 1666.5 1726.5 1706.71 1614.5ZM1718.92 1637.63 1704.38 1682.48 1733.45 1682.48 1718.92 1637.63Z" stroke="#FFFFFF" stroke-width="6.875" stroke-miterlimit="8" fill="#FFFFFF" fill-rule="evenodd"/><path d="M1840.5 1769.5 1878.72 1769.5C1890.8 1769.5 1900.35 1771.79 1907.39 1776.36 1914.42 1780.94 1917.94 1787.97 1917.94 1797.46 1917.94 1803.39 1916.46 1808.43 1913.49 1812.56 1910.53 1816.69 1906.58 1819.68 1901.65 1821.51 1909.41 1823.06 1915.32 1826.22 1919.39 1830.99 1923.46 1835.76 1925.5 1841.64 1925.5 1848.63 1925.5 1856.12 1923.8 1862.29 1920.39 1867.15 1916.98 1872 1912.11 1875.61 1905.77 1877.96 1899.42 1880.32 1891.82 1881.5 1882.96 1881.5L1840.5 1881.5 1840.5 1769.5ZM1863.85 1788.39 1863.85 1814.85 1878.39 1814.85C1882.88 1814.85 1886.64 1813.68 1889.69 1811.35 1892.73 1809.02 1894.26 1805.61 1894.26 1801.12 1894.26 1797.96 1893.57 1795.45 1892.18 1793.59 1890.8 1791.73 1888.91 1790.4 1886.53 1789.6 1884.15 1788.79 1881.44 1788.39 1878.39 1788.39L1863.85 1788.39ZM1863.85 1832.74 1863.85 1862.11 1882.13 1862.11C1885.78 1862.11 1889.11 1861.65 1892.1 1860.74 1895.09 1859.82 1897.46 1858.22 1899.2 1855.91 1900.95 1853.61 1901.82 1850.52 1901.82 1846.64 1901.82 1841.64 1899.96 1838.08 1896.25 1835.94 1892.54 1833.81 1887.83 1832.74 1882.13 1832.74L1863.85 1832.74Z" stroke="#FFFFFF" stroke-width="6.875" stroke-miterlimit="8" fill="#FFFFFF" fill-rule="evenodd"/></g></svg>