<svg width="385" height="385" xmlns="http://www.w3.org/2000/svg" xmlns:xlink="http://www.w3.org/1999/xlink" xml:space="preserve" overflow="hidden"><defs><clipPath id="clip0"><rect x="3038" y="1554" width="385" height="385"/></clipPath></defs><g clip-path="url(#clip0)" transform="translate(-3038 -1554)"><path d="M3094.54 1555 3190.42 1555 3366.46 1555C3397.69 1555 3423 1580.25 3423 1611.39L3423 1635.23 3423 1635.23 3423 1864.95 3423 1864.95 3423 1882.61C3423 1913.75 3397.69 1939 3366.46 1939L3176.68 1939 3094.54 1939C3063.31 1939 3038 1913.75 3038 1882.61L3038 1611.39C3038 1580.25 3063.31 1555 3094.54 1555Z" fill="#002060" fill-rule="evenodd"/><path d="M3190.47 1554 3366.47 1554C3397.69 1554 3423 1579.25 3423 1610.39L3423 1634.23 3423 1634.23 3423 1863.95 3423 1863.95 3423 1881.61C3423 1912.75 3397.69 1938 3366.47 1938L3176.73 1938 3148.04 1914.38C3106 1872.45 3080 1814.51 3080 1750.52 3080 1670.53 3120.62 1600 3182.41 1558.36Z" fill="#00B050" fill-rule="evenodd"/><path d="M3261.98 1613.43C3277.29 1600.83 3299.92 1603.02 3312.53 1618.33 3325.14 1633.65 3322.94 1656.28 3307.63 1668.88 3292.32 1681.49 3269.68 1679.3 3257.08 1663.98 3244.47 1648.67 3246.67 1626.04 3261.98 1613.43Z" fill="#FF0000" fill-rule="evenodd"/><path d="M3120.26 1730.1C3135.57 1717.5 3158.2 1719.69 3170.81 1735 3183.41 1750.32 3181.22 1772.95 3165.91 1785.55 3150.59 1798.16 3127.96 1795.97 3115.36 1780.65 3102.75 1765.34 3104.95 1742.71 3120.26 1730.1Z" fill="#FF0000" fill-rule="evenodd"/><path d="M3337.78 1705.51C3353.09 1692.91 3375.73 1695.1 3388.33 1710.41 3400.94 1725.72 3398.74 1748.36 3383.43 1760.96 3368.12 1773.57 3345.49 1771.37 3332.88 1756.06 3320.27 1740.75 3322.47 1718.12 3337.78 1705.51Z" fill="#92D050" fill-rule="evenodd"/><path d="M3196.06 1822.18C3211.37 1809.58 3234 1811.77 3246.61 1827.08 3259.22 1842.39 3257.02 1865.03 3241.71 1877.63 3226.4 1890.24 3203.76 1888.04 3191.16 1872.73 3178.55 1857.42 3180.75 1834.79 3196.06 1822.18Z" fill="#92D050" fill-rule="evenodd"/><path d="M3386.19 1640.55 3121.59 1858.37" stroke="#FFFFFF" stroke-width="27.5" stroke-miterlimit="8" fill="none" fill-rule="evenodd"/></g></svg>