<svg width="385" height="384" xmlns="http://www.w3.org/2000/svg" xmlns:xlink="http://www.w3.org/1999/xlink" xml:space="preserve" overflow="hidden"><defs><clipPath id="clip0"><rect x="999" y="55" width="385" height="384"/></clipPath></defs><g clip-path="url(#clip0)" transform="translate(-999 -55)"><path d="M1273.16 103C1303.85 103 1332.35 112.35 1356 128.362L1383.65 153.546 1383.65 182.454 1384 182.454 1384 344.323 1383.65 344.323 1383.65 349.715 1364.63 368.327C1339.44 388.168 1307.68 400 1273.16 400 1191.33 400 1125 333.514 1125 251.5 1125 169.486 1191.33 103 1273.16 103Z" fill="#002060" fill-rule="evenodd"/><path d="M1326.89 114C1346.51 114 1365.2 117.938 1382.2 125.06L1384 126.027 1384 202 1280 202 1280 122.009 1284.64 120.327C1297.99 116.215 1312.18 114 1326.89 114Z" fill="#4E95D9" fill-rule="evenodd"/><path d="M1275 123 1275 202 1193 202 1193.75 199.96C1208.01 166.387 1235.01 139.49 1268.72 125.289L1275 123Z" fill="#A6CAEC" fill-rule="evenodd"/><path d="M1191.64 208 1275 208 1275 310 1191.64 310 1188.38 301.121C1184.23 287.815 1182 273.668 1182 259 1182 244.332 1184.23 230.185 1188.38 216.879L1191.64 208Z" fill="#4E95D9" fill-rule="evenodd"/><path d="M1280 208 1384 208 1384 310 1280 310 1280 208Z" fill="#FBE3D6" fill-rule="evenodd"/><path d="M1193 315 1275 315 1275 395 1268.72 392.682C1235.01 378.301 1208.01 351.064 1193.75 317.066L1193 315Z" fill="#FBE3D6" fill-rule="evenodd"/><path d="M1280 315 1384 315 1384 390.973 1382.2 391.94C1365.2 399.062 1346.51 403 1326.89 403 1312.18 403 1297.99 400.785 1284.64 396.673L1280 394.991 1280 315Z" fill="#CAEEFB" fill-rule="evenodd"/><path d="M1151.47 55 1327.48 55C1358.69 55 1384 80.2466 1384 111.39L1384 153.828 1356.29 128.711C1332.6 112.742 1304.04 103.417 1273.29 103.417 1191.3 103.417 1124.83 169.725 1124.83 251.52 1124.83 333.314 1191.3 399.622 1273.29 399.622 1307.88 399.622 1339.7 387.821 1364.94 368.034L1384 349.471 1384 382.61C1384 413.753 1358.69 439 1327.48 439L1137.73 439 1109.04 415.382C1067 373.446 1041 315.512 1041 251.52 1041 171.53 1081.62 101.005 1143.41 59.3601L1151.47 55Z" fill="#00B050" fill-rule="evenodd"/><path d="M1055.38 55 1151 55 1142.97 59.3601C1081.33 101.005 1040.81 171.53 1040.81 251.52 1040.81 315.512 1066.75 373.446 1108.68 415.382L1137.3 439 1055.38 439C1024.24 439 999 413.753 999 382.61L999 111.39C999 80.2466 1024.24 55 1055.38 55Z" fill="#002060" fill-rule="evenodd"/><path d="M1280 208 1384 208 1384 310 1280 310 1280 208Z" fill="#00B050" fill-rule="evenodd"/></g></svg>