<svg width="386" height="385" xmlns="http://www.w3.org/2000/svg" xmlns:xlink="http://www.w3.org/1999/xlink" xml:space="preserve" overflow="hidden"><defs><clipPath id="clip0"><rect x="1117" y="1547" width="386" height="385"/></clipPath></defs><g clip-path="url(#clip0)" transform="translate(-1117 -1547)"><path d="M1270.47 1547 1446.47 1547C1477.69 1547 1503 1572.31 1503 1603.54L1503 1627.44 1503 1627.44 1503 1857.75 1503 1857.76 1503 1875.46C1503 1906.69 1477.69 1932 1446.47 1932L1256.73 1932 1228.04 1908.32C1186 1866.28 1160 1808.19 1160 1744.03 1160 1663.83 1200.62 1593.12 1262.41 1551.37Z" fill="#00B050" fill-rule="evenodd"/><path d="M1174.75 1547 1271 1547 1262.92 1551.37C1200.88 1593.12 1160.09 1663.83 1160.09 1744.03 1160.09 1808.19 1186.19 1866.28 1228.4 1908.32L1257.21 1932 1174.75 1932C1143.41 1932 1118 1906.69 1118 1875.46L1118 1603.54C1118 1572.31 1143.41 1547 1174.75 1547Z" fill="#002060" fill-rule="evenodd"/><path d="M1348.15 1650 1348.15 1703.96 1227 1703.96 1227 1773.04 1348.15 1773.04 1348.15 1827 1452 1738.5Z" fill="#FFFFFF" fill-rule="evenodd"/><path d="M1238.15 1650 1238.15 1703.96 1117 1703.96 1117 1773.04 1238.15 1773.04 1238.15 1827 1342 1738.5Z" fill="#FFFFFF" fill-rule="evenodd"/></g></svg>