<svg width="384" height="384" xmlns="http://www.w3.org/2000/svg" xmlns:xlink="http://www.w3.org/1999/xlink" xml:space="preserve" overflow="hidden"><defs><clipPath id="clip0"><rect x="3532" y="1557" width="384" height="384"/></clipPath></defs><g clip-path="url(#clip0)" transform="translate(-3532 -1557)"><path d="M3684.14 1557 3859.64 1557C3890.77 1557 3916 1582.25 3916 1613.39L3916 1637.23 3916 1637.23 3916 1866.95 3916 1866.95 3916 1884.61C3916 1915.75 3890.77 1941 3859.64 1941L3670.45 1941 3641.84 1917.38C3599.92 1875.45 3574 1817.51 3574 1753.52 3574 1673.53 3614.51 1603 3676.12 1561.36Z" fill="#00B050" fill-rule="evenodd"/><path d="M3588.38 1557 3684 1557 3675.97 1561.36C3614.33 1603 3573.81 1673.53 3573.81 1753.52 3573.81 1817.51 3599.75 1875.45 3641.68 1917.38L3670.3 1941 3588.38 1941C3557.24 1941 3532 1915.75 3532 1884.61L3532 1613.39C3532 1582.25 3557.24 1557 3588.38 1557Z" fill="#002060" fill-rule="evenodd"/><path d="M3764 1623 3764 1767 3620 1767 3622.93 1737.98C3634.43 1681.73 3678.73 1637.43 3734.98 1625.93L3764 1623Z" fill="#92D050" fill-rule="evenodd"/><path d="M3608 1759.5C3608 1679.69 3672.69 1615 3752.5 1615 3832.31 1615 3897 1679.69 3897 1759.5 3897 1839.31 3832.31 1904 3752.5 1904 3672.69 1904 3608 1839.31 3608 1759.5Z" stroke="#FFFFFF" stroke-width="27.5" stroke-miterlimit="8" fill="none" fill-rule="evenodd"/></g></svg>